<?xml version="1.0" standalone="no"?>
<!DOCTYPE svg PUBLIC "-//W3C//DTD SVG 20010904//EN"
 "http://www.w3.org/TR/2001/REC-SVG-20010904/DTD/svg10.dtd">
<svg version="1.0" xmlns="http://www.w3.org/2000/svg"
 width="933.000000pt" height="700.000000pt" viewBox="0 0 933.000000 700.000000"
 preserveAspectRatio="xMidYMid meet">

<g transform="translate(0.000000,700.000000) scale(0.100000,-0.100000)"
fill="#000000" stroke="none">
<path d="M0 6680 c0 -207 4 -320 10 -320 6 0 10 -7 10 -15 0 -9 7 -18 15 -21
30 -12 59 -95 60 -171 l0 -73 -50 -1 c-37 0 -45 -3 -30 -9 17 -7 17 -9 3 -9
-10 -1 -18 -7 -18 -15 0 -15 50 -26 123 -26 l47 0 0 -55 0 -55 -85 0 -85 0 0
-2955 0 -2955 1733 0 1734 0 49 67 c60 83 152 192 217 258 27 28 12 5 -36 -51
-109 -131 -210 -264 -205 -270 3 -2 316 -3 696 -2 l691 3 -54 135 c-30 74 -55
140 -55 145 0 13 69 -141 99 -222 l23 -63 2219 0 2219 0 -2 1992 -3 1992 -60
24 c-33 13 -69 25 -80 27 -11 3 -115 37 -232 77 l-211 72 5 91 c3 49 7 92 9
94 7 8 362 -114 356 -123 -3 -5 0 -6 5 -3 12 8 160 -38 181 -55 8 -7 16 -8 23
-1 6 6 8 126 7 313 -3 343 6 311 -97 330 -52 9 -66 9 -72 -2 -7 -11 -11 -10
-19 2 -8 12 -11 13 -19 1 -14 -21 -70 -4 -81 25 -8 21 -16 24 -57 24 -31 0
-60 -7 -81 -20 -19 -12 -30 -15 -26 -9 4 8 3 9 -5 5 -6 -4 -9 -11 -6 -16 3 -5
1 -11 -5 -15 -5 -3 -10 -18 -10 -32 0 -17 -4 -23 -14 -20 -10 4 -16 -13 -26
-65 -6 -38 -14 -67 -16 -65 -7 6 17 201 25 207 17 13 31 66 31 116 0 48 -3 56
-22 63 -13 5 -29 6 -35 4 -20 -8 -15 27 12 82 28 56 33 110 11 118 -15 6 -21
-3 -91 -136 -16 -31 -36 -57 -42 -57 -7 0 -13 -4 -13 -9 0 -11 -75 -166 -105
-215 -18 -30 -21 -44 -14 -60 8 -17 2 -38 -31 -101 -36 -70 -43 -73 -25 -8 3
10 -2 2 -11 -17 -14 -30 -17 -32 -26 -17 -7 13 -16 16 -31 11 -20 -6 -21 -6
-6 17 9 13 26 28 37 34 23 10 28 31 12 55 -8 12 -10 12 -10 1 0 -11 -4 -10
-23 2 -13 8 -35 13 -49 10 -14 -3 -29 0 -32 6 -14 21 -35 11 -42 -21 -4 -18
-9 -28 -10 -23 -5 13 74 237 120 345 83 190 85 206 21 267 -25 24 -50 43 -55
43 -5 0 9 -17 30 -37 24 -23 43 -51 46 -70 l6 -33 -58 0 c-32 0 -114 7 -182
16 -67 9 -129 13 -136 11 -8 -3 -19 -28 -26 -55 l-13 -50 -61 -4 c-77 -7 -249
-77 -305 -124 -22 -19 -46 -50 -52 -69 -16 -43 -31 -47 -19 -5 11 39 53 93 86
111 l26 14 -23 6 c-21 6 -19 7 10 8 40 1 111 21 111 31 0 11 -83 30 -129 30
-23 0 -41 4 -41 9 0 4 -12 6 -26 3 -20 -3 -25 -2 -19 7 4 7 13 10 19 8 7 -3
19 -1 27 4 11 7 9 9 -9 9 -12 0 -21 3 -20 8 0 4 -3 16 -7 26 -6 13 -4 21 3 24
7 2 10 8 6 13 -9 15 -21 10 -27 -11 -3 -11 -9 -20 -14 -19 -20 4 -33 -2 -33
-14 0 -8 -8 -23 -17 -34 -16 -18 -27 -19 -106 -15 -98 5 -116 -5 -115 -61 1
-16 -6 -36 -15 -45 -10 -9 -17 -12 -17 -6 0 6 3 14 6 17 4 4 8 19 9 34 4 41 9
57 20 66 6 5 -8 6 -29 3 -46 -6 -187 14 -180 26 7 11 117 10 148 -2 36 -13 53
-4 65 38 l11 37 -5 -37 c-2 -21 0 -38 6 -38 5 0 9 6 9 13 0 8 4 7 11 -3 8 -11
9 -6 5 20 -4 21 -3 31 3 25 5 -6 11 -19 13 -30 2 -11 12 17 22 63 19 82 19 83
0 110 -11 15 -51 43 -89 62 -62 31 -79 35 -145 34 -85 0 -180 -30 -218 -67
-26 -26 -42 -97 -22 -97 7 0 10 7 6 15 -3 9 0 15 9 15 8 0 15 5 15 10 0 6 4
10 9 10 7 0 -11 -51 -25 -68 -6 -8 -64 29 -61 39 1 7 -3 13 -9 16 -7 2 -10 -6
-6 -22 4 -24 2 -26 -34 -23 -22 1 -41 5 -44 9 -3 4 -23 3 -45 -1 -22 -4 -35
-8 -29 -9 7 0 11 -12 10 -26 -1 -19 -5 -23 -23 -19 -15 4 -23 0 -28 -15 -6
-19 -17 -26 -38 -22 -5 1 -6 -3 -3 -8 8 -13 -9 -22 -27 -15 -9 3 -15 16 -14
32 2 24 -1 27 -28 24 -16 -2 -35 -10 -41 -18 -6 -7 -25 -14 -43 -14 -29 0 -31
3 -31 34 0 19 -4 38 -10 41 -12 7 -60 -23 -60 -39 0 -6 -9 -17 -20 -24 -11 -7
-20 -21 -20 -31 0 -26 -16 -35 -25 -14 -3 10 -1 19 4 21 6 2 11 10 11 18 0 9
4 13 9 10 23 -15 28 139 5 172 -23 34 -154 95 -154 72 0 -5 5 -10 12 -12 19
-7 1 -25 -30 -31 -16 -3 -42 -2 -58 2 -16 4 -42 4 -57 -2 -39 -13 -45 -2 -8
14 66 30 14 33 -55 4 -44 -18 -74 -68 -74 -122 0 -39 -2 -43 -25 -43 -14 0
-25 -4 -25 -10 0 -5 11 -10 25 -10 21 0 25 -5 25 -30 0 -27 3 -30 30 -30 24 0
30 4 30 23 0 24 12 48 26 50 5 1 8 8 8 14 -1 7 2 10 7 7 5 -3 9 2 9 10 0 8 5
18 12 22 11 7 9 -10 -7 -48 -5 -14 -2 -18 14 -18 12 0 21 -4 21 -10 0 -5 -5
-10 -11 -10 -6 0 -8 -7 -5 -17 6 -16 6 -16 -12 0 -29 26 -53 12 -50 -29 1 -25
8 -36 28 -44 14 -6 34 -23 45 -38 l19 -26 -34 21 c-19 11 -50 30 -67 40 -18
11 -30 23 -25 28 4 4 0 6 -8 3 -8 -3 -28 4 -45 16 -48 33 -138 34 -228 1 -88
-32 -107 -57 -115 -153 -4 -50 -7 -61 -13 -44 -19 50 -19 114 0 242 19 127 48
246 50 208 1 -13 9 -18 31 -18 20 0 30 -5 30 -15 0 -8 5 -15 11 -15 6 0 9 7 6
15 -4 8 -2 17 2 20 11 6 23 -39 15 -59 -11 -29 11 -16 34 19 29 46 38 44 34
-7 -3 -34 -1 -40 8 -31 7 6 18 9 24 7 6 -2 18 10 25 28 l14 33 7 -30 c5 -20 8
-23 9 -10 1 17 3 18 12 5 8 -11 9 -3 4 30 -4 25 -7 51 -8 59 0 10 -19 12 -96
7 -53 -4 -113 -9 -133 -12 -25 -4 -38 -2 -38 5 0 11 42 32 58 30 4 -1 21 -1
37 0 l30 1 -30 16 c-19 10 -31 11 -33 5 -2 -6 -9 -11 -15 -11 -8 0 -8 3 0 11
14 14 6 39 -12 39 -8 0 -15 -8 -18 -17 -4 -17 -5 -16 -12 1 -6 13 -3 23 9 32
17 12 17 14 -1 38 -15 21 -26 25 -70 26 -30 0 -53 -5 -55 -11 -2 -7 -13 -9
-26 -5 -12 4 -20 11 -18 15 3 4 9 104 15 222 16 311 31 512 42 532 8 16 5 17
-33 12 -40 -5 -79 -25 -49 -25 10 0 11 -51 6 -257 -4 -142 -8 -283 -9 -313 -1
-40 -5 -57 -17 -62 -9 -3 -19 -16 -22 -27 -3 -12 -1 -19 4 -15 5 3 9 12 9 20
0 8 4 14 10 14 5 0 7 -7 4 -15 -4 -9 0 -15 9 -15 16 0 28 -41 20 -71 -3 -10
-11 -19 -19 -19 -7 0 -38 -11 -68 -24 -37 -17 -60 -34 -70 -55 -22 -42 -21
-88 2 -95 41 -13 82 -70 93 -130 5 -31 8 -63 5 -69 -2 -7 -5 -1 -5 12 -1 20
-4 22 -28 16 -110 -29 -133 -32 -122 -19 6 8 19 14 28 15 12 0 11 2 -4 9 -11
5 -14 9 -7 9 9 1 6 11 -9 33 -22 31 -23 31 -32 10 -6 -12 -14 -22 -19 -22 -4
0 -8 -14 -8 -32 0 -17 -3 -29 -6 -25 -4 3 -16 -8 -28 -26 -47 -71 -67 -132
-73 -222 -2 -38 -8 -74 -12 -78 -11 -11 -273 -10 -280 1 -8 13 -51 -4 -51 -20
0 -10 2 -10 9 1 6 9 11 10 15 2 4 -7 -10 -15 -38 -23 -34 -9 -43 -16 -41 -30
3 -12 -2 -18 -16 -18 -16 0 -19 -8 -20 -42 -2 -32 -3 -35 -6 -13 -7 63 -26
116 -38 111 -8 -3 -11 2 -8 14 4 14 -4 23 -33 36 -22 9 -50 16 -64 15 -18 0
-21 2 -11 8 11 7 11 10 -4 12 -10 3 -19 14 -21 29 -1 14 -10 65 -18 114 -9 49
-15 103 -15 120 1 31 11 -14 24 -108 6 -46 15 -60 16 -25 l1 24 11 -26 c12
-25 13 -25 31 -8 10 10 16 21 13 26 -8 13 56 14 65 0 6 -9 11 -8 19 3 12 17
15 27 -21 -88 -12 -40 -20 -76 -17 -79 12 -11 25 8 41 61 l17 54 72 12 c40 6
79 12 87 13 11 2 15 17 15 62 l0 60 -75 -2 c-54 -2 -78 -7 -86 -18 -14 -18
-38 -20 -51 -2 -26 33 -56 267 -34 267 19 0 34 52 19 62 -7 4 -19 6 -25 3 -7
-2 -13 0 -13 5 0 16 18 20 45 10 40 -15 98 -20 115 -10 11 7 4 10 -25 11 -22
0 -51 5 -65 9 -23 7 -22 8 11 9 58 2 99 12 99 27 0 7 6 19 13 26 6 7 13 25 14
41 l1 27 -194 0 c-148 0 -194 -3 -194 -12 -1 -20 -43 -46 -80 -50 -31 -3 -35
0 -43 29 -9 30 -13 32 -71 38 -33 3 -117 5 -186 3 l-125 -3 -10 -43 c-13 -51
-25 -45 -25 12 0 44 -13 75 -24 58 -3 -6 -2 -13 4 -17 6 -4 7 -11 4 -17 -10
-16 -716 -1 -729 16 -8 10 -116 14 -465 19 -250 4 -561 10 -690 14 l-235 6 0
-51 c0 -60 -23 -94 -49 -73 -10 9 -13 23 -10 44 5 26 3 29 -6 17 -9 -12 -10
-10 -4 10 3 14 15 33 26 44 11 10 16 21 12 25 -4 3 -9 0 -11 -6 -3 -9 -26 -13
-68 -13 -63 0 -96 15 -53 23 16 3 12 5 -11 6 -27 1 -32 -2 -23 -11 7 -7 12
-19 12 -27 0 -14 -17 -16 -126 -13 l-126 3 7 26 c9 39 33 55 100 65 22 4 23
14 5 148 -5 41 -23 190 -40 330 -16 140 -34 291 -40 335 -6 44 -11 92 -11 108
0 15 -4 27 -10 27 -11 0 -6 -136 10 -222 5 -31 13 -114 16 -185 4 -70 11 -135
15 -144 5 -8 11 -82 14 -163 3 -81 8 -152 11 -156 3 -5 -2 -18 -11 -28 -13
-15 -25 -19 -55 -15 -33 5 -39 3 -39 -13 0 -15 -2 -16 -9 -5 -7 11 -10 11 -15
0 -3 -8 -4 -2 -1 13 3 14 1 37 -4 50 -9 21 -10 20 -11 -12 -1 -19 -1 -46 0
-60 1 -14 -1 -22 -5 -18 -7 6 -12 45 -18 143 -2 28 -11 48 -31 68 l-28 29
-205 5 -205 6 12 -24 13 -24 -23 20 -23 20 7 -43 c4 -24 13 -51 22 -59 8 -9
13 -18 10 -20 -8 -9 -376 8 -376 17 0 4 7 11 16 14 18 7 16 31 -12 201 -8 50
-22 140 -30 200 -56 414 -67 497 -71 553 l-5 62 -99 0 -99 0 0 -320z m139
-636 c10 -9 -76 -3 -89 7 -11 7 -1 8 35 3 28 -4 52 -8 54 -10z m478 -104 l53
0 0 -36 c0 -32 -2 -35 -22 -30 -13 3 -17 3 -10 0 6 -3 9 -10 6 -16 -4 -6 1 -8
15 -3 27 8 120 -19 154 -46 15 -11 27 -29 27 -39 0 -15 -10 -19 -60 -22 -33
-1 -73 0 -90 3 -24 5 -30 3 -30 -10 0 -11 -3 -12 -8 -4 -7 12 -32 19 -104 30
-21 3 -38 11 -38 18 0 7 -10 13 -23 13 -13 0 -24 -7 -24 -14 0 -8 4 -14 9 -14
4 0 8 -6 8 -12 0 -7 -12 0 -25 15 -14 16 -23 33 -20 38 4 5 -5 9 -19 9 -14 0
-26 5 -26 11 0 5 -5 7 -10 4 -6 -3 -14 5 -20 19 -5 14 -14 26 -20 26 -6 0 -8
5 -5 10 3 6 1 10 -4 10 -6 0 -11 12 -11 27 l0 26 122 -6 c66 -4 145 -7 175 -7z
m607 -84 c-21 -15 -30 -14 -19 3 3 6 14 11 23 11 13 0 13 -2 -4 -14z m36 -11
c0 -2 -9 -9 -20 -15 -12 -6 -20 -7 -20 -1 0 5 8 12 18 14 9 3 18 5 20 6 1 0 2
-1 2 -4z m-1230 -36 c0 -5 4 -8 9 -4 5 3 13 0 17 -6 5 -8 3 -9 -6 -4 -10 6
-12 2 -7 -16 4 -13 7 -28 7 -34 0 -10 37 -29 112 -59 39 -15 79 -11 77 8 -4
29 2 45 15 40 8 -3 11 -15 8 -30 -3 -17 0 -24 12 -24 11 0 16 -9 16 -30 0 -28
-2 -30 -20 -20 -11 6 -20 18 -20 27 0 12 -3 13 -15 3 -9 -8 -12 -23 -9 -43 l5
-32 -15 32 c-18 39 -46 58 -128 87 -48 17 -63 27 -64 41 0 11 -3 32 -7 48 -5
16 -3 27 3 27 5 0 10 -5 10 -11z m347 -21 c-3 -8 -6 -5 -6 6 -1 11 2 17 5 13
3 -3 4 -12 1 -19z m545 -15 c3 -37 4 -38 38 -35 19 1 40 10 47 18 6 9 16 13
22 9 6 -3 11 1 11 9 0 22 21 20 27 -3 3 -13 23 -24 62 -35 59 -17 101 -46 101
-71 0 -20 13 -19 62 6 89 45 271 -3 311 -81 l17 -35 -121 -7 c-67 -4 -123 -9
-125 -11 -9 -9 24 -52 39 -49 11 2 18 -7 23 -33 6 -34 7 -35 55 -35 44 0 70
-13 55 -27 -12 -13 -100 -3 -109 12 -4 8 -15 15 -22 15 -8 0 -15 6 -15 13 0 6
-9 23 -19 36 l-18 23 -1 -36 c-3 -67 -3 -66 -46 -65 l-41 1 35 11 c43 13 51
24 40 53 -6 16 -5 26 5 34 11 9 12 17 4 31 -8 16 -21 19 -89 19 l-80 0 0 36
c0 26 -4 35 -13 31 -8 -3 -20 3 -27 13 -7 10 -20 16 -28 12 -9 -3 -13 -1 -9 5
9 15 -35 4 -45 -11 -5 -8 -8 -7 -8 1 0 7 12 24 27 38 l28 25 -30 -1 c-17 0
-39 -4 -50 -8 -22 -9 -63 5 -82 27 -9 11 -14 9 -28 -12 -10 -14 -22 -23 -27
-20 -6 4 -21 -6 -34 -22 -13 -16 -21 -21 -18 -11 5 15 -1 17 -45 17 -39 0 -51
-4 -51 -15 0 -8 -7 -15 -15 -15 -8 0 -15 5 -15 11 0 7 -10 9 -25 7 -20 -4 -25
-1 -25 14 0 10 7 21 15 25 14 5 14 8 -2 25 -16 18 -16 19 2 12 13 -5 16 -4 11
4 -4 7 -2 12 3 12 6 0 11 -13 11 -28 0 -19 5 -28 18 -29 9 0 41 -4 70 -8 43
-7 56 -5 72 10 11 10 17 21 15 26 -3 4 3 12 12 18 16 9 15 12 -11 36 -16 14
-26 28 -22 32 3 4 12 1 18 -5 17 -17 28 -15 22 3 -4 8 -1 15 4 15 6 0 12 -17
14 -37z m-492 17 c0 -5 -8 -10 -17 -10 -15 0 -16 2 -3 10 19 12 20 12 20 0z
m-160 -30 c0 -5 -4 -10 -10 -10 -5 0 -10 5 -10 10 0 6 5 10 10 10 6 0 10 -4
10 -10z m184 -18 c2 -4 7 -30 10 -57 7 -55 -1 -65 -50 -65 -37 0 -40 6 -43 78
l-2 52 40 0 c22 0 42 -4 45 -8z m171 -11 c2 -4 -9 -5 -25 -3 -17 2 -28 8 -25
12 6 9 43 2 50 -9z m2778 -30 c71 -1 117 -5 117 -11 0 -5 -11 -10 -24 -10 -14
0 -28 -4 -31 -10 -6 -9 -100 -26 -120 -22 -5 2 8 -13 30 -32 46 -39 60 -39 24
0 l-24 27 23 -12 c13 -7 26 -10 30 -7 3 3 0 6 -7 6 -7 0 -9 5 -6 10 9 15 25
12 25 -5 0 -13 4 -12 21 4 11 10 36 22 54 25 50 10 163 -4 169 -20 3 -8 10
-14 16 -14 6 0 9 4 5 9 -3 5 -1 12 4 15 10 7 9 -6 -3 -42 -4 -13 -12 -19 -18
-16 -7 5 -9 1 -5 -9 6 -17 -4 -21 -43 -18 -8 0 -10 -2 -4 -5 8 -3 8 -14 0 -39
-17 -48 -22 -50 -19 -7 l3 37 -15 -45 c-17 -53 -17 -53 -7 -46 4 2 8 -4 8 -14
0 -10 -5 -16 -11 -14 -6 3 -22 0 -36 -5 -19 -8 -13 -10 35 -8 l59 2 17 60 c20
74 36 105 55 105 18 0 26 -42 23 -122 -3 -61 -17 -75 -18 -18 -1 23 -3 22 -21
-12 -20 -39 -31 -88 -37 -172 -2 -20 -2 -20 -18 0 -13 16 -15 16 -10 2 3 -10
1 -18 -4 -18 -17 0 -11 -28 7 -39 16 -9 16 -15 -3 -113 -14 -70 -25 -103 -34
-103 -7 0 -15 -6 -18 -14 -3 -8 0 -11 7 -7 7 5 11 -3 11 -21 0 -28 -34 -62
-48 -48 -4 3 0 10 7 14 7 5 10 14 6 20 -5 8 -15 4 -32 -14 -14 -14 -35 -25
-46 -25 -20 0 -21 0 -1 15 10 8 26 15 34 15 23 2 -52 28 -82 29 -24 1 -28 5
-28 31 0 28 34 257 45 305 4 19 12 21 86 20 57 0 84 4 86 13 4 9 -17 12 -81
12 l-86 0 0 30 c0 42 -19 78 -44 82 -17 2 -20 9 -18 34 3 29 0 32 -30 38 -18
3 -90 6 -160 7 l-127 1 -10 31 c-5 18 -12 50 -16 72 -3 22 -8 48 -11 58 -5 16
3 17 113 13 65 -3 171 -5 236 -5z m1034 -16 c23 -14 50 -39 59 -56 14 -29 14
-32 -3 -45 -19 -14 -26 -16 -89 -18 -28 -2 -40 2 -38 9 3 7 -2 17 -10 24 -12
10 -13 16 -3 26 6 7 18 10 26 7 9 -3 12 -1 7 7 -4 7 -3 10 4 9 7 -2 14 5 15
15 2 13 -7 23 -28 32 -29 13 -30 14 -8 15 13 0 44 -11 68 -25z m-3477 -19 c0
-6 -5 -4 -11 4 -8 12 -9 10 -7 -9 2 -15 -3 -26 -12 -28 -13 -4 -13 -3 0 6 8 6
10 11 4 11 -7 0 -9 11 -6 25 3 20 7 23 18 14 8 -6 14 -17 14 -23z m1485 18
c76 -18 153 -66 155 -96 0 -5 -46 -8 -102 -8 -70 0 -98 3 -88 10 13 8 12 10
-2 10 -10 0 -18 -5 -18 -10 0 -7 -23 -8 -65 -4 -54 6 -64 4 -60 -7 4 -11 -5
-13 -45 -11 -42 3 -50 7 -50 23 0 41 85 87 190 102 25 4 32 3 85 -9z m1950
-14 c-3 -5 -15 -10 -25 -10 -10 0 -22 5 -25 10 -4 6 7 10 25 10 18 0 29 -4 25
-10z m-3357 -28 c3 -9 -2 -13 -14 -10 -9 1 -19 9 -22 16 -3 9 2 13 14 10 9 -1
19 -9 22 -16z m2710 -12 c-7 -11 -16 -20 -20 -20 -5 0 -3 9 4 20 7 11 16 20
20 20 5 0 3 -9 -4 -20z m536 6 c-5 -13 18 -33 39 -35 4 0 15 -5 25 -10 33 -20
-9 -11 -50 10 l-41 21 7 -26 c3 -14 3 -26 -2 -26 -18 0 -28 22 -24 50 3 24 9
30 28 30 16 0 22 -4 18 -14z m-3634 -31 c19 -14 36 -22 37 -18 3 8 154 5 163
-4 2 -2 -2 -8 -10 -13 -10 -7 -11 -10 -2 -10 7 0 12 -13 12 -32 0 -24 10 -43
40 -73 39 -40 79 -115 61 -115 -5 0 -12 9 -16 19 -10 31 -116 129 -165 152
-54 26 -85 18 -116 -29 -18 -26 -20 -38 -14 -69 12 -52 4 -54 -11 -4 -10 32
-16 40 -30 36 -13 -4 -21 3 -30 30 -16 44 -38 46 -30 1 1 -5 -7 -15 -19 -23
-26 -18 -25 -23 5 -55 14 -16 22 -33 19 -42 -3 -9 4 -32 15 -52 19 -32 21 -50
20 -162 -1 -94 -4 -119 -11 -95 -5 18 -19 40 -33 49 -15 10 -26 29 -30 55 -4
23 -13 53 -21 67 -8 15 -14 33 -14 40 0 6 -3 12 -8 12 -4 0 -20 12 -35 26 -22
20 -27 32 -23 50 4 16 2 24 -6 24 -32 0 -64 114 -37 131 21 13 41 11 34 -3 -4
-7 8 3 26 22 l33 35 -34 5 -35 6 34 7 c18 4 51 7 72 7 30 0 42 5 55 25 21 33
60 33 104 0z m1131 2 c-13 -13 -26 -3 -16 12 3 6 11 8 17 5 6 -4 6 -10 -1 -17z
m3689 13 c-20 -13 -47 -13 -55 0 -4 6 9 10 32 10 28 0 34 -3 23 -10z m100 0
c8 -5 12 -11 10 -14 -3 -2 -14 2 -24 10 -22 15 -10 19 14 4z m-4635 -10 c3 -5
-1 -10 -9 -10 -9 0 -16 5 -16 10 0 6 4 10 9 10 6 0 13 -4 16 -10z m1779 -2
c-6 -9 -3 -9 9 0 14 12 18 9 31 -22 8 -20 13 -43 10 -51 -4 -8 1 -18 10 -21 9
-3 16 -15 16 -26 0 -14 -5 -18 -15 -14 -11 4 -15 -2 -15 -24 0 -35 15 -40 24
-7 5 18 8 19 15 7 6 -9 6 -19 -1 -27 -6 -7 -8 -24 -6 -38 6 -32 -7 -41 -28
-21 -20 21 -31 20 -43 -1 -9 -15 -10 -13 -11 12 0 30 -3 32 -57 43 -32 6 -68
9 -80 6 -13 -4 -31 -3 -40 2 -14 6 -8 9 22 14 36 5 58 3 160 -15 l30 -5 -22
19 c-13 11 -23 25 -23 32 0 7 -7 21 -17 31 -9 10 -13 21 -10 24 10 11 35 -15
39 -39 3 -20 4 -19 9 5 4 15 3 25 -2 23 -4 -3 -10 -1 -13 4 -3 5 4 11 17 15
14 4 18 9 11 13 -27 19 -40 73 -18 73 3 0 2 -6 -2 -12z m-892 -38 c-25 -34
-28 -50 -8 -50 9 0 17 -15 21 -39 l6 -39 49 16 c27 8 47 19 44 24 -3 5 -10 5
-16 2 -7 -4 -8 -2 -4 4 5 9 13 9 26 2 20 -11 138 -14 127 -4 -3 4 -2 15 4 26
8 16 19 18 62 16 56 -3 52 2 56 -70 1 -10 6 -18 12 -18 5 0 35 -12 65 -26 41
-19 59 -35 74 -64 11 -22 20 -47 20 -57 -1 -10 -7 0 -15 22 -18 50 -41 67
-138 105 -84 33 -158 50 -216 50 -44 0 -195 -52 -236 -82 l-30 -21 22 24 23
25 -38 -4 c-63 -5 -82 -12 -82 -27 0 -8 -6 -15 -14 -15 -8 0 -23 -3 -33 -7
-12 -4 -10 0 7 15 24 20 24 21 3 19 -12 0 -19 -5 -17 -9 3 -4 -4 -8 -15 -8
-30 0 -29 46 1 56 l22 7 -22 17 -22 18 34 4 c32 3 33 2 25 -19 -7 -19 -5 -24
17 -29 24 -6 101 0 109 8 2 2 5 20 7 41 1 22 7 37 15 37 17 0 16 8 -1 43 -17
30 -15 32 15 15 18 -11 23 -10 37 8 26 33 29 18 4 -16z m-1435 14 c-3 -3 -12
-4 -19 -1 -8 3 -5 6 6 6 11 1 17 -2 13 -5z m1930 -26 c-3 -8 -6 -5 -6 6 -1 11
2 17 5 13 3 -3 4 -12 1 -19z m626 -18 c3 -11 12 -20 21 -20 9 0 16 -4 16 -10
0 -5 -4 -10 -10 -10 -19 0 -10 -32 10 -37 13 -3 20 -14 20 -29 0 -19 7 -24 44
-29 37 -6 48 -4 68 14 63 60 168 100 214 83 l29 -11 -30 1 c-71 3 -202 -68
-224 -121 -8 -17 -18 -31 -24 -31 -6 0 -7 3 -4 7 12 11 -14 33 -39 33 -13 0
-28 9 -34 21 -9 17 -17 19 -43 13 -18 -3 -34 -10 -37 -14 -7 -10 -120 0 -120
11 0 5 27 9 60 9 57 0 66 5 61 33 0 4 5 7 13 7 11 0 13 7 6 29 -4 16 -6 32 -2
35 3 3 0 6 -6 6 -7 0 -12 7 -12 15 0 22 17 18 23 -5z m24 -2 c-3 -8 -6 -5 -6
6 -1 11 2 17 5 13 3 -3 4 -12 1 -19z m1313 0 c0 -23 -3 -23 -25 1 -16 19 -16
20 4 18 13 -1 21 -8 21 -19z m-2010 -3 c-7 -8 -17 -12 -22 -9 -6 4 -5 10 3 15
22 14 33 10 19 -6z m1393 0 c-3 -9 -8 -14 -10 -11 -3 3 -2 9 2 15 9 16 15 13
8 -4z m-3293 -10 c-7 -8 -17 -15 -22 -15 -6 0 -5 7 2 15 7 8 17 15 22 15 6 0
5 -7 -2 -15z m1970 -10 c0 -17 -5 -25 -17 -25 -15 0 -16 2 -3 10 12 8 11 10
-7 10 -27 0 -31 17 -5 23 31 8 32 7 32 -18z m55 15 c3 -5 -3 -10 -14 -10 -11
0 -23 5 -26 10 -3 6 3 10 14 10 11 0 23 -4 26 -10z m-101 -41 c-8 -14 -24 -10
-24 6 0 9 6 12 15 9 8 -4 12 -10 9 -15z m1996 2 c0 -11 3 -27 6 -36 6 -14 8
-14 25 1 18 17 19 16 14 -12 -2 -16 -7 -64 -11 -107 -3 -42 -9 -75 -14 -72 -5
3 -16 -18 -24 -47 -9 -29 -21 -60 -27 -68 -9 -12 -10 -11 -4 5 19 52 26 118
16 147 -14 40 -14 57 0 38 9 -12 10 -12 5 3 -3 10 -6 23 -6 28 0 6 -5 7 -12 3
-8 -5 -9 3 -5 30 3 22 2 34 -4 31 -5 -4 -9 2 -9 12 0 10 -3 28 -6 41 -6 19 -3
22 25 22 24 0 31 -4 31 -19z m-2297 2 c-7 -2 -19 -2 -25 0 -7 3 -2 5 12 5 14
0 19 -2 13 -5z m-1718 -40 c3 -15 12 -31 18 -35 9 -5 8 -11 -2 -20 -11 -11
-13 -11 -6 1 6 10 4 12 -4 6 -9 -5 -10 -10 -2 -18 6 -6 11 -28 11 -48 0 -57 8
-69 45 -69 19 0 39 -8 50 -20 17 -19 17 -21 -1 -47 -10 -16 -17 -31 -16 -35 5
-17 -22 -7 -43 16 -25 27 -66 177 -68 250 -2 51 7 61 18 19z m1960 9 c-3 -3
-11 0 -18 7 -9 10 -8 11 6 5 10 -3 15 -9 12 -12z m-1025 -28 c6 -14 10 -29 10
-33 0 -10 -67 -31 -74 -23 -12 11 -5 23 12 20 13 -2 18 5 20 30 4 38 19 42 32
6z m6014 15 c-7 -12 -65 -11 -84 1 -11 7 0 9 37 8 29 0 50 -5 47 -9z m-5159
-19 c3 -5 13 -7 23 -4 14 5 15 4 2 -5 -28 -20 -137 -11 -124 10 7 12 91 12 99
-1z m268 3 c-7 -2 -21 -2 -30 0 -10 3 -4 5 12 5 17 0 24 -2 18 -5z m3711 -15
c4 4 14 -2 22 -12 13 -18 19 -19 75 -8 34 6 66 9 72 5 5 -3 32 -9 61 -13 48
-7 45 -8 -39 -10 -80 -3 -228 -3 -262 -1 -7 1 -12 7 -10 13 3 18 50 37 63 27
6 -5 14 -5 18 -1z m1014 -5 c-2 -12 3 -17 15 -15 22 4 21 -6 -2 -41 -17 -27
-19 -27 -24 -8 -3 12 -1 19 4 15 10 -6 12 9 3 19 -4 3 -15 -4 -25 -16 -16 -19
-18 -20 -19 -5 0 15 37 68 47 68 2 0 3 -8 1 -17z m13 -6 c-10 -9 -11 -8 -5 6
3 10 9 15 12 12 3 -3 0 -11 -7 -18z m-958 -4 c-7 -2 -19 -2 -25 0 -7 3 -2 5
12 5 14 0 19 -2 13 -5z m840 -28 c-3 -9 -8 -14 -10 -11 -3 3 -2 9 2 15 9 16
15 13 8 -4z m-6636 -17 c-3 -8 -6 -5 -6 6 -1 11 2 17 5 13 3 -3 4 -12 1 -19z
m1083 12 c13 -8 13 -10 -2 -10 -9 0 -20 5 -23 10 -8 13 5 13 25 0z m1643 -7
c-7 -2 -21 -2 -30 0 -10 3 -4 5 12 5 17 0 24 -2 18 -5z m-53 -14 c0 -5 -11 -9
-25 -9 -33 0 -33 15 0 16 14 1 25 -2 25 -7z m4253 4 c-24 -2 -62 -2 -85 0 -24
2 -5 4 42 4 47 0 66 -2 43 -4z m-5838 -14 c55 -1 63 -3 35 -8 l-35 -7 50 -8
c28 -5 66 -12 85 -16 33 -8 32 -8 -17 -9 -33 -1 -53 -5 -53 -12 0 -9 18 -10
63 -4 34 4 79 7 99 7 21 0 35 4 32 9 -3 5 12 8 33 8 37 -1 37 -2 8 -8 l-30 -7
28 -7 c15 -4 27 -13 27 -20 0 -9 -21 -11 -76 -9 -74 4 -75 3 -64 -17 17 -33
23 -94 8 -89 -7 3 -17 18 -23 34 -21 63 -51 81 -155 94 -97 12 -211 33 -242
45 -15 6 -18 1 -18 -34 0 -23 -4 -41 -10 -41 -5 0 -10 -16 -10 -37 0 -20 -2
-34 -5 -31 -3 3 -2 45 1 93 l7 88 96 -7 c53 -3 128 -7 166 -7z m1655 -9 c11
-7 -1 -10 -40 -10 -39 0 -51 3 -40 10 8 5 26 10 40 10 14 0 32 -5 40 -10z
m3963 -20 c-3 -11 -9 -20 -15 -20 -5 0 -4 9 2 20 6 11 12 20 14 20 2 0 2 -9
-1 -20z m-5386 -2 c-16 -10 -45 -10 -51 1 -3 5 10 9 29 8 21 -1 30 -4 22 -9z
m1300 -3 c40 -17 118 -21 108 -5 -3 6 1 10 9 10 9 0 16 -3 16 -7 -1 -24 -23
-32 -102 -37 -48 -3 -105 -8 -125 -12 -57 -8 -483 -20 -483 -13 0 10 57 19
117 19 51 0 54 1 42 17 -13 15 -4 16 121 11 74 -4 126 -4 115 -1 -34 9 -37 20
-5 20 16 0 30 -4 30 -9 0 -4 28 -7 63 -7 34 1 54 3 45 6 -22 6 -24 23 -3 23 9
0 32 -7 52 -15z m907 -10 c13 -17 194 -46 298 -48 l68 -2 6 -48 c4 -27 13 -54
20 -61 7 -8 11 -22 8 -33 -4 -15 -21 -22 -81 -32 -42 -7 -90 -19 -107 -26 -17
-7 -61 -25 -97 -40 -37 -14 -76 -36 -87 -48 -43 -46 -66 -140 -43 -176 7 -11
26 -13 88 -8 52 5 73 4 63 -3 -8 -5 -47 -10 -86 -10 l-71 0 -11 39 c-7 21 -12
96 -12 167 0 71 -7 174 -15 229 -8 55 -15 103 -15 108 0 13 63 7 74 -8z m2453
-37 c-3 -7 -5 -2 -5 12 0 14 2 19 5 13 2 -7 2 -19 0 -25z m40 10 c-3 -8 -6 -5
-6 6 -1 11 2 17 5 13 3 -3 4 -12 1 -19z m448 12 c3 -5 1 -10 -4 -10 -6 0 -11
5 -11 10 0 6 2 10 4 10 3 0 8 -4 11 -10z m55 -11 c0 -4 -9 -11 -20 -14 -11 -3
-20 -11 -20 -17 0 -7 4 -7 13 -1 6 6 20 9 29 8 11 -2 15 2 11 11 -4 10 3 14
26 14 29 0 37 -10 32 -42 0 -4 -2 -32 -3 -62 -1 -30 -6 -52 -10 -50 -5 3 -6
22 -3 42 l5 37 -12 -32 c-21 -51 -28 -49 -21 5 5 45 4 50 -17 57 -26 8 -42 -9
-37 -40 1 -11 -5 -26 -13 -33 -8 -8 -9 -11 -2 -7 9 5 11 -1 7 -22 -3 -16 -2
-21 2 -13 9 18 43 26 43 10 0 -5 -7 -10 -16 -10 -10 0 -14 -6 -10 -15 4 -11
-2 -15 -24 -15 l-30 0 4 88 c3 64 7 87 17 87 8 1 13 6 12 12 -2 7 6 11 17 10
11 -1 20 -4 20 -8z m-1463 -81 c-2 -13 -4 -3 -4 22 0 25 2 35 4 23 2 -13 2
-33 0 -45z m1663 35 c0 -13 -3 -13 -15 -3 -8 7 -12 16 -9 21 8 13 24 1 24 -18z
m-3980 -53 c0 -38 -4 -70 -9 -70 -5 0 -8 15 -7 33 2 17 4 49 5 70 2 65 11 40
11 -33z m1244 -15 c-6 -79 -6 -85 12 -86 10 0 14 -3 8 -5 -7 -3 -25 1 -42 8
l-30 13 26 78 c14 42 28 77 29 77 2 0 0 -38 -3 -85z m857 6 l22 -31 -17 -142
c-9 -79 -14 -152 -10 -163 5 -15 2 -14 -12 5 -10 14 -25 30 -34 37 -11 9 -11
12 -2 13 7 0 10 5 7 10 -3 6 -1 10 5 10 7 0 10 -7 6 -15 -3 -8 -1 -15 4 -15 6
0 10 4 10 9 0 5 3 17 7 27 5 13 3 15 -7 9 -8 -5 -11 -4 -7 2 3 5 1 27 -5 49
-6 21 -11 42 -10 46 1 4 2 58 3 120 1 67 5 102 9 87 4 -15 18 -41 31 -58z
m1004 69 c3 -6 -1 -7 -9 -4 -18 7 -21 14 -7 14 6 0 13 -4 16 -10z m-55 -10
c-20 -13 -40 -13 -40 0 0 6 12 10 28 10 21 0 24 -2 12 -10z m-5377 -58 c10
-24 17 -70 17 -105 l-1 -62 -23 65 c-13 36 -31 82 -40 104 -20 47 -20 44 2 49
22 5 26 1 45 -51z m5477 48 c13 -8 13 -10 -2 -10 -9 0 -20 5 -23 10 -8 13 5
13 25 0z m296 -36 c-11 -30 -15 -33 -15 -16 -1 24 17 67 25 59 2 -2 -2 -21
-10 -43z m-4769 4 c-3 -7 -5 -2 -5 12 0 14 2 19 5 13 2 -7 2 -19 0 -25z m958
-248 c0 -136 -1 -247 -3 -245 -3 3 -19 107 -27 184 -2 19 -9 39 -14 44 -6 6
-11 36 -11 67 0 45 -5 60 -25 82 -33 36 -36 98 -4 98 12 0 17 4 13 11 -4 8 0
9 15 4 17 -5 21 -2 21 16 0 22 1 22 18 6 15 -16 17 -43 17 -267z m6106 263
c-5 -10 -17 -27 -26 -38 -16 -19 -16 -19 -4 5 13 27 29 50 36 50 2 0 -1 -8 -6
-17z m-6012 -115 c-43 -142 -62 -189 -71 -175 -4 6 -4 14 0 17 4 3 19 46 34
95 14 50 31 106 38 125 7 19 15 42 18 50 3 10 6 11 9 3 2 -6 -10 -58 -28 -115z
m3311 118 c0 -2 -7 -6 -15 -10 -8 -3 -15 -1 -15 4 0 6 7 10 15 10 8 0 15 -2
15 -4z m750 -6 c0 -5 -4 -10 -10 -10 -5 0 -10 5 -10 10 0 6 5 10 10 10 6 0 10
-4 10 -10z m-3888 -65 c-3 -30 -9 -45 -18 -45 -17 0 -17 2 -5 32 5 13 12 31
15 41 9 28 11 20 8 -28z m731 -45 c-4 -115 -21 -386 -24 -399 -5 -18 71 -34
122 -26 35 6 37 5 41 -24 3 -18 0 -31 -6 -31 -8 0 -8 -3 0 -8 6 -4 11 -14 12
-22 0 -8 3 -35 5 -59 3 -25 2 -40 -1 -35 -9 12 -35 12 -44 -1 -4 -5 -8 2 -8
17 0 15 -5 30 -11 34 -8 4 -9 -1 -4 -16 6 -20 5 -21 -14 -11 -12 7 -21 14 -21
17 0 3 5 2 10 -1 6 -3 10 -1 10 4 0 6 -7 11 -16 11 -13 0 -15 -7 -10 -32 10
-50 -2 -28 -61 109 -30 70 -68 156 -84 191 -30 63 -30 82 -3 82 12 0 19 -19
15 -42 0 -5 3 -8 8 -8 5 0 15 -22 22 -50 7 -27 16 -50 19 -50 4 0 7 62 6 138
-1 80 5 171 14 220 15 88 27 84 23 -8z m2672 80 c17 -7 14 -9 -13 -9 -18 -1
-31 -5 -27 -10 3 -5 -5 -12 -17 -14 -17 -3 -14 -5 10 -6 17 0 32 4 32 9 0 6 4
10 10 10 5 0 7 -7 4 -15 -4 -9 -19 -15 -36 -15 -18 0 -37 -8 -44 -17 -12 -16
-13 -14 -8 17 3 19 7 41 10 48 4 14 49 15 79 2z m-5228 -37 c-3 -10 -5 -4 -5
12 0 17 2 24 5 18 2 -7 2 -21 0 -30z m1230 0 c-3 -10 -5 -4 -5 12 0 17 2 24 5
18 2 -7 2 -21 0 -30z m128 -94 c3 -100 3 -106 -5 -49 -5 36 -10 82 -11 103 -1
20 -5 40 -10 42 -4 3 -5 13 -2 21 13 36 24 -10 28 -117z m2892 79 c-2 -13 -4
-5 -4 17 -1 22 1 32 4 23 2 -10 2 -28 0 -40z m2204 21 c-9 -22 -10 -22 -10 -3
-1 11 2 24 6 27 12 12 14 0 4 -24z m-5827 -44 l6 -50 -15 55 c-17 67 -17 66
-6 55 5 -6 12 -32 15 -60z m2876 61 c0 -2 -7 -6 -15 -10 -8 -3 -15 -1 -15 4 0
6 7 10 15 10 8 0 15 -2 15 -4z m-1799 -95 c-23 -45 -43 -81 -45 -81 -3 0 0 17
6 37 10 36 69 136 76 129 2 -2 -15 -40 -37 -85z m4449 38 c0 -11 -4 -17 -10
-14 -5 3 -7 0 -4 -8 3 -8 1 -18 -5 -22 -12 -7 -15 23 -5 49 9 23 24 20 24 -5z
m-944 -7 c1 -7 0 -8 -3 -2 -2 5 -9 8 -14 4 -5 -3 -9 0 -9 6 0 15 23 7 26 -8z
m549 8 c3 -5 -1 -10 -10 -10 -9 0 -13 5 -10 10 3 6 8 10 10 10 2 0 7 -4 10
-10z m-3842 -52 c-8 -72 -15 -75 -12 -5 1 31 6 57 10 57 5 0 5 -24 2 -52z
m2346 -21 c6 -32 20 -71 31 -87 21 -29 110 -80 141 -80 13 0 18 -13 23 -53 4
-29 4 -61 0 -70 -3 -9 -1 -17 4 -17 6 0 13 10 15 23 4 19 4 18 6 -5 1 -23 6
-28 27 -28 15 0 23 -4 18 -11 -3 -6 -17 -8 -30 -5 -16 4 -24 2 -25 -6 0 -10
-2 -9 -6 1 -5 11 -7 11 -14 0 -6 -10 -9 -5 -10 16 -1 30 -1 30 -10 5 -7 -20
-8 -16 -4 16 l5 42 -91 1 -91 2 4 -28 c2 -23 -1 -29 -22 -31 -40 -6 -65 -38
-105 -133 -20 -50 -38 -89 -40 -87 -2 2 5 35 15 73 11 39 19 89 19 113 1 40 2
42 17 28 8 -9 22 -16 30 -16 22 0 16 36 -8 52 -21 14 -23 22 -20 79 4 101 4
112 -4 149 -7 34 -8 34 -15 10 l-7 -25 -1 28 c-1 15 -6 27 -12 27 -25 0 6 20
54 34 28 8 61 22 72 30 11 8 21 14 22 13 0 -1 6 -28 12 -60z m746 43 c18 -8
17 -9 -7 -9 -16 -1 -28 4 -28 9 0 12 8 12 35 0z m-1755 -15 c17 -9 30 -17 30
-19 0 -7 -45 7 -65 21 -27 18 -1 17 35 -2z m1925 5 c3 -5 -1 -10 -9 -10 -9 0
-16 5 -16 10 0 6 4 10 9 10 6 0 13 -4 16 -10z m-5214 -10 c25 0 29 -4 29 -29
0 -21 -6 -30 -22 -35 -38 -10 -46 -7 -53 17 -18 61 -18 60 0 54 9 -4 30 -7 46
-7z m1266 -42 c-3 -7 -5 -2 -5 12 0 14 2 19 5 13 2 -7 2 -19 0 -25z m1953 23
l25 -7 -34 -18 c-37 -20 -107 -17 -157 6 -23 11 -24 13 -7 19 23 10 140 9 173
0z m887 -28 c-3 -10 -5 -4 -5 12 0 17 2 24 5 18 2 -7 2 -21 0 -30z m2443 33
c0 -3 -4 -8 -10 -11 -5 -3 -10 -1 -10 4 0 6 5 11 10 11 6 0 10 -2 10 -4z
m-1357 -20 c71 -8 131 -17 134 -20 4 -3 -1 -6 -10 -6 -9 0 -17 -4 -17 -10 0
-13 13 -13 85 1 55 10 145 5 445 -26 l45 -5 -32 15 c-18 8 -33 17 -33 20 0 9
73 -6 85 -16 5 -5 16 -9 25 -9 13 0 13 2 0 11 -24 17 69 3 136 -20 31 -11 83
-23 115 -27 118 -13 46 -15 -197 -4 -213 9 -471 26 -658 45 -55 5 -55 4 1 -27
162 -90 200 -126 213 -198 7 -37 6 -40 -16 -40 -13 0 -24 5 -24 11 0 5 5 7 10
4 6 -3 10 3 10 14 0 15 -5 19 -17 15 -15 -5 -15 -4 -3 4 12 9 12 14 0 37 -8
14 -16 21 -20 15 -4 -6 -14 -8 -23 -4 -20 7 -21 1 -7 -27 8 -15 7 -19 -5 -19
-8 0 -15 5 -15 11 0 6 -9 8 -20 4 -11 -4 -19 -3 -18 2 2 4 0 9 -4 11 -4 2 -23
19 -41 38 -19 18 -45 34 -56 34 -23 0 -41 33 -38 68 1 14 7 18 22 15 11 -2 3
5 -17 17 -21 11 -59 23 -85 26 -67 9 -153 34 -153 45 0 12 29 11 183 -5z
m-3823 -41 c0 -19 -2 -35 -4 -35 -2 0 -6 16 -8 35 -2 19 0 35 4 35 4 0 8 -16
8 -35z m2048 4 c20 -7 29 -15 25 -25 -3 -8 -9 -14 -15 -14 -5 0 -6 5 -3 10 3
6 -5 14 -19 20 -14 5 -26 12 -26 15 0 7 3 7 38 -6z m1632 4 c-8 -4 -35 -12
-60 -20 l-45 -13 45 4 45 4 -38 -11 c-29 -8 -36 -15 -32 -28 4 -12 -1 -19 -17
-24 -13 -3 -41 -11 -63 -16 -22 -6 -51 -15 -64 -20 -18 -7 -28 -6 -43 7 -22
21 -29 15 -56 -48 l-20 -47 21 -4 c18 -3 17 -5 -5 -6 -35 -1 -36 17 -4 79 30
60 92 97 209 126 84 21 165 31 127 17z m2153 -3 c45 0 51 -13 32 -64 -12 -31
-23 -46 -34 -45 -42 6 -77 -12 -94 -49 -22 -45 -16 -24 20 85 19 57 32 81 41
78 8 -3 23 -5 35 -5z m-7197 -27 c16 -10 43 -16 74 -14 27 1 82 -5 122 -14 40
-8 101 -18 136 -21 34 -4 65 -10 68 -15 9 -14 -54 -39 -116 -46 -33 -3 -60
-10 -60 -16 0 -5 -13 -7 -29 -5 -17 3 -27 0 -24 -5 3 -5 21 -7 39 -4 19 3 36
1 40 -4 3 -5 22 -7 42 -4 20 2 1 -6 -43 -19 -44 -13 -89 -27 -99 -32 -13 -5
-17 -4 -13 3 4 6 -6 16 -24 22 -52 18 -106 68 -122 114 -8 23 -18 50 -22 60
-9 21 -1 22 31 0z m1269 -14 c143 -41 173 -65 218 -179 14 -35 14 -36 -10 -38
-29 -2 -244 -55 -333 -82 -146 -44 -459 -117 -404 -94 8 3 8 20 2 57 -12 63
-14 66 -33 41 -13 -18 -14 -16 -14 21 -1 50 27 112 65 146 48 44 176 126 224
142 72 26 160 21 285 -14z m2120 13 c-3 -3 -11 0 -18 7 -9 10 -8 11 6 5 10 -3
15 -9 12 -12z m-1458 -53 c-6 -66 -21 -91 -73 -115 -29 -14 -35 -14 -70 5 -30
16 -34 22 -20 27 9 4 19 4 23 1 5 -6 33 17 33 27 0 3 -12 6 -27 6 -16 0 -58
10 -95 22 -53 17 -65 24 -57 34 6 8 14 13 17 12 4 0 9 0 12 1 3 1 51 2 108 3
90 0 105 2 115 19 6 10 18 19 26 19 11 0 13 -13 8 -61z m2192 2 c1 -35 -5 -22
-12 24 -5 28 -4 34 3 20 5 -11 9 -31 9 -44z m1049 33 c13 -2 31 1 40 8 15 11
15 11 5 -3 -7 -9 -9 -19 -5 -23 15 -15 -33 -36 -82 -36 -75 1 -161 50 -109 63
20 5 116 0 151 -9z m-2879 -73 c1 13 12 16 57 15 46 -1 60 -6 75 -25 11 -13
19 -27 19 -31 0 -5 -36 -6 -80 -3 -57 4 -80 3 -80 -6 0 -7 19 -11 48 -11 102
0 121 -8 148 -61 13 -27 24 -54 24 -61 1 -7 9 -31 20 -53 25 -53 25 -56 -6
-40 -15 7 -49 16 -75 20 -30 4 -49 12 -49 20 0 7 -7 15 -15 19 -8 3 -15 12
-15 21 0 29 -17 15 -18 -16 -1 -24 2 -28 13 -19 8 7 15 7 19 1 11 -17 -15 -24
-40 -10 -26 13 -32 35 -11 42 10 4 10 7 0 18 -15 16 -17 59 -3 59 6 0 10 7 10
16 0 9 -6 14 -12 12 -8 -3 -16 -33 -21 -72 -7 -71 2 -96 37 -96 18 0 21 -11 6
-26 -14 -14 -1 -51 21 -57 39 -10 9 -37 -41 -37 -13 0 -13 1 0 10 13 8 13 10
-2 10 -9 0 -18 -5 -20 -11 -3 -8 -17 -10 -42 -5 -36 7 -45 25 -16 34 7 3 10 0
6 -7 -5 -7 1 -11 13 -11 12 0 21 7 21 16 0 11 6 13 19 9 11 -3 22 -1 26 5 3 6
-3 10 -15 10 -13 0 -20 5 -17 13 2 6 10 11 16 10 6 -2 11 4 11 13 0 8 -4 12
-10 9 -5 -3 -10 1 -10 9 0 9 -4 16 -9 16 -4 0 -11 57 -15 128 -4 70 -9 143
-11 162 -4 31 -3 29 9 -10 8 -25 14 -38 15 -29z m1314 32 c-7 -2 -19 -2 -25 0
-7 3 -2 5 12 5 14 0 19 -2 13 -5z m-293 -11 c0 -5 7 -9 15 -9 8 0 15 4 15 9 0
4 5 8 10 8 6 0 10 -7 10 -15 0 -16 39 -36 53 -28 11 7 39 -25 32 -37 -3 -5
-14 -10 -24 -10 -10 0 -22 -10 -26 -22 l-8 -23 -4 23 c-4 22 -25 28 -57 16
-21 -8 -20 -20 5 -61 20 -32 22 -33 35 -16 9 11 7 3 -3 -18 -18 -38 -23 -41
-27 -17 -1 7 -10 30 -19 52 -9 21 -17 44 -17 51 0 19 -15 22 -89 14 -36 -4
-124 -9 -196 -12 -108 -5 -118 -4 -60 4 63 9 122 12 268 17 41 2 50 5 55 24 5
21 6 21 13 2 6 -15 8 -15 8 -3 1 9 -6 22 -14 29 -8 7 -12 16 -9 21 7 11 34 12
34 1z m817 -54 c-3 -8 -6 -5 -6 6 -1 11 2 17 5 13 3 -3 4 -12 1 -19z m-909 -5
c-15 -2 -42 -2 -60 0 -18 2 -6 4 27 4 33 0 48 -2 33 -4z m-4049 -19 c8 -7 -84
-2 -114 6 -18 5 -2 6 40 3 39 -3 72 -7 74 -9z m4311 6 c0 -5 -2 -10 -4 -10 -3
0 -8 5 -11 10 -3 6 -1 10 4 10 6 0 11 -4 11 -10z m-4186 -12 c-3 -4 -22 -8
-42 -8 -20 0 -32 4 -25 8 15 10 73 10 67 0z m6035 -44 c10 -9 -35 -3 -49 6
-11 8 -7 9 15 4 17 -4 32 -8 34 -10z m-384 -4 c7 -12 -47 -12 -120 0 -47 7
-46 7 32 9 45 0 85 -3 88 -9z m270 -3 c43 0 54 -2 40 -8 -14 -6 -6 -8 25 -4
25 2 61 0 80 -5 23 -6 -33 -7 -160 -3 -107 3 -204 10 -215 15 -13 6 -4 7 30 3
28 -2 57 0 65 5 9 6 28 7 45 3 17 -4 57 -7 90 -6z m-12 6 c-7 -2 -19 -2 -25 0
-7 3 -2 5 12 5 14 0 19 -2 13 -5z m252 -33 c-3 -5 -18 -9 -33 -9 l-27 1 30 8
c17 4 31 8 33 9 2 0 0 -3 -3 -9z m-1909 -50 c-7 -3 -12 -13 -10 -22 1 -10 -2
-18 -7 -18 -5 0 -9 16 -9 35 0 33 1 34 20 23 15 -10 16 -14 6 -18z m-2039 -12
c-3 -7 -5 -2 -5 12 0 14 2 19 5 13 2 -7 2 -19 0 -25z m-1860 -25 c-3 -10 -5
-4 -5 12 0 17 2 24 5 18 2 -7 2 -21 0 -30z m4836 10 c-6 -16 -5 -17 12 -3 20
16 20 19 -1 -34 -5 -14 -4 -17 4 -12 7 4 12 1 13 -6 0 -7 5 -4 10 7 8 18 9 18
6 1 -1 -10 -16 -26 -34 -36 -30 -16 -31 -18 -15 -33 14 -14 14 -17 1 -17 -8 0
-23 -10 -33 -22 -16 -18 -17 -25 -6 -42 10 -17 10 -19 -1 -8 -20 18 -35 15
-47 -13 -6 -14 -8 -24 -4 -22 4 1 7 -2 7 -8 0 -5 -3 -9 -7 -7 -5 1 -8 -5 -8
-13 0 -16 -22 -18 -75 -6 l-30 7 48 19 c37 15 52 28 63 54 9 21 11 38 5 44
-10 10 16 47 33 47 10 0 35 31 36 44 0 5 -3 7 -6 4 -9 -10 -41 26 -36 40 3 7
13 10 26 7 11 -2 15 -2 9 1 -22 10 -14 24 12 24 19 0 23 -4 18 -17z m2524 8
c103 -15 242 -119 306 -230 28 -49 32 -65 32 -126 -1 -39 -7 -79 -14 -90 -9
-15 -11 -16 -7 -3 3 11 -2 21 -13 27 -15 9 -20 4 -31 -32 -8 -23 -16 -45 -19
-49 -3 -3 -76 15 -161 41 -85 26 -218 67 -295 91 -77 23 -168 52 -202 64 l-62
21 24 68 c27 78 60 126 107 155 33 21 187 62 263 70 6 1 38 -2 72 -7z m-3657
-20 c-13 -26 -36 -40 -27 -18 8 22 -2 22 -19 0 -10 -13 -13 -14 -14 -4 0 17
29 40 53 41 14 0 16 -4 7 -19z m953 -1 c-5 -21 -53 -30 -53 -10 0 6 9 10 20
10 11 0 20 5 20 10 0 6 4 10 9 10 5 0 7 -9 4 -20z m-1026 -12 c-3 -8 -6 -5 -6
6 -1 11 2 17 5 13 3 -3 4 -12 1 -19z m959 -5 c-10 -10 -19 5 -10 18 6 11 8 11
12 0 2 -7 1 -15 -2 -18z m-861 -3 c-3 -5 -1 -11 5 -15 16 -10 32 -45 21 -45
-5 0 -12 9 -16 20 -6 18 -8 19 -41 5 -19 -8 -41 -12 -49 -9 -8 4 -15 1 -15 -5
0 -6 6 -11 13 -12 6 0 3 -4 -8 -8 -26 -11 -27 -9 -20 22 7 25 55 46 55 23 0
-6 10 1 21 17 11 15 25 25 30 21 5 -3 7 -9 4 -14z m4096 -33 c-11 -25 -16 -49
-13 -53 4 -4 1 -4 -5 0 -10 5 -9 15 3 44 9 20 18 43 21 50 3 7 7 11 9 9 3 -2
-4 -25 -15 -50z m-1047 -26 c-8 -29 -17 -51 -19 -49 -2 2 3 28 11 57 9 29 18
51 20 48 2 -2 -3 -27 -12 -56z m-4134 29 c0 -5 -5 -10 -11 -10 -5 0 -7 5 -4
10 3 6 8 10 11 10 2 0 4 -4 4 -10z m1638 -2 c33 -9 42 -25 18 -34 -8 -3 -20
-19 -26 -35 -7 -16 -15 -28 -17 -25 -3 2 1 14 7 26 6 12 9 24 6 27 -3 3 -15
-14 -26 -38 -19 -42 -20 -43 -20 -14 l-1 30 -14 -25 c-15 -26 -18 -22 -15 20
2 24 1 24 -13 6 -14 -19 -15 -19 -28 2 -9 14 -24 22 -40 22 -31 0 -60 27 -38
34 49 17 152 18 207 4z m342 -29 c-20 -27 -53 -37 -50 -14 1 5 -7 12 -17 16
-15 6 -14 8 7 9 23 1 23 2 5 10 -15 6 -8 9 28 9 l48 1 -21 -31z m112 14 c2
-10 -3 -24 -12 -31 -8 -8 -10 -11 -4 -8 7 3 11 -7 12 -25 1 -26 -2 -30 -19
-26 -10 3 -19 1 -19 -4 0 -5 6 -9 13 -9 19 -1 -36 -29 -57 -30 -13 0 -17 -5
-13 -19 6 -24 -41 -40 -55 -19 -7 9 -8 8 -4 -4 3 -10 4 -18 3 -18 -1 0 -17 -4
-35 -9 -38 -11 -43 -5 -6 9 22 9 24 13 14 25 -8 9 -21 13 -36 9 -13 -4 -31 -1
-39 6 -8 6 -19 9 -25 5 -5 -3 -10 -1 -10 4 0 6 10 12 23 12 17 1 18 2 4 6 -9
2 -14 9 -11 14 3 6 -3 5 -15 -3 -12 -7 -21 -16 -21 -20 0 -5 -10 -8 -22 -8
-19 0 -20 2 -8 10 13 8 12 10 -2 10 -10 0 -18 -6 -18 -14 0 -9 -7 -12 -20 -9
-11 3 -20 9 -20 14 0 5 -7 9 -15 9 -16 0 -17 2 -10 22 4 9 26 13 79 11 41 0
83 -3 93 -6 10 -3 61 -8 113 -11 84 -5 92 -5 65 7 -19 9 -25 16 -17 21 7 4 12
16 12 26 0 11 12 27 28 35 15 9 19 14 10 11 -10 -3 -18 -2 -18 3 0 26 57 30
62 4z m1148 1 c0 -2 -9 -4 -21 -4 -11 0 -18 4 -14 10 5 8 35 3 35 -6z m-2155
-23 c-6 -5 -25 10 -25 20 0 5 6 4 14 -3 8 -7 12 -15 11 -17z m-3753 -2 c39
-13 78 -36 101 -58 37 -35 117 -181 117 -213 0 -17 -82 -92 -219 -201 -47 -37
-93 -73 -101 -80 -8 -7 -27 -20 -41 -29 l-26 -17 -23 49 c-12 26 -20 53 -16
58 7 12 -31 42 -53 42 -11 0 -12 -10 -8 -47 4 -30 3 -42 -2 -33 -16 26 -41
136 -41 176 0 80 59 271 99 323 16 21 88 49 133 50 10 1 46 -9 80 -20z m3902
-5 c3 -8 2 -12 -4 -9 -6 3 -10 10 -10 16 0 14 7 11 14 -7z m32 -3 c-7 -11 33
-30 64 -31 104 -3 100 -2 100 -28 0 -21 -4 -24 -25 -20 -19 4 -31 -2 -49 -23
-13 -15 -26 -25 -30 -22 -3 3 -16 -1 -30 -10 -20 -14 -26 -14 -42 -2 -18 14
-17 14 8 15 15 0 30 5 33 11 4 6 13 8 21 5 18 -7 18 0 -3 35 -10 17 -31 34
-48 38 -16 5 -25 10 -18 10 6 1 10 10 8 21 -2 12 0 18 6 15 5 -4 7 -10 5 -14z
m-139 -13 c-3 -8 -6 -5 -6 6 -1 11 2 17 5 13 3 -3 4 -12 1 -19z m1123 12 c13
-9 13 -11 0 -20 -8 -5 -21 -10 -29 -10 -10 0 -11 -3 -2 -14 13 -16 -2 -32 -19
-21 -5 3 -10 1 -10 -5 0 -7 -5 -6 -14 2 -14 13 -10 42 4 33 5 -3 14 1 22 8 7
8 19 12 26 9 6 -2 12 1 12 7 0 5 -12 12 -27 14 -27 4 -27 4 -3 5 14 1 32 -3
40 -8z m-1220 -10 c-20 -13 -33 -13 -25 0 3 6 14 10 23 10 15 0 15 -2 2 -10z
m2220 0 c0 -5 -5 -10 -11 -10 -5 0 -7 5 -4 10 3 6 8 10 11 10 2 0 4 -4 4 -10z
m-3081 -26 c10 -9 -45 -3 -59 6 -11 7 -5 8 20 4 19 -4 37 -8 39 -10z m4988 -6
c-3 -8 -6 -5 -6 6 -1 11 2 17 5 13 3 -3 4 -12 1 -19z m-4932 -8 c13 -5 14 -9
5 -9 -8 0 -24 4 -35 9 -13 5 -14 9 -5 9 8 0 24 -4 35 -9z m2980 0 c3 -5 1 -10
-4 -10 -6 0 -11 5 -11 10 0 6 2 10 4 10 3 0 8 -4 11 -10z m35 -1 c0 -5 5 -7
11 -3 7 4 10 1 7 -7 -3 -8 -11 -13 -17 -11 -6 1 -11 -2 -11 -8 0 -5 5 -10 11
-10 8 0 8 -5 -1 -15 -7 -8 -22 -14 -34 -14 -17 1 -17 2 -3 6 15 4 22 27 18 61
-1 6 3 12 9 12 5 0 10 -5 10 -11z m-3280 -23 c0 -13 -6 -26 -12 -29 -9 -3 -13
5 -13 24 0 17 5 29 13 29 6 0 12 -11 12 -24z m132 6 c5 -19 24 -18 258 2 36 3
110 8 165 10 l100 5 -110 -29 c-60 -16 -122 -30 -136 -30 -15 0 -37 -9 -50
-20 -28 -23 -19 -26 19 -6 22 11 38 12 75 4 50 -10 61 -25 25 -32 -129 -27
-154 -28 -219 -13 -36 9 -75 14 -86 11 -20 -6 -37 17 -32 42 3 21 -2 28 -11
14 -8 -12 -10 -12 -10 5 0 17 -2 17 -10 5 -6 -10 -10 -11 -10 -2 0 6 -9 12
-20 12 -11 0 -20 4 -20 10 0 6 9 6 25 0 25 -10 42 1 30 20 -3 6 -2 10 3 10 5
0 12 -8 14 -18z m1549 -19 c-10 -17 -10 -16 -11 3 0 23 13 41 18 25 2 -6 -1
-18 -7 -28z m1673 1 c-11 -15 -26 -37 -35 -50 -9 -13 -19 -21 -24 -16 -4 4 -5
1 -1 -6 11 -18 -14 -48 -25 -30 -7 10 -9 9 -9 -4 0 -10 5 -18 11 -18 6 0 9 -7
6 -14 -6 -16 26 -32 43 -21 6 3 7 0 4 -9 -3 -9 -11 -13 -17 -9 -6 4 -8 -2 -5
-15 4 -12 2 -20 -2 -17 -5 3 -11 1 -15 -5 -3 -5 -2 -10 4 -10 6 0 -1 -11 -15
-25 -25 -26 -49 -32 -58 -16 -3 5 8 14 24 21 17 7 30 20 29 29 0 11 -2 12 -6
3 -4 -10 -8 -9 -18 5 -10 13 -10 20 -2 25 8 5 7 8 -4 8 -10 0 -20 -11 -23 -25
-5 -20 -12 -24 -40 -23 -18 1 -37 -1 -42 -4 -9 -6 -231 15 -298 27 -20 4 -36
10 -36 14 0 3 27 15 59 25 l60 19 95 -27 c124 -34 135 -34 142 4 4 16 10 27
15 24 5 -3 7 -10 4 -15 -8 -12 46 12 64 29 7 7 11 25 9 42 -3 17 0 30 5 30 6
0 19 7 29 17 14 13 18 13 18 2 0 -26 20 14 20 41 0 18 3 21 9 12 7 -12 11 -11
22 1 22 24 24 10 3 -19z m-3305 -7 c0 -12 -3 -16 -6 -9 -2 6 -11 12 -19 12
-17 0 -19 17 -1 23 18 7 27 -2 26 -26z m-609 13 c0 -5 -4 -10 -10 -10 -5 0
-10 5 -10 10 0 6 5 10 10 10 6 0 10 -4 10 -10z m2857 -22 c-3 -7 -5 -2 -5 12
0 14 2 19 5 13 2 -7 2 -19 0 -25z m2885 -4 c-10 -114 -17 -139 -37 -139 -17 0
-20 6 -17 40 2 21 7 46 12 55 5 9 7 -1 3 -27 -4 -29 -2 -43 6 -43 14 0 15 76
1 85 -6 4 -8 11 -4 16 3 5 10 7 15 4 5 -4 9 -2 9 4 0 5 -5 11 -12 13 -6 2 -8
10 -4 17 13 21 31 5 28 -25z m-5814 9 c-2 -11 -14 -19 -32 -21 -17 -2 -26 0
-22 7 4 5 13 8 21 4 9 -3 15 1 15 11 0 9 5 16 11 16 6 0 9 -8 7 -17z m2252 7
c0 -5 -8 -10 -17 -10 -15 0 -16 2 -3 10 19 12 20 12 20 0z m2270 -11 c40 -19
121 -32 189 -31 14 0 31 8 39 19 14 17 14 17 7 -2 -4 -11 -15 -39 -23 -62 -8
-24 -21 -43 -28 -43 -8 0 -14 -4 -14 -8 0 -14 -58 -31 -65 -18 -3 8 -7 8 -11
-1 -8 -18 -25 -16 -54 7 -24 19 -24 19 -2 13 17 -4 22 -1 22 13 1 18 1 18 11
2 11 -19 29 -24 29 -8 0 5 -16 20 -35 33 -19 13 -32 27 -28 30 3 4 -3 7 -14 7
-11 0 -37 16 -59 35 -45 39 -31 45 36 14z m-5433 -36 c-3 -10 -5 -2 -5 17 0
19 2 27 5 18 2 -10 2 -26 0 -35z m2683 37 c0 -13 -42 -23 -71 -17 -16 3 -12 5
14 6 20 0 37 6 37 11 0 6 5 10 10 10 6 0 10 -4 10 -10z m1135 1 c3 -5 1 -12
-5 -16 -5 -3 -10 1 -10 9 0 18 6 21 15 7z m-2314 -38 c0 -16 1 -16 8 1 9 24
19 10 19 -26 0 -18 -6 -28 -15 -28 -8 0 -12 -4 -9 -8 7 -12 -98 -47 -214 -72
-52 -12 -96 -23 -98 -24 -1 -2 30 -12 70 -22 40 -10 66 -20 58 -21 -9 -2 -61
7 -115 21 -79 19 -99 27 -97 40 2 12 -6 16 -35 16 -21 1 -51 7 -68 14 l-30 13
40 11 c176 48 404 97 468 101 10 1 17 -6 18 -16z m93 -4 c-8 -14 -34 -10 -34
5 0 9 7 12 20 9 11 -3 17 -9 14 -14z m36 6 c-6 -8 -9 -19 -5 -25 3 -5 2 -10
-3 -10 -19 0 -21 14 -5 32 19 21 31 25 13 3z m1148 3 c-2 -6 -11 -13 -19 -16
-11 -3 -11 -1 1 8 12 9 7 10 -25 6 -27 -4 -35 -2 -25 4 22 14 73 13 68 -2z
m1257 -13 c77 -14 170 -30 207 -36 74 -13 79 -24 18 -34 -22 -4 -43 -11 -46
-16 -3 -6 4 -8 18 -5 94 20 130 25 178 29 52 4 53 4 25 -8 -73 -31 -182 -74
-202 -80 -29 -8 -202 24 -228 41 -17 12 -17 14 -2 14 9 0 17 5 17 10 0 6 -12
10 -27 10 -14 0 -55 5 -90 11 -50 9 -63 15 -63 29 0 10 -5 20 -11 22 -5 2 -7
11 -4 21 9 23 40 22 210 -8z m-1690 4 c12 -19 -5 -23 -22 -6 -16 16 -16 17 -1
17 9 0 20 -5 23 -11z m261 2 c-6 -9 -46 -22 -46 -15 0 3 10 9 23 14 29 11 29
11 23 1z m1144 5 c0 -2 -7 -7 -16 -10 -8 -3 -12 -2 -9 4 6 10 25 14 25 6z
m-3885 -16 c-3 -5 -16 -10 -28 -9 -20 1 -20 2 3 9 14 4 26 8 28 9 2 1 0 -3 -3
-9z m102 4 c-3 -3 -12 -4 -19 -1 -8 3 -5 6 6 6 11 1 17 -2 13 -5z m2680 0 c-3
-3 -12 -4 -19 -1 -8 3 -5 6 6 6 11 1 17 -2 13 -5z m193 -26 c0 -6 -6 -5 -15 2
-8 7 -15 14 -15 16 0 2 7 1 15 -2 8 -4 15 -11 15 -16z m60 18 c0 -2 -7 -6 -15
-10 -8 -3 -15 -1 -15 4 0 6 7 10 15 10 8 0 15 -2 15 -4z m-1333 -12 c-3 -3
-12 -4 -19 -1 -8 3 -5 6 6 6 11 1 17 -2 13 -5z m1480 0 c19 -5 22 -11 16 -33
-3 -14 -13 -31 -22 -38 -19 -14 -35 -17 -27 -4 3 4 -6 13 -19 19 -14 7 -25 20
-25 31 0 28 30 37 77 25z m223 -26 c0 -4 6 -8 14 -8 8 0 17 -8 21 -17 6 -16 8
-16 16 4 9 25 27 23 66 -7 26 -20 19 -34 -8 -19 -14 7 -19 6 -19 -2 0 -8 -5
-7 -17 2 -15 11 -15 10 1 -8 10 -13 22 -21 25 -18 4 2 7 -5 7 -16 0 -10 -6
-19 -14 -19 -7 0 -10 -4 -7 -10 3 -5 1 -10 -4 -10 -6 0 -11 11 -11 24 0 22 -4
24 -34 20 -33 -4 -34 -3 -30 26 3 17 1 30 -5 30 -5 0 -13 9 -16 20 -3 11 -11
20 -17 20 -6 0 -6 -6 2 -15 9 -10 9 -15 1 -16 -6 -1 -17 -2 -23 -3 -7 -1 -12
-9 -12 -19 2 -19 -11 -23 -22 -6 -3 6 -1 15 5 19 7 4 13 13 14 21 5 31 17 39
42 27 14 -6 25 -15 25 -20z m-2392 -17 c-7 -9 -14 -18 -15 -20 -2 -2 -3 8 -3
22 0 20 4 25 15 21 13 -5 13 -9 3 -23z m802 25 c0 -3 -4 -8 -10 -11 -5 -3 -10
-1 -10 4 0 6 5 11 10 11 6 0 10 -2 10 -4z m1130 -17 c0 -5 4 -7 10 -4 6 3 7
-1 4 -10 -4 -9 -7 -15 -8 -13 -1 2 -8 11 -15 21 -9 11 -10 17 -2 17 6 0 11 -5
11 -11z m-1838 -25 c-12 -8 -22 -23 -22 -33 0 -15 13 -21 68 -31 108 -21 110
-24 27 -45 -63 -15 -78 -16 -85 -5 -5 8 -15 10 -26 6 -18 -7 -18 -8 -1 -17 9
-6 17 -14 17 -19 0 -13 -37 -13 -45 0 -4 6 -11 8 -16 4 -5 -3 -6 -10 -3 -16 5
-7 -5 -9 -30 -4 -23 4 -36 3 -36 -4 0 -5 11 -10 24 -10 14 0 27 -4 30 -9 7
-11 -45 -1 -61 12 -7 5 -13 19 -13 31 0 17 -2 18 -10 6 -5 -8 -10 -41 -10 -73
l0 -58 -153 3 c-198 3 -208 -3 -282 -172 -16 -36 -32 -69 -37 -74 -14 -16 -9
-86 8 -122 30 -63 38 -53 31 39 -7 82 -6 87 13 87 13 0 18 -5 14 -15 -4 -8 -1
-22 6 -30 10 -12 29 -14 94 -9 77 6 94 3 360 -65 153 -40 283 -74 287 -77 4
-2 26 3 49 12 27 11 59 15 96 12 67 -6 80 -17 49 -41 -15 -11 -26 -13 -30 -7
-4 6 -1 9 6 8 6 -2 13 2 16 9 2 6 -3 10 -11 9 -19 -3 -56 -36 -56 -49 0 -6 3
-8 6 -5 3 4 19 2 35 -2 24 -7 32 -5 48 16 11 14 21 30 23 36 3 8 25 6 74 -6
106 -26 107 -29 28 -71 -38 -20 -60 -33 -49 -29 48 16 77 13 190 -21 66 -19
174 -51 240 -71 66 -20 163 -47 215 -62 l95 -25 91 36 c115 46 185 52 79 7
-38 -17 -76 -28 -83 -25 -7 3 -11 1 -8 -4 11 -17 -77 -44 -136 -42 -33 1 -58
-2 -58 -8 0 -5 -10 -13 -22 -17 -13 -4 -58 -20 -101 -36 -72 -28 -78 -32 -75
-57 3 -23 7 -26 43 -25 36 1 229 81 245 102 3 4 24 16 48 28 l43 21 87 -20
c48 -11 123 -30 167 -43 43 -13 80 -22 82 -20 1 1 -7 26 -18 56 -23 60 -17 70
36 70 17 0 53 3 82 6 l52 7 3 -49 c2 -38 8 -51 24 -59 40 -20 52 -36 59 -78
10 -62 20 -75 34 -49 10 18 8 29 -11 64 -13 24 -27 46 -31 49 -5 3 -2 9 7 12
16 6 15 54 -3 85 -9 15 -11 14 -11 -8 -1 -23 -2 -23 -10 -5 -7 17 -9 16 -10
-10 -2 -30 -2 -30 -10 -5 -8 25 -8 25 -9 -4 -1 -37 -6 -31 -15 17 l-7 38 108
-3 108 -3 62 -124 c34 -68 67 -127 73 -131 7 -4 40 -11 73 -14 66 -8 159 -39
176 -60 14 -16 11 -17 -114 -20 -80 -2 -107 -7 -133 -23 -30 -19 -82 -21 -82
-3 0 10 -77 38 -125 44 -22 3 -161 11 -308 18 -209 9 -272 9 -287 0 -25 -15
-39 -15 -71 2 -36 18 -80 29 -107 27 -13 -2 -28 2 -35 7 -7 5 -48 15 -92 21
-44 6 -143 22 -220 36 -78 14 -155 22 -175 19 -25 -4 -50 0 -82 15 -47 22
-218 75 -298 92 -90 18 -348 112 -455 166 -246 122 -287 150 -344 243 l-22 35
5 -40 c3 -22 5 -42 6 -45 1 -3 2 -12 1 -21 -1 -9 2 -35 8 -58 6 -29 6 -41 -3
-41 -8 0 -8 -2 0 -8 7 -4 13 -18 14 -32 3 -39 1 -43 -14 -31 -9 7 -17 43 -21
93 -7 73 -10 84 -39 113 -25 24 -37 50 -50 106 -10 41 -23 82 -28 93 -6 10
-27 85 -47 165 l-37 147 110 13 c61 7 158 24 216 37 123 29 330 92 347 106 8
6 22 4 42 -6 36 -19 64 -21 59 -4 -5 13 26 35 52 37 9 1 6 -5 -8 -15z m2826 0
c-9 -9 -27 -14 -44 -12 l-29 4 35 11 c49 16 57 15 38 -3z m949 10 c-3 -3 -12
-4 -19 -1 -8 3 -5 6 6 6 11 1 17 -2 13 -5z m-2023 -15 c-2 -4 11 -7 28 -6 18
1 39 -4 46 -10 7 -7 22 -13 31 -13 14 0 20 -11 25 -41 4 -22 4 -44 2 -48 -3
-4 -7 -59 -10 -123 -3 -63 -8 -133 -12 -155 -6 -39 -8 -41 -47 -46 -23 -3 -44
-3 -47 1 -3 4 -45 8 -93 9 -49 0 -91 3 -93 6 -7 7 -6 216 1 297 3 36 5 77 5
93 1 27 2 27 65 27 36 0 65 4 65 8 0 4 9 8 19 8 11 0 18 -3 15 -7z m-1097 -5
c-3 -3 -12 -4 -19 -1 -8 3 -5 6 6 6 11 1 17 -2 13 -5z m-1630 -26 c-3 -8 -6
-5 -6 6 -1 11 2 17 5 13 3 -3 4 -12 1 -19z m1648 3 c-3 -6 -25 -11 -48 -10
l-42 1 45 12 c49 13 55 13 45 -3z m1610 9 c3 -5 1 -10 -4 -10 -6 0 -11 5 -11
10 0 6 2 10 4 10 3 0 8 -4 11 -10z m1348 3 c-7 -2 -19 -2 -25 0 -7 3 -2 5 12
5 14 0 19 -2 13 -5z m54 -9 c-3 -3 -12 -4 -19 -1 -8 3 -5 6 6 6 11 1 17 -2 13
-5z m-1369 -36 c22 5 13 -7 -18 -23 -24 -13 -29 -13 -24 -1 7 20 -14 30 -31
16 -12 -10 -15 -9 -15 3 0 20 29 27 55 13 11 -6 26 -9 33 -8z m-4008 -12 c0
-8 -7 -16 -15 -20 -13 -4 -14 -2 -5 14 13 23 20 26 20 6z m80 -15 c-8 -5 -26
-12 -40 -15 l-25 -7 25 15 c14 9 32 15 40 15 13 0 13 -1 0 -8z m3795 -1 c3 -5
1 -10 -4 -10 -6 0 -11 5 -11 10 0 6 2 10 4 10 3 0 8 -4 11 -10z m75 -5 c0 -8
-7 -15 -16 -15 -14 0 -14 3 -4 15 7 8 14 15 16 15 2 0 4 -7 4 -15z m-43 -15
c1 -11 -2 -18 -8 -15 -11 7 -12 35 -1 35 4 0 8 -9 9 -20z m-3171 -24 c-3 -12
-6 -27 -6 -34 0 -7 -4 -10 -10 -7 -17 10 -12 62 6 62 11 0 14 -7 10 -21z m74
14 c-35 -24 -54 -31 -30 -11 14 11 30 21 35 21 6 0 3 -5 -5 -10z m4647 4 c-3
-3 -12 -4 -19 -1 -8 3 -5 6 6 6 11 1 17 -2 13 -5z m-47 -14 c0 -5 -7 -10 -16
-10 -8 0 -12 5 -9 10 3 6 10 10 16 10 5 0 9 -4 9 -10z m-113 -6 c-3 -3 -12 -4
-19 -1 -8 3 -5 6 6 6 11 1 17 -2 13 -5z m-89 -11 c-21 -2 -57 -2 -80 0 -24 2
-7 4 37 4 44 0 63 -2 43 -4z m-3678 -34 c0 -5 -4 -9 -10 -9 -5 0 -10 7 -10 16
0 8 5 12 10 9 6 -3 10 -10 10 -16z m295 7 c11 -6 21 -12 23 -12 1 -1 -3 -13
-9 -28 -8 -17 -23 -28 -45 -32 -66 -12 -88 23 -33 51 17 9 29 19 26 22 -3 2
-14 0 -25 -6 -29 -15 -42 -14 -42 5 0 12 9 15 43 13 23 -2 51 -8 62 -13z
m-167 -8 c7 -9 6 -16 -2 -23 -12 -11 -48 -16 -42 -6 1 3 6 14 9 24 7 20 20 22
35 5z m-129 -40 c-9 -16 -14 -19 -17 -9 -2 7 2 17 9 22 20 13 21 11 8 -13z
m191 -3 c0 -7 -6 -15 -13 -18 -10 -4 -13 2 -9 19 4 24 22 24 22 -1z m3841 2
c-10 -9 -11 -8 -5 6 3 10 9 15 12 12 3 -3 0 -11 -7 -18z m-115 -4 c0 -10 5
-17 12 -15 17 3 15 -15 -3 -22 -8 -3 -15 -12 -15 -21 0 -8 -4 -15 -10 -15 -5
0 -10 -7 -10 -16 0 -8 -5 -12 -11 -8 -6 3 -9 17 -6 30 2 13 0 21 -4 18 -5 -3
-9 -1 -9 5 0 5 10 11 23 13 12 2 22 10 23 18 1 22 4 30 8 30 2 0 3 -8 2 -17z
m-4579 -35 c-3 -7 -5 -2 -5 12 0 14 2 19 5 13 2 -7 2 -19 0 -25z m4679 13 c-7
-11 -56 -21 -56 -10 0 4 8 10 18 12 30 8 43 7 38 -2z m-3971 -32 c11 -17 0
-20 -21 -4 -17 13 -17 14 -2 15 9 0 20 -5 23 -11z m1013 -19 c-3 -23 -1 -30 9
-26 7 3 13 1 13 -4 0 -6 9 -6 24 0 24 9 25 7 28 -33 l3 -42 49 50 c30 31 40
38 26 18 -12 -17 -23 -42 -24 -55 -1 -18 -9 -25 -42 -33 -24 -6 -39 -15 -37
-22 2 -6 -7 -18 -22 -25 -26 -14 -26 -14 -7 -36 23 -26 92 -32 92 -8 0 16 -22
26 -53 26 -21 -1 -21 -1 3 -15 16 -9 19 -14 9 -15 -8 0 -24 6 -35 14 -18 14
-18 15 9 21 57 15 105 -34 55 -55 l-23 -9 23 0 c22 -1 33 -31 10 -31 -6 0 -4
-7 5 -18 21 -23 22 -51 2 -58 -25 -10 -47 16 -41 48 5 28 5 28 -50 28 -38 0
-53 4 -48 11 4 7 -2 6 -17 -1 l-23 -13 24 -9 c33 -13 89 -16 93 -5 1 5 3 -9 4
-32 1 -23 -2 -41 -8 -41 -5 0 -9 4 -9 9 0 5 -13 8 -30 7 -16 -1 -30 1 -30 6 0
4 5 8 11 8 5 0 8 4 4 10 -8 12 -35 1 -35 -15 0 -7 -8 -16 -17 -20 -15 -6 -14
-8 10 -18 l28 -12 -21 -23 c-24 -25 -44 -20 -37 9 3 11 1 17 -4 13 -14 -8 -11
13 4 28 20 20 29 48 13 42 -22 -8 -26 33 -5 55 19 20 19 20 -1 31 -11 6 -20
17 -20 24 0 13 41 36 64 36 25 0 36 25 26 59 -8 28 -7 31 5 21 22 -19 35 -4
24 28 -7 20 -17 28 -36 30 -36 3 -38 7 -23 42 16 39 34 39 28 0z m112 10 c-14
-11 -29 -20 -35 -20 -5 0 4 9 20 20 38 25 48 25 15 0z m5351 -20 c23 -6 39
-18 42 -30 14 -52 -63 -356 -120 -477 -16 -35 -33 -35 -33 0 0 15 -3 18 -8 9
-10 -15 -42 -6 -42 12 0 12 -11 -7 -83 -148 l-50 -99 -18 24 c-23 31 -32 101
-27 230 3 103 4 105 56 210 30 59 72 128 94 155 21 26 44 56 49 66 12 22 67
58 89 58 8 0 31 -5 51 -10z m-5357 -35 c-9 -14 -18 -25 -20 -25 -7 0 10 35 20
42 17 12 17 9 0 -17z m-1115 -25 c5 0 12 6 14 13 4 7 6 6 6 -5 1 -9 -5 -19
-11 -22 -7 -3 8 -4 34 -2 26 2 54 11 63 20 22 22 28 20 13 -3 -11 -19 -48 -31
-93 -31 -23 0 -75 41 -75 60 0 5 9 1 20 -10 11 -11 24 -20 29 -20z m3876 30
c-3 -5 -14 -10 -23 -10 -15 0 -15 2 -2 10 20 13 33 13 25 0z m-41 -15 c3 -8 1
-15 -4 -15 -6 0 -10 -6 -10 -14 0 -8 -9 -18 -20 -21 -26 -8 -26 -25 -1 -25 11
0 23 -9 26 -20 7 -24 13 -24 39 -5 29 22 42 18 21 -5 -10 -11 -20 -18 -23 -16
-2 3 -10 -1 -18 -8 -13 -13 -64 -10 -64 3 0 4 6 13 13 20 10 12 9 13 -7 7 -14
-5 -17 -2 -12 9 4 11 -2 15 -24 15 -33 0 -40 14 -13 24 9 4 21 1 26 -6 6 -9 7
-6 4 10 -3 14 0 22 8 22 7 0 19 8 26 18 13 16 13 16 -6 2 -19 -14 -19 -14 -6
3 17 21 37 22 45 2z m611 -2 c19 -9 35 -19 35 -23 0 -3 -92 -5 -205 -5 -113 0
-205 -3 -205 -7 0 -14 51 -21 88 -12 88 21 402 0 402 -27 0 -5 -28 -10 -62
-11 l-63 -2 55 -3 c62 -5 83 -19 112 -78 11 -22 30 -50 41 -63 14 -15 18 -25
11 -30 -6 -4 -17 -31 -24 -60 -13 -58 -67 -136 -121 -180 -19 -15 -56 -48 -82
-73 -42 -41 -47 -51 -41 -76 9 -37 9 -32 0 -80 -5 -30 -13 -43 -24 -44 -28 -1
69 -28 123 -35 28 -3 77 -19 110 -34 33 -16 90 -42 126 -58 58 -26 129 -80
129 -97 0 -4 -15 2 -32 13 -18 11 -129 50 -247 87 -197 62 -220 67 -280 62
-36 -2 -57 -1 -46 3 78 30 -210 23 -351 -9 -51 -11 -125 -32 -165 -45 -101
-33 -494 -188 -561 -221 -75 -37 -161 -105 -203 -163 -35 -48 -75 -140 -78
-180 -2 -32 -12 -27 -31 16 -17 37 -17 41 4 102 23 67 80 159 126 201 41 37
109 81 179 116 59 30 379 155 483 188 29 10 51 19 50 20 -2 2 -57 -8 -123 -21
-66 -12 -180 -30 -254 -39 -73 -9 -144 -21 -157 -25 -26 -10 -31 -2 -11 21 19
24 181 129 198 129 8 0 30 -16 49 -35 42 -43 94 -49 106 -13 5 18 -1 29 -32
55 -22 18 -42 33 -46 33 -5 0 -8 4 -8 9 0 14 203 132 217 127 37 -15 205 -57
209 -53 3 3 -8 7 -23 11 -24 5 -106 29 -337 99 -39 12 -61 37 -33 37 8 0 39
11 69 24 l55 25 37 -38 c43 -44 114 -67 176 -56 38 6 149 -20 136 -32 -8 -8
254 -94 265 -87 14 8 11 24 -6 24 -8 0 -90 24 -182 54 -92 30 -194 59 -226 65
-56 10 -164 70 -140 78 6 2 43 -5 81 -17 l71 -22 128 93 c70 51 141 101 156
113 27 20 29 20 135 3 59 -10 164 -29 234 -43 134 -28 158 -27 158 4 0 15 -12
22 -57 31 -129 25 -247 42 -261 36 -18 -7 -142 5 -142 14 1 3 33 29 73 56 55
38 84 51 122 56 28 3 -35 6 -140 7 -174 2 -193 4 -225 23 -19 12 -39 27 -43
33 -4 6 -5 -2 -2 -19 3 -16 2 -24 -1 -17 -8 17 -25 15 -39 -4 -14 -20 -65 -12
-65 11 0 27 38 38 75 22 16 -7 15 -4 -5 13 l-25 22 27 -5 c15 -2 25 0 22 4 -8
14 110 10 125 -3 11 -10 12 -10 7 -1 -5 10 27 13 136 16 79 1 162 4 185 5 24
1 58 -6 78 -15z m-1841 -9 c3 -8 2 -12 -4 -9 -6 3 -10 10 -10 16 0 14 7 11 14
-7z m1140 1 c3 -8 1 -15 -4 -15 -6 0 -10 7 -10 15 0 8 2 15 4 15 2 0 6 -7 10
-15z m1257 -102 c42 -22 114 -54 160 -71 46 -17 109 -41 139 -52 30 -12 80
-29 110 -38 68 -19 66 -17 52 -45 -7 -12 -23 -52 -37 -89 -14 -38 -29 -76 -34
-85 -105 -211 -168 -323 -185 -328 -6 -2 -24 -6 -40 -10 -23 -5 -27 -8 -15
-16 11 -7 9 -9 -8 -9 -18 0 -23 -8 -31 -42 -5 -28 -5 -45 2 -50 21 -14 -1 -17
-42 -5 -42 13 -47 27 -10 27 11 0 18 7 18 20 0 11 -7 20 -15 20 -13 0 -14 4
-5 20 9 16 8 20 -5 20 -26 0 -308 30 -335 35 l-25 5 1 214 c0 197 2 215 21
242 21 30 45 89 97 240 l31 91 40 -27 c22 -15 74 -45 116 -67z m-3168 10 c-7
-2 -19 -2 -25 0 -7 3 -2 5 12 5 14 0 19 -2 13 -5z m843 -8 c-7 -19 13 -75 27
-75 8 0 8 -3 0 -11 -8 -8 -8 -20 -3 -35 6 -15 5 -24 -3 -28 -7 -2 -3 -5 7 -5
18 -1 17 -3 -4 -21 l-23 -20 37 0 c20 0 35 -4 32 -8 -2 -4 -23 -6 -45 -4 -23
2 -38 8 -35 13 10 18 -26 9 -46 -11 -26 -26 -26 -10 0 22 10 14 16 29 12 33
-4 5 1 5 10 2 35 -12 42 26 23 126 -5 26 -4 37 5 37 7 0 10 -7 6 -15z m1052
-40 c-3 -3 -9 2 -12 12 -6 14 -5 15 5 6 7 -7 10 -15 7 -18z m-3788 -5 c0 -5
-18 -10 -40 -10 -22 0 -40 5 -40 10 0 6 18 10 40 10 22 0 40 -4 40 -10z m308
3 c-21 -2 -57 -2 -80 0 -24 2 -7 4 37 4 44 0 63 -2 43 -4z m3652 -25 c0 -10 3
-9 9 1 6 9 10 4 13 -18 4 -26 2 -29 -11 -18 -12 10 -13 9 -7 -1 9 -15 -22 -55
-35 -46 -15 9 -10 42 7 52 20 11 9 36 -13 28 -8 -3 -11 -1 -8 4 9 14 45 12 45
-2z m77 -14 c-3 -3 -12 -4 -19 -1 -8 3 -5 6 6 6 11 1 17 -2 13 -5z m-140 -41
c-3 -2 -15 1 -27 7 -12 6 -19 14 -16 17 3 3 13 0 21 -7 9 -7 15 -9 14 -4 -3
19 4 28 8 11 3 -10 3 -21 0 -24z m201 30 c-10 -2 -26 -2 -35 0 -10 3 -2 5 17
5 19 0 27 -2 18 -5z m55 -10 c-7 -2 -19 -2 -25 0 -7 3 -2 5 12 5 14 0 19 -2
13 -5z m-5524 -257 c13 -20 27 -36 32 -36 6 0 63 15 127 32 153 42 310 46 437
10 76 -22 314 -134 436 -205 143 -83 198 -119 254 -164 33 -26 76 -60 96 -75
25 -19 50 -56 83 -122 26 -53 46 -101 43 -108 -4 -12 -37 53 -37 73 0 5 -4 9
-9 9 -4 0 -6 -11 -4 -24 3 -13 0 -27 -6 -30 -6 -4 -8 -21 -5 -39 5 -27 1 -24
-28 26 -50 87 -148 189 -241 250 -96 63 -384 231 -474 276 -137 69 -252 100
-378 102 l-91 1 -139 -61 c-105 -47 -141 -59 -149 -50 -8 9 -8 10 0 5 7 -3 43
10 80 29 38 20 60 33 49 31 -11 -3 -42 -10 -68 -16 -154 -33 -194 -108 -148
-276 17 -64 75 -226 108 -301 7 -18 20 -51 29 -74 8 -23 18 -47 22 -53 4 -6
14 -29 21 -51 7 -22 17 -50 23 -63 13 -25 3 -42 -26 -46 -9 -1 -23 -11 -31
-22 -8 -10 -14 -14 -15 -9 0 6 12 24 26 40 19 22 24 25 19 10 -5 -15 -3 -17 6
-8 14 14 -18 93 -38 93 -7 0 -13 4 -13 9 0 4 -22 13 -50 18 l-50 10 0 -29 c0
-16 -4 -27 -9 -24 -4 3 -6 16 -4 30 3 16 -7 42 -31 80 -20 31 -36 61 -36 66 0
6 -3 10 -8 10 -4 0 -12 8 -17 19 -6 10 -25 46 -43 80 -18 33 -42 87 -53 118
-11 32 -27 72 -34 88 -8 17 -27 67 -44 110 -16 44 -34 92 -39 106 -10 24 -7
28 52 67 133 87 266 235 266 297 0 11 20 -23 44 -77 24 -53 53 -112 65 -132z
m4221 198 c0 -2 -7 -4 -15 -4 -8 0 -15 4 -15 10 0 5 7 7 15 4 8 -4 15 -8 15
-10z m-194 -21 c-7 -7 -26 7 -26 19 0 6 6 6 15 -2 9 -7 13 -15 11 -17z m189
-3 c-3 -5 -12 -10 -18 -10 -7 0 -6 4 3 10 19 12 23 12 15 0z m975 -5 c12 -14
103 -18 94 -4 -2 4 9 9 24 12 l27 5 -24 -19 c-31 -25 -65 -27 -129 -8 -18 6
-30 15 -27 20 9 13 21 11 35 -6z m-2630 -25 c0 -5 -6 -10 -14 -10 -8 0 -19
-14 -25 -32 -15 -44 -22 -31 -8 15 8 24 18 37 29 37 10 0 18 -4 18 -10z m1457
-22 c-3 -8 -6 -5 -6 6 -1 11 2 17 5 13 3 -3 4 -12 1 -19z m161 1 c-10 -7 -7
-11 10 -15 12 -4 22 -13 22 -21 0 -12 -5 -11 -30 4 -35 20 -42 54 -9 46 16 -4
18 -8 7 -14z m-50 -14 c-1 -14 -6 -25 -10 -25 -10 0 -10 13 -2 34 9 23 14 19
12 -9z m-1693 -41 c14 -11 15 -15 5 -13 -8 1 -23 -1 -33 -6 -20 -8 -46 9 -33
22 4 4 11 1 16 -7 8 -13 10 -12 10 3 0 21 9 21 35 1z m1765 1 c25 -14 25 -14
3 -15 -13 0 -23 5 -23 10 0 6 -12 8 -27 4 -22 -4 -25 -3 -13 5 20 14 30 13 60
-4z m-170 -41 c0 -8 -2 -14 -4 -14 -2 0 -11 -3 -20 -6 -13 -5 -13 -2 -3 19 12
26 27 27 27 1z m-1590 6 c0 -5 -2 -10 -4 -10 -3 0 -8 5 -11 10 -3 6 -1 10 4
10 6 0 11 -4 11 -10z m-1377 -29 c-3 -11 2 -21 11 -24 10 -4 16 -19 16 -41 0
-27 3 -34 15 -30 11 4 15 0 15 -16 0 -16 -4 -20 -15 -16 -9 3 -15 0 -15 -8 0
-8 -6 -16 -12 -19 -10 -3 -10 -9 0 -26 12 -21 11 -22 -8 -19 -20 3 -22 9 -23
106 -1 60 2 104 8 106 6 3 11 5 12 5 0 1 -1 -7 -4 -18z m1497 14 c0 -16 -50
-45 -85 -51 -42 -6 -95 11 -110 36 -10 16 12 12 29 -5 8 -8 21 -15 28 -15 10
0 9 3 -2 10 -9 6 -10 10 -3 10 6 0 15 -4 18 -10 8 -13 75 -13 75 0 0 6 10 15
23 20 28 11 27 11 27 5z m1545 -5 c3 -6 -1 -7 -9 -4 -18 7 -21 14 -7 14 6 0
13 -4 16 -10z m-58 -16 c-3 -3 -12 -4 -19 -1 -8 3 -5 6 6 6 11 1 17 -2 13 -5z
m37 -9 c-6 -16 -24 -21 -24 -7 0 11 11 22 21 22 5 0 6 -7 3 -15z m-64 -18 c11
-5 9 -6 -4 -4 -11 1 -21 9 -23 17 -3 10 -2 11 4 4 4 -6 15 -14 23 -17z m-3143
-29 c-3 -7 -5 -2 -5 12 0 14 2 19 5 13 2 -7 2 -19 0 -25z m3233 27 c0 -2 -10
-9 -22 -15 -22 -11 -22 -10 -4 4 21 17 26 19 26 11z m447 -40 c5 -4 2 -5 -4
-1 -7 4 -13 2 -13 -3 0 -6 2 -11 4 -11 2 0 12 -3 22 -7 12 -5 15 -3 9 6 -6 10
-3 11 14 2 24 -13 28 -23 6 -15 -33 13 -12 -7 45 -42 33 -20 60 -40 60 -45 0
-14 -170 95 -184 119 -8 14 28 12 41 -3z m-3590 -9 c-5 -16 -27 -19 -27 -3 0
7 7 14 15 14 9 0 14 -5 12 -11z m3103 4 c0 -5 -9 -10 -21 -10 -11 0 -17 5 -14
10 3 6 13 10 21 10 8 0 14 -4 14 -10z m-733 -22 c-3 -8 -6 -5 -6 6 -1 11 2 17
5 13 3 -3 4 -12 1 -19z m-2370 -27 c-1 -15 -4 -17 -14 -9 -7 5 -10 14 -7 19
10 16 23 9 21 -10z m3098 -2 c20 0 20 0 0 -9 -15 -7 -10 -9 23 -9 23 -1 42 2
42 7 0 4 16 12 35 18 l36 11 -22 -23 c-18 -19 -33 -24 -74 -24 -52 0 -101 23
-89 42 4 6 10 6 17 -1 6 -6 20 -11 32 -12z m-4128 -25 c-3 -3 -12 -4 -19 -1
-8 3 -5 6 6 6 11 1 17 -2 13 -5z m4793 -26 c0 -6 -6 -5 -15 2 -8 7 -15 14 -15
16 0 2 7 1 15 -2 8 -4 15 -11 15 -16z m-1917 -446 c19 -55 34 -134 51 -277 37
-300 43 -414 32 -605 -1 -19 -3 -61 -4 -93 -3 -94 -17 -58 -20 51 -2 113 -14
184 -38 239 -18 41 -18 41 -28 158 -3 44 -9 105 -12 135 -4 30 -6 62 -6 70 0
8 -5 49 -11 90 -14 101 -15 319 -2 314 6 -3 23 -39 38 -82z m4373 62 c-14 -53
37 -227 81 -276 13 -14 6 -33 -68 -179 -45 -89 -93 -178 -106 -198 l-25 -36 7
33 c4 18 4 50 0 72 -6 34 -11 40 -31 40 -21 0 -24 -5 -24 -38 0 -30 -8 -46
-40 -80 -22 -23 -47 -42 -55 -42 -8 0 -15 -8 -15 -18 0 -12 -15 -23 -47 -35
-50 -18 -120 -88 -108 -107 4 -6 -1 -7 -12 -3 -10 3 -15 3 -11 -2 4 -4 40 -16
80 -25 40 -10 65 -18 56 -19 -30 -2 -312 57 -530 111 -181 44 -206 52 -198 67
5 9 22 48 39 86 16 39 56 132 89 207 66 148 92 225 92 270 0 15 3 28 6 28 20
0 250 -66 302 -87 78 -31 119 -27 218 21 77 37 149 91 239 178 33 32 62 58 64
58 2 0 0 -12 -3 -26z m-4999 -16 c-3 -7 -5 -2 -5 12 0 14 2 19 5 13 2 -7 2
-19 0 -25z m56 -159 c9 -35 19 -102 22 -149 4 -47 11 -98 17 -113 8 -20 8 -31
-1 -40 -6 -6 -12 -27 -13 -46 -2 -52 -15 99 -17 199 -1 59 -9 111 -27 170 -36
119 -38 131 -16 84 11 -22 27 -69 35 -105z m1300 114 c-7 -2 -19 -2 -25 0 -7
3 -2 5 12 5 14 0 19 -2 13 -5z m1342 -42 c27 -10 51 -23 53 -29 4 -14 -19 -27
-27 -15 -3 6 -25 20 -48 32 -40 20 -53 31 -35 31 4 0 29 -8 57 -19z m-1271
-79 c-3 -37 -10 -107 -15 -155 -5 -49 -16 -186 -25 -305 -24 -342 -26 -364
-35 -355 -18 18 -22 167 -6 224 8 29 18 105 21 168 4 63 13 164 21 225 7 61
17 148 20 193 4 46 11 81 16 78 4 -3 6 -36 3 -73z m-1056 -15 c12 -19 22 -48
22 -68 0 -19 9 -48 19 -65 10 -17 23 -51 29 -75 19 -83 43 -163 51 -173 13
-17 32 -116 24 -129 -4 -7 0 -8 13 -3 15 6 16 5 7 -5 -9 -9 -18 -8 -38 5 -14
9 -23 21 -20 26 4 6 -1 10 -10 10 -9 0 -13 5 -10 10 3 6 1 10 -4 10 -6 0 -11
7 -11 16 0 8 -4 12 -10 9 -5 -3 -10 1 -10 10 0 8 -11 32 -24 53 -12 20 -25 51
-28 67 -3 17 -11 55 -17 85 -10 55 -16 97 -28 198 -7 63 10 70 45 19z m-949
-70 c-1 -40 1 -82 5 -94 4 -13 3 -23 -2 -23 -5 0 -7 -11 -5 -24 3 -13 0 -33
-6 -45 -11 -21 -10 -21 68 -21 51 0 96 -6 121 -16 22 -9 49 -14 60 -11 11 3
17 1 14 -4 -3 -6 5 -7 20 -3 14 3 26 2 26 -3 0 -5 19 -14 43 -20 72 -20 210
-51 257 -58 24 -4 51 -15 58 -24 7 -9 11 -10 7 -3 -8 15 33 8 75 -13 14 -7 45
-18 70 -25 25 -7 55 -16 68 -21 13 -5 40 -9 62 -9 48 0 72 -9 63 -23 -4 -6 0
-8 10 -4 20 7 87 -52 83 -74 -13 -68 -34 -105 -93 -169 -35 -38 -113 -153
-107 -159 1 -2 15 6 30 18 26 20 44 20 44 0 0 -6 -18 -28 -41 -49 -30 -27 -36
-38 -23 -37 12 1 18 -4 16 -14 -1 -10 6 -19 18 -22 27 -7 25 -17 -10 -55 -16
-18 -30 -35 -30 -37 0 -2 -54 -59 -120 -127 -65 -67 -125 -134 -132 -148 -29
-59 -95 -140 -120 -149 -22 -8 -28 -7 -28 3 0 24 -145 37 -167 15 -6 -6 -19
-12 -29 -13 -15 -2 -21 -17 -30 -67 -9 -50 -12 -56 -13 -28 0 20 -12 81 -26
135 -14 56 -21 100 -16 102 6 2 7 10 4 18 -5 13 -7 13 -14 3 -12 -19 -23 17
-85 266 -67 272 -68 276 -99 460 -51 305 -56 349 -51 445 3 52 6 121 6 153 0
38 4 56 10 52 6 -4 10 -37 9 -78z m1513 -68 c7 -99 16 -297 19 -404 1 -27 -2
-66 -6 -85 -5 -19 -10 -80 -12 -135 -2 -55 -4 -110 -4 -122 -1 -24 -19 -33
-19 -9 0 7 -6 19 -14 25 -8 7 -14 36 -16 74 -3 96 -4 105 -12 113 -14 13 -9
172 5 177 9 3 9 7 -1 19 -7 9 -12 40 -12 69 0 30 0 61 0 69 -2 23 8 90 20 135
5 22 10 66 10 97 0 64 7 91 24 85 6 -2 14 -45 18 -108z m1135 -186 c-2 -16 -4
-5 -4 22 0 28 2 40 4 28 2 -13 2 -35 0 -50z m-785 -121 l-5 -27 -8 29 c-9 32
-1 56 11 36 4 -6 5 -23 2 -38z m-3605 -114 c-3 -7 -5 -2 -5 12 0 14 2 19 5 13
2 -7 2 -19 0 -25z m4362 -192 c-7 -83 -13 -169 -14 -191 -1 -22 -7 -75 -14
-117 -7 -43 -9 -83 -5 -89 4 -7 3 -9 -3 -6 -6 4 -15 -23 -22 -66 -7 -40 -19
-99 -26 -132 -8 -33 -23 -109 -35 -169 -11 -60 -23 -113 -26 -117 -2 -5 7 -16
21 -25 31 -20 19 -42 -14 -25 -18 10 -21 9 -21 -10 0 -27 -38 -109 -50 -109
-5 0 -15 -13 -24 -30 -8 -16 -10 -30 -5 -30 15 0 10 -27 -6 -34 -8 -3 -15 -15
-15 -26 0 -11 -4 -20 -10 -20 -5 0 -10 -7 -10 -16 0 -8 -7 -22 -15 -30 -8 -9
-15 -26 -15 -39 0 -33 -16 -39 -34 -13 -11 16 -16 46 -16 100 0 43 -4 78 -9
78 -4 0 -11 30 -15 68 -7 70 -32 171 -46 186 -5 5 -6 15 -3 23 5 13 -13 71
-42 138 -61 139 -127 277 -135 285 -5 5 -20 42 -46 117 -15 40 -14 43 18 112
22 47 35 66 41 58 6 -8 7 -6 3 6 -7 23 13 107 26 107 5 0 26 13 46 29 26 20
58 32 107 41 39 7 102 21 140 32 134 36 230 61 243 61 6 0 12 5 12 11 0 6 5 4
10 -4 8 -12 10 -10 11 10 1 19 2 21 6 6 3 -10 -1 -87 -8 -170z m-4393 93 l-16
-34 6 35 c7 41 16 59 21 43 2 -6 -3 -26 -11 -44z m3696 -211 c-6 -6 -7 0 -4
19 5 21 7 23 10 9 2 -10 0 -22 -6 -28z m-8 -34 c3 -8 2 -12 -4 -9 -6 3 -10 10
-10 16 0 14 7 11 14 -7z m-3791 -41 c-3 -10 -9 -22 -13 -28 -4 -5 -17 -41 -29
-80 -44 -138 -44 -124 -4 -140 19 -8 45 -15 57 -15 18 -1 19 -2 5 -10 -17 -10
-78 7 -91 25 -4 6 -8 8 -9 5 -8 -47 -30 -97 -36 -82 -8 22 105 342 121 342 3
0 3 -8 -1 -17z m3154 -60 c-2 -16 -4 -3 -4 27 0 30 2 43 4 28 2 -16 2 -40 0
-55z m1356 5 c3 -13 2 -43 -3 -68 -6 -36 -8 -39 -9 -15 -1 23 -3 27 -11 15 -8
-13 -10 -12 -10 3 0 9 5 17 11 17 7 0 10 14 7 35 -4 39 7 48 15 13z m-22 -185
c-5 -27 -14 -75 -20 -108 -7 -33 -15 -67 -18 -75 -3 -8 -6 -18 -5 -22 3 -14
-40 -213 -48 -221 -11 -12 -3 72 9 87 6 7 13 40 16 74 3 35 12 82 20 105 8 23
15 62 17 87 2 25 6 48 11 51 4 3 8 26 9 52 2 31 5 42 11 32 4 -8 4 -36 -2 -62z
m-3851 -23 c-14 -4 -41 -8 -60 -8 l-35 1 40 7 c57 10 87 10 55 0z m-280 -10
c-8 -5 -23 -10 -32 -10 -10 0 -18 -5 -18 -11 0 -5 -4 -8 -9 -5 -5 3 -22 -1
-37 -10 l-29 -16 28 6 c15 4 47 9 72 13 24 3 43 8 41 12 -2 3 8 6 22 7 15 0
54 3 87 7 l60 7 -75 -19 c-108 -27 -353 -78 -436 -91 -85 -13 -154 -1 -154 28
0 10 3 13 8 6 8 -12 52 -26 50 -15 -3 14 15 41 27 41 7 0 15 4 17 10 2 5 19
12 38 16 26 4 31 3 20 -5 -8 -5 -11 -13 -7 -17 3 -4 14 -1 23 7 15 12 16 12
10 -7 -6 -20 -3 -20 86 9 51 16 104 33 118 37 38 12 108 12 90 0z m7025 -266
c-12 -24 -15 -25 -15 -8 0 11 5 25 12 32 18 18 20 8 3 -24z m-1410 -512 c9
-129 14 -236 11 -239 -3 -4 -6 11 -6 32 0 20 -6 83 -14 139 -17 116 -28 351
-16 321 4 -11 16 -125 25 -253z m-1595 249 c0 -5 -7 -12 -16 -15 -14 -5 -15
-4 -4 9 14 17 20 19 20 6z m-290 -53 c0 -5 -7 -8 -15 -4 -12 4 -15 -3 -15 -29
0 -19 5 -35 10 -35 6 0 10 8 10 17 0 13 3 14 12 5 16 -16 -4 -37 -26 -29 -20
8 -22 83 -3 90 15 5 27 -1 27 -15z m3237 -55 c-3 -10 -5 -4 -5 12 0 17 2 24 5
18 2 -7 2 -21 0 -30z m-7 -178 l-7 -120 -1 91 c-2 77 6 162 13 152 1 -2 -1
-57 -5 -123z m-3280 63 c0 -13 7 -32 15 -42 8 -11 15 -29 14 -40 -1 -18 -2
-18 -9 4 -8 24 -8 24 -9 3 -1 -13 -7 -23 -14 -23 -10 0 -14 16 -13 60 0 33 4
60 8 60 5 0 8 -10 8 -22z m-641 -93 c5 3 11 0 13 -6 2 -5 18 -11 36 -11 18 -1
35 -5 38 -10 3 -4 9 -6 14 -3 5 3 12 1 15 -5 5 -8 11 -7 21 1 10 8 14 8 14 0
0 -12 -8 -14 -65 -11 -22 1 -46 7 -54 13 -8 7 -17 11 -20 10 -14 -4 -67 29
-80 49 -13 20 -10 20 22 -5 21 -16 41 -26 46 -22z m201 -29 c0 -2 -7 -7 -16
-10 -8 -3 -12 -2 -9 4 6 10 25 14 25 6z m3690 -60 c0 -8 -4 -18 -10 -21 -5 -3
-10 3 -10 14 0 12 5 21 10 21 6 0 10 -6 10 -14z m-1293 -153 c-3 -10 -5 -2 -5
17 0 19 2 27 5 18 2 -10 2 -26 0 -35z m-1937 -3 c0 -5 -4 -10 -10 -10 -5 0
-10 5 -10 10 0 6 5 10 10 10 6 0 10 -4 10 -10z"/>
<path d="M378 5893 c7 -3 16 -2 19 1 4 3 -2 6 -13 5 -11 0 -14 -3 -6 -6z"/>
<path d="M364 5872 c2 -4 31 -8 64 -7 34 0 58 -4 54 -9 -3 -5 2 -6 12 -3 10 4
43 7 74 7 41 0 53 3 42 10 -18 11 -253 14 -246 2z"/>
<path d="M995 5730 c-13 -5 -1 -7 37 -6 32 0 58 4 58 9 0 9 -70 8 -95 -3z"/>
<path d="M1129 5718 c-7 -23 -3 -45 8 -41 16 6 17 23 1 23 -6 0 -9 3 -6 6 4 3
16 1 27 -6 12 -6 21 -7 21 -1 0 12 -47 29 -51 19z"/>
<path d="M1143 5669 c-8 -8 -7 -16 5 -30 22 -25 49 -24 63 4 6 12 8 19 4 15
-4 -4 -14 -1 -22 7 -17 18 -35 19 -50 4z"/>
<path d="M3510 5653 c-8 -2 -21 -7 -29 -9 -8 -2 -12 -6 -10 -8 2 -2 27 2 54 9
28 8 39 14 25 14 -14 -1 -32 -3 -40 -6z"/>
<path d="M3632 5378 c-14 -14 -16 -28 -3 -28 5 0 11 9 14 20 6 23 5 24 -11 8z"/>
<path d="M4370 5610 c0 -5 5 -10 11 -10 5 0 7 5 4 10 -3 6 -8 10 -11 10 -2 0
-4 -4 -4 -10z"/>
<path d="M4473 5605 c0 -8 4 -15 9 -15 4 0 8 4 8 9 0 6 -4 12 -8 15 -5 3 -9
-1 -9 -9z"/>
<path d="M484 5554 c3 -9 6 -21 7 -27 0 -7 4 -3 9 8 8 19 9 19 9 -3 1 -31 21
-18 21 14 0 19 -5 24 -26 24 -20 0 -25 -4 -20 -16z"/>
<path d="M690 5562 c0 -12 19 -26 26 -19 2 2 -2 10 -11 17 -9 8 -15 8 -15 2z"/>
<path d="M745 5560 c4 -6 11 -8 16 -5 14 9 11 15 -7 15 -8 0 -12 -5 -9 -10z"/>
<path d="M790 5551 c0 -12 6 -21 16 -21 9 0 14 7 12 17 -5 25 -28 28 -28 4z"/>
<path d="M405 5427 c-4 -10 -5 -21 -1 -24 10 -10 18 4 13 24 -4 17 -4 17 -12
0z"/>
<path d="M430 5312 c0 -12 19 -26 26 -19 2 2 -2 10 -11 17 -9 8 -15 8 -15 2z"/>
<path d="M1765 5500 c-3 -5 1 -10 9 -10 8 0 18 5 21 10 3 6 -1 10 -9 10 -8 0
-18 -4 -21 -10z"/>
<path d="M1781 5471 c-19 -12 -23 -41 -6 -47 16 -6 55 13 55 26 0 6 -7 10 -16
10 -8 0 -12 5 -9 10 8 12 -5 13 -24 1z"/>
<path d="M5988 5393 c7 -3 16 -2 19 1 4 3 -2 6 -13 5 -11 0 -14 -3 -6 -6z"/>
<path d="M6781 5104 c0 -11 3 -14 6 -6 3 7 2 16 -1 19 -3 4 -6 -2 -5 -13z"/>
<path d="M2662 5140 c0 -14 2 -19 5 -12 2 6 2 18 0 25 -3 6 -5 1 -5 -13z"/>
<path d="M2653 4960 c0 -25 2 -35 4 -22 2 12 2 32 0 45 -2 12 -4 2 -4 -23z"/>
<path d="M3703 4633 c9 -2 23 -2 30 0 6 3 -1 5 -18 5 -16 0 -22 -2 -12 -5z"/>
<path d="M3770 4625 c0 -8 4 -15 8 -15 5 0 9 7 9 15 0 8 -4 15 -9 15 -4 0 -8
-7 -8 -15z"/>
<path d="M3806 4625 c4 -8 8 -15 10 -15 2 0 4 7 4 15 0 8 -4 15 -10 15 -5 0
-7 -7 -4 -15z"/>
<path d="M3743 4585 c7 -7 14 -9 15 -4 2 6 13 -7 24 -28 11 -21 25 -42 30 -48
6 -6 5 0 -1 12 -16 31 -13 42 4 19 12 -16 15 -17 15 -4 0 8 -7 21 -15 28 -12
10 -15 10 -15 -1 0 -11 -2 -11 -10 1 -12 19 -13 33 -1 25 5 -3 12 -2 15 3 3 5
-13 9 -34 9 -31 1 -36 -2 -27 -12z"/>
<path d="M5265 5010 c-13 -6 -15 -9 -5 -9 8 0 22 4 30 9 18 12 2 12 -25 0z"/>
<path d="M5581 4744 c0 -11 3 -14 6 -6 3 7 2 16 -1 19 -3 4 -6 -2 -5 -13z"/>
<path d="M5281 4664 c0 -11 3 -14 6 -6 3 7 2 16 -1 19 -3 4 -6 -2 -5 -13z"/>
<path d="M7098 4923 c7 -3 16 -2 19 1 4 3 -2 6 -13 5 -11 0 -14 -3 -6 -6z"/>
<path d="M6507 4842 c17 -18 35 -32 39 -32 11 0 -28 40 -51 53 -12 6 -7 -2 12
-21z"/>
<path d="M5910 4901 c0 -5 -10 -11 -22 -15 -15 -3 -19 -9 -13 -15 21 -20 37
-16 40 12 2 15 2 27 -1 27 -2 0 -4 -4 -4 -9z"/>
<path d="M8310 4936 c0 -23 16 -27 17 -5 1 10 -2 19 -8 19 -5 0 -9 -6 -9 -14z"/>
<path d="M2160 4738 c0 -12 3 -18 7 -14 11 10 12 36 2 36 -5 0 -9 -10 -9 -22z"/>
<path d="M2478 4713 c7 -3 16 -2 19 1 4 3 -2 6 -13 5 -11 0 -14 -3 -6 -6z"/>
<path d="M1841 4694 c0 -11 3 -14 6 -6 3 7 2 16 -1 19 -3 4 -6 -2 -5 -13z"/>
<path d="M2200 4650 c34 -11 60 -11 35 0 -11 5 -29 8 -40 8 -16 0 -15 -2 5 -8z"/>
<path d="M2188 4633 c7 -3 16 -2 19 1 4 3 -2 6 -13 5 -11 0 -14 -3 -6 -6z"/>
<path d="M3450 4719 c0 -5 5 -7 10 -4 6 3 10 8 10 11 0 2 -4 4 -10 4 -5 0 -10
-5 -10 -11z"/>
<path d="M3460 4691 c0 -6 5 -11 10 -11 6 0 10 -8 10 -17 0 -15 2 -16 10 -3 5
8 9 22 9 30 0 11 -2 11 -6 2 -4 -10 -8 -10 -19 -1 -10 8 -14 8 -14 0z"/>
<path d="M4420 4815 c0 -15 4 -24 10 -20 6 3 10 12 10 20 0 8 -4 17 -10 20 -6
4 -10 -5 -10 -20z"/>
<path d="M5538 4513 c7 -3 16 -2 19 1 4 3 -2 6 -13 5 -11 0 -14 -3 -6 -6z"/>
<path d="M8172 4401 c-16 -9 11 -35 48 -46 22 -6 23 -5 10 6 -8 8 -22 22 -30
31 -9 10 -20 14 -28 9z"/>
<path d="M8241 4324 c0 -11 3 -14 6 -6 3 7 2 16 -1 19 -3 4 -6 -2 -5 -13z"/>
<path d="M8357 4210 c-3 -11 -1 -20 4 -20 5 0 9 9 9 20 0 11 -2 20 -4 20 -2 0
-6 -9 -9 -20z"/>
<path d="M4850 4549 c0 -5 15 -10 33 -10 17 -1 44 -2 59 -3 15 -1 30 4 33 11
3 11 -10 13 -60 12 -36 -1 -65 -6 -65 -10z"/>
<path d="M4990 4545 c0 -12 5 -13 18 -7 9 5 23 7 31 4 8 -3 11 0 7 7 -11 17
-56 14 -56 -4z"/>
<path d="M5460 4491 c0 -5 5 -13 10 -16 6 -3 10 -2 10 4 0 5 -4 13 -10 16 -5
3 -10 2 -10 -4z"/>
<path d="M3528 4403 c6 -2 18 -2 25 0 6 3 1 5 -13 5 -14 0 -19 -2 -12 -5z"/>
<path d="M3630 4385 c14 -7 27 -11 30 -9 6 7 -22 24 -40 23 -9 0 -5 -6 10 -14z"/>
<path d="M5947 4275 c19 -25 56 -32 83 -15 12 8 9 10 -11 10 -15 0 -32 7 -39
15 -7 8 -21 15 -32 15 -18 0 -18 -1 -1 -25z"/>
<path d="M2670 4260 c0 -5 7 -10 16 -10 8 0 12 5 9 10 -3 6 -10 10 -16 10 -5
0 -9 -4 -9 -10z"/>
<path d="M2569 4232 c-44 -11 -65 -21 -62 -29 5 -14 5 -14 -54 -16 -23 0 -40
-4 -37 -9 3 -4 -7 -10 -21 -14 -13 -3 -23 -10 -20 -14 3 -5 -3 -13 -12 -19
-10 -6 -14 -11 -8 -11 5 0 -8 -16 -30 -36 -38 -34 -39 -35 -8 -20 17 9 40 27
51 41 11 14 29 25 40 25 12 0 43 13 69 28 26 16 66 35 88 44 58 23 102 48 85
47 -8 0 -45 -8 -81 -17z"/>
<path d="M2745 4242 c-16 -11 -47 -63 -42 -69 3 -2 10 5 17 16 6 12 15 19 19
16 5 -2 11 6 13 20 3 14 5 25 4 25 0 0 -6 -4 -11 -8z"/>
<path d="M2626 4191 c-4 -5 3 -7 14 -4 23 6 26 13 6 13 -8 0 -17 -4 -20 -9z"/>
<path d="M2000 4105 c0 -15 26 -32 36 -23 2 3 2 13 -2 22 -8 20 -34 21 -34 1z"/>
<path d="M2493 4073 c9 -2 25 -2 35 0 9 3 1 5 -18 5 -19 0 -27 -2 -17 -5z"/>
<path d="M2031 4024 c0 -11 3 -14 6 -6 3 7 2 16 -1 19 -3 4 -6 -2 -5 -13z"/>
<path d="M2061 3884 c0 -11 3 -14 6 -6 3 7 2 16 -1 19 -3 4 -6 -2 -5 -13z"/>
<path d="M2071 3834 c0 -11 3 -14 6 -6 3 7 2 16 -1 19 -3 4 -6 -2 -5 -13z"/>
<path d="M2905 3475 c-33 -24 -73 -52 -90 -61 -28 -16 -29 -16 -16 0 12 14 5
13 -33 -6 l-49 -23 32 -3 c25 -3 49 7 99 40 103 66 146 98 131 97 -8 0 -41
-20 -74 -44z"/>
<path d="M3028 3513 c6 -2 18 -2 25 0 6 3 1 5 -13 5 -14 0 -19 -2 -12 -5z"/>
<path d="M4623 3047 c-2 -4 3 -10 11 -13 19 -7 71 4 62 13 -9 9 -67 9 -73 0z"/>
<path d="M4448 3033 c6 -2 18 -2 25 0 6 3 1 5 -13 5 -14 0 -19 -2 -12 -5z"/>
<path d="M4479 4144 c-10 -12 -10 -22 -2 -44 8 -22 7 -31 -5 -44 -24 -24 -5
-70 30 -74 56 -7 91 45 54 80 -11 11 -11 16 1 35 31 46 -42 91 -78 47z m66
-14 c8 -26 -1 -40 -26 -40 -22 0 -34 22 -25 45 8 22 44 18 51 -5z m-12 -75
c22 -16 19 -43 -5 -58 -33 -21 -65 32 -36 61 15 15 19 15 41 -3z"/>
<path d="M3726 3933 c4 -10 7 -28 7 -40 -1 -13 3 -21 7 -18 4 3 8 21 8 40 0
25 -5 35 -15 35 -11 0 -13 -5 -7 -17z"/>
<path d="M3630 3789 c-24 -10 -24 -11 -6 -25 11 -8 22 -10 25 -6 3 5 14 11 24
15 9 3 17 11 17 17 0 12 -27 12 -60 -1z"/>
<path d="M3705 3670 c-4 -6 -3 -16 3 -22 13 -13 23 4 13 21 -7 10 -10 10 -16
1z"/>
<path d="M3778 3648 c9 -9 15 -9 24 0 9 9 7 12 -12 12 -19 0 -21 -3 -12 -12z"/>
<path d="M8996 3544 c-8 -22 -5 -24 22 -17 12 3 22 12 22 19 0 20 -37 17 -44
-2z"/>
<path d="M7039 3325 c-5 -12 -123 -55 -300 -109 l-136 -41 161 0 c88 0 182 -3
207 -7 l47 -7 -11 36 c-9 28 -9 37 1 41 16 5 45 68 40 84 -3 7 -7 9 -9 3z"/>
<path d="M6550 3300 c8 -5 24 -10 34 -10 26 0 18 6 -19 14 -22 5 -26 4 -15 -4z"/>
<path d="M6625 3280 c11 -5 29 -8 40 -8 16 0 15 2 -5 8 -34 11 -60 11 -35 0z"/>
<path d="M6698 3263 c7 -3 16 -2 19 1 4 3 -2 6 -13 5 -11 0 -14 -3 -6 -6z"/>
<path d="M7868 3143 c7 -3 16 -2 19 1 4 3 -2 6 -13 5 -11 0 -14 -3 -6 -6z"/>
<path d="M7643 3123 c9 -2 23 -2 30 0 6 3 -1 5 -18 5 -16 0 -22 -2 -12 -5z"/>
<path d="M7760 3073 c0 -10 4 -14 8 -8 4 6 11 13 16 18 5 4 2 7 -7 7 -10 0
-17 -8 -17 -17z"/>
<path d="M1096 2772 c-10 -16 46 -102 67 -102 10 0 22 10 27 23 6 17 4 26 -12
40 -11 9 -27 17 -36 17 -8 0 -20 7 -27 17 -8 10 -14 12 -19 5z"/>
<path d="M8351 2339 c-7 -12 -10 -23 -8 -26 3 -3 11 5 17 17 15 28 8 35 -9 9z"/>
<path d="M7418 2168 c6 -6 18 -8 28 -6 14 3 12 5 -9 10 -19 3 -25 2 -19 -4z"/>
<path d="M7478 2153 c6 -2 18 -2 25 0 6 3 1 5 -13 5 -14 0 -19 -2 -12 -5z"/>
<path d="M7528 2143 c6 -2 18 -2 25 0 6 3 1 5 -13 5 -14 0 -19 -2 -12 -5z"/>
<path d="M7578 2123 c7 -3 16 -2 19 1 4 3 -2 6 -13 5 -11 0 -14 -3 -6 -6z"/>
<path d="M7650 2121 c-34 -6 -32 -7 35 -23 123 -30 142 -32 142 -14 0 9 -10
19 -21 21 -75 17 -112 24 -116 23 -3 0 -21 -3 -40 -7z"/>
<path d="M3478 2293 c7 -3 16 -2 19 1 4 3 -2 6 -13 5 -11 0 -14 -3 -6 -6z"/>
<path d="M3818 2203 c6 -2 18 -2 25 0 6 3 1 5 -13 5 -14 0 -19 -2 -12 -5z"/>
<path d="M3700 1690 c0 -5 7 -7 15 -4 8 4 15 8 15 10 0 2 -7 4 -15 4 -8 0 -15
-4 -15 -10z"/>
<path d="M3645 1652 c-16 -15 -50 -43 -75 -61 -25 -19 -49 -39 -55 -46 -5 -6
-27 -24 -47 -39 -39 -29 -50 -56 -23 -56 9 0 20 11 25 25 5 13 27 35 49 49 21
14 41 30 43 36 1 5 14 12 27 15 13 2 26 7 30 11 3 4 -2 4 -12 1 -10 -4 -2 9
19 28 20 19 41 32 47 28 6 -3 7 -1 3 5 -4 7 -2 12 3 12 6 0 11 5 11 10 0 17
-13 11 -45 -18z"/>
<path d="M3495 1490 c-3 -5 -1 -10 4 -10 6 0 11 5 11 10 0 6 -2 10 -4 10 -3 0
-8 -4 -11 -10z"/>
<path d="M972 1420 c-18 -4 -36 -10 -39 -14 -13 -12 46 -5 73 9 31 16 19 18
-34 5z"/>
<path d="M212 6983 c2 -10 10 -17 16 -15 7 1 12 -2 12 -8 0 -5 18 -10 40 -10
22 0 40 -4 40 -9 0 -6 -9 -8 -20 -6 -11 2 -20 0 -20 -5 0 -6 28 -8 63 -5 34 2
54 2 45 -1 -22 -7 -24 -24 -3 -24 8 0 15 -4 15 -9 0 -5 7 -11 15 -15 20 -7 43
33 25 44 -9 6 -9 9 1 12 8 3 14 18 14 36 l0 32 -123 0 c-112 0 -123 -2 -120
-17z"/>
<path d="M2468 6993 c7 -3 16 -2 19 1 4 3 -2 6 -13 5 -11 0 -14 -3 -6 -6z"/>
<path d="M3753 6993 c9 -2 23 -2 30 0 6 3 -1 5 -18 5 -16 0 -22 -2 -12 -5z"/>
<path d="M4217 6994 c-4 -4 -7 -17 -7 -28 1 -19 1 -20 11 -3 11 19 8 43 -4 31z"/>
<path d="M9016 6968 c-3 -18 -10 -69 -16 -113 -6 -44 -12 -91 -14 -105 -2 -14
-10 -79 -16 -145 -7 -66 -19 -132 -26 -147 -8 -15 -14 -33 -13 -40 0 -7 4 -4
9 7 7 16 9 13 8 -15 0 -38 -14 -143 -17 -122 -2 24 -21 11 -21 -15 0 -22 2
-25 10 -13 12 19 13 -26 1 -87 l-8 -43 50 0 c43 0 48 -2 37 -15 -7 -9 -19 -14
-27 -11 -7 3 -13 -1 -13 -10 0 -10 6 -14 15 -10 8 3 35 -4 61 -15 29 -13 57
-19 75 -15 15 3 31 1 34 -4 3 -5 18 -7 34 -4 30 6 101 -19 101 -35 0 -6 11
-11 25 -11 25 0 25 1 25 80 l0 80 -182 0 c-101 0 -189 4 -196 8 -10 7 -6 63
18 278 37 326 67 540 70 499 2 -22 4 -25 7 -10 3 11 9 24 14 30 17 17 9 35
-16 35 -20 0 -25 -6 -29 -32z"/>
<path d="M3950 6978 c63 -5 123 -14 134 -19 11 -6 16 -7 12 -1 -3 6 1 13 10
16 12 5 15 2 10 -11 -6 -15 -4 -15 14 2 11 10 20 19 20 21 0 1 -71 2 -157 2
l-158 -1 115 -9z"/>
<path d="M4168 6973 c6 -2 18 -2 25 0 6 3 1 5 -13 5 -14 0 -19 -2 -12 -5z"/>
<path d="M4240 6970 c0 -5 19 -10 43 -10 31 0 38 3 27 10 -20 13 -70 13 -70 0z"/>
<path d="M4346 6965 c4 -9 13 -14 20 -11 8 3 11 0 7 -10 -3 -7 0 -14 6 -14 6
0 10 6 9 13 -3 14 -34 14 452 -8 346 -16 418 -26 469 -66 13 -11 20 -19 16
-19 -4 0 -2 -6 4 -13 10 -13 11 -36 10 -201 0 -68 9 -116 21 -116 5 0 11 -10
13 -22 2 -13 5 1 6 30 2 77 12 92 66 92 42 0 44 1 49 33 3 17 10 68 16 112 7
44 18 94 26 112 8 17 14 34 14 37 0 3 -31 6 -69 6 -60 0 -69 -2 -74 -20 -3
-11 -10 -20 -15 -20 -6 0 -8 10 -4 23 5 20 4 21 -11 8 -15 -11 -17 -11 -17 1
0 13 -34 16 -207 21 -115 4 -289 11 -388 16 -99 6 -231 13 -293 16 -62 2 -118
7 -123 10 -5 3 -6 -1 -3 -10z"/>
<path d="M8992 6955 c0 -16 2 -22 5 -12 2 9 2 23 0 30 -3 6 -5 -1 -5 -18z"/>
<path d="M9272 6968 c-16 -20 -30 -84 -22 -98 10 -16 40 -6 39 12 0 10 -2 10
-6 1 -8 -21 -23 -15 -23 10 0 34 24 72 43 69 9 -2 17 2 17 8 0 14 -35 13 -48
-2z"/>
<path d="M4140 6945 c-7 -9 -8 -15 -2 -15 5 0 12 7 16 15 3 8 4 15 2 15 -2 0
-9 -7 -16 -15z"/>
<path d="M8971 6944 c0 -11 3 -14 6 -6 3 7 2 16 -1 19 -3 4 -6 -2 -5 -13z"/>
<path d="M7747 6934 c-10 -10 -242 -34 -365 -38 -62 -2 -116 -7 -120 -11 -4
-5 2 -5 13 -1 11 4 16 3 11 -1 -4 -4 -35 -13 -69 -20 -34 -6 -85 -17 -113 -23
-29 -6 -92 -16 -140 -23 l-89 -13 -7 -95 c-3 -51 -5 -95 -3 -97 2 -2 13 1 24
8 19 9 21 20 21 93 l0 83 238 33 c130 18 254 35 275 38 24 4 37 2 37 -6 0 -6
-9 -11 -19 -11 -20 0 -20 -2 -5 -65 l7 -30 8 25 c9 26 3 -333 -7 -516 l-6
-101 -147 -7 c-169 -8 -153 -8 -256 -4 -68 3 -189 -7 -129 -11 11 0 24 -4 28
-8 4 -4 19 -9 34 -10 248 -20 510 -23 524 -5 6 6 16 12 22 12 6 0 27 5 46 10
34 9 37 13 49 72 7 35 19 88 26 118 7 30 18 83 25 118 6 35 29 125 51 200 22
75 42 164 45 197 3 33 7 62 9 65 6 9 -11 31 -18 24z"/>
<path d="M9317 6933 c-9 -9 -9 -63 1 -63 4 0 7 16 8 35 1 38 0 38 -9 28z"/>
<path d="M4200 6920 c0 -5 5 -10 11 -10 5 0 7 5 4 10 -3 6 -8 10 -11 10 -2 0
-4 -4 -4 -10z"/>
<path d="M460 6914 c0 -3 7 -12 15 -20 16 -17 18 -14 9 10 -6 15 -24 23 -24
10z"/>
<path d="M4390 6901 c0 -5 5 -13 10 -16 6 -3 10 -2 10 4 0 5 -4 13 -10 16 -5
3 -10 2 -10 -4z"/>
<path d="M8982 6845 c0 -16 2 -22 5 -12 2 9 2 23 0 30 -3 6 -5 -1 -5 -18z"/>
<path d="M492 6840 c0 -14 2 -19 5 -12 2 6 2 18 0 25 -3 6 -5 1 -5 -13z"/>
<path d="M6606 6763 c-3 -16 -11 -80 -16 -143 -6 -63 -15 -158 -21 -210 -5
-52 -18 -180 -29 -285 -11 -104 -31 -292 -45 -417 -29 -265 -27 -238 -16 -238
11 0 17 35 36 225 8 83 17 166 20 185 3 19 12 100 20 180 8 80 28 276 45 435
16 160 30 291 30 293 0 1 -4 2 -9 2 -5 0 -12 -12 -15 -27z"/>
<path d="M1320 6699 c0 -14 4 -29 9 -34 5 -6 15 -57 20 -115 6 -58 14 -121 17
-140 l5 -35 127 -3 c70 -2 227 -6 350 -10 228 -7 246 -7 237 8 -3 5 -115 10
-248 11 -133 1 -260 3 -282 5 -22 1 -70 3 -106 3 l-66 1 -1 48 c0 26 -3 86 -5
135 l-5 87 51 0 c77 0 621 -22 626 -26 2 -2 7 -38 11 -81 l7 -78 3 83 c2 45 4
95 5 111 l2 28 -156 6 c-86 4 -256 10 -378 14 l-223 6 0 -24z"/>
<path d="M2190 6670 c0 -15 4 -30 10 -36 5 -5 12 -69 16 -142 7 -124 8 -132
28 -134 12 -1 57 -2 101 -3 44 -1 191 -5 326 -10 l245 -8 -2 162 c-1 90 -4
164 -6 166 -2 1 -164 9 -361 16 l-357 14 0 -25z m535 -57 c88 -3 154 -8 146
-11 -10 -3 -10 -6 -1 -12 10 -6 32 -217 24 -229 -2 -2 -149 0 -327 4 l-324 7
1 67 c0 36 -3 95 -6 130 l-7 64 167 -7 c92 -3 239 -9 327 -13z"/>
<path d="M6370 6674 c-91 -13 -166 -23 -167 -24 -9 -1 -1 -70 7 -70 6 0 10
-12 10 -27 0 -16 5 -35 10 -43 7 -11 10 -6 10 22 0 20 5 40 10 43 13 8 13 -18
-1 -146 -5 -57 -15 -107 -22 -111 -27 -17 11 -20 152 -13 184 9 206 28 29 25
-147 -3 -156 -2 -142 8 15 10 27 43 25 67 -2 17 0 17 8 5 9 -13 12 -13 28 3
14 14 14 17 3 17 -13 0 -13 2 0 10 10 6 11 10 3 10 -7 0 -13 4 -13 10 0 5 7 7
15 4 18 -7 20 12 3 19 -10 4 -10 8 2 16 8 5 18 7 24 4 5 -3 6 -1 2 5 -3 5 0
13 6 16 7 3 1 4 -14 1 -16 -3 -28 -1 -28 5 0 5 7 10 15 10 8 0 15 7 15 15 0 9
9 15 25 15 14 0 25 5 25 10 0 6 11 8 25 4 18 -4 32 -1 46 12 17 16 22 16 30 4
8 -11 12 -12 16 -2 2 6 11 12 19 12 8 0 14 10 14 23 0 12 3 32 6 45 8 27 19
27 -196 -4z"/>
<path d="M5520 6662 c0 -12 -1 -24 -2 -27 -10 -31 -15 -110 -10 -150 5 -46 7
-48 13 -20 4 17 7 59 8 96 0 36 5 69 10 75 6 5 4 16 -5 28 -14 19 -14 19 -14
-2z"/>
<path d="M3037 6498 c3 -90 6 -164 7 -165 0 -1 107 -6 236 -12 129 -6 280 -13
335 -17 64 -3 96 -2 90 4 -5 5 -149 14 -318 21 -170 6 -312 13 -318 16 -5 4
-9 63 -9 132 l0 126 133 -6 c72 -4 212 -10 310 -13 97 -4 178 -10 178 -13 1
-3 5 -60 9 -126 l6 -120 2 123 c1 73 6 122 12 122 6 0 10 14 10 30 0 26 -4 30
-27 30 -16 0 -154 7 -308 15 -154 8 -297 15 -317 15 l-37 0 6 -162z"/>
<path d="M5990 6624 c-52 -7 -105 -13 -117 -13 -18 -1 -23 -7 -23 -28 0 -33
19 -65 27 -45 2 6 11 12 18 12 13 0 12 -52 -4 -203 -4 -37 -5 -69 -2 -70 3 -2
56 1 117 6 l111 9 2 71 c1 61 9 143 25 255 4 26 -6 26 -154 6z m54 -100 c8 -3
12 -12 9 -20 -6 -16 22 -20 32 -4 4 6 11 8 16 5 13 -8 11 -102 -2 -110 -6 -4
-9 -24 -6 -45 l4 -38 -89 -7 c-96 -7 -115 -2 -83 22 15 12 17 17 6 20 -9 4
-10 8 -2 12 5 4 11 22 12 41 4 53 59 153 59 106 0 -8 -4 -17 -9 -20 -15 -9 0
-46 18 -45 10 0 11 2 4 6 -15 6 -17 43 -3 43 6 0 10 9 10 20 0 22 1 23 24 14z"/>
<path d="M6050 6460 c0 -5 7 -10 16 -10 8 0 12 5 9 10 -3 6 -10 10 -16 10 -5
0 -9 -4 -9 -10z"/>
<path d="M3832 6460 c2 -101 7 -165 13 -166 6 0 116 -4 245 -8 129 -4 268 -9
308 -12 39 -2 72 0 72 5 0 4 -84 11 -187 15 -104 3 -243 9 -310 13 l-123 6 0
129 0 130 68 -6 c37 -3 155 -8 262 -11 107 -3 212 -8 233 -11 33 -5 37 -8 32
-31 -2 -14 0 -34 6 -44 5 -11 6 -19 1 -19 -13 0 -11 -34 2 -42 8 -6 7 -11 -2
-17 -16 -10 -12 -83 4 -88 8 -3 12 31 13 114 1 65 6 119 11 121 6 2 10 17 10
33 l0 29 -72 1 c-40 0 -189 6 -331 12 l-258 12 3 -165z"/>
<path d="M5670 6583 c-52 -8 -98 -20 -102 -26 -15 -23 -3 -42 25 -40 26 2 27
0 23 -30 -3 -18 -8 -71 -12 -119 l-6 -88 90 0 89 0 6 68 c4 37 9 109 13 160 8
106 22 98 -126 75z m34 -228 c-7 -18 12 -20 19 -2 8 18 27 -12 19 -31 -3 -10
-1 -13 6 -8 7 4 12 2 12 -3 0 -7 -27 -11 -70 -11 -38 0 -70 3 -70 6 0 3 5 15
11 26 11 21 12 21 25 3 13 -18 14 -18 14 6 0 17 3 20 9 11 7 -11 9 -11 14 2 4
9 9 16 11 16 3 0 3 -7 0 -15z"/>
<path d="M6864 6455 c0 -82 2 -115 3 -72 2 43 2 110 0 150 -1 40 -3 5 -3 -78z"/>
<path d="M4590 6433 l0 -161 218 -6 c119 -3 254 -8 300 -11 45 -3 82 -1 82 4
0 5 -111 12 -247 15 -203 5 -322 11 -340 15 -2 1 -3 52 -3 115 0 128 3 134 65
131 22 -1 130 -5 240 -9 110 -4 219 -9 243 -13 41 -5 42 -6 44 -47 l1 -41 4
40 c3 22 11 44 19 48 8 4 14 18 14 31 0 26 51 21 -477 42 l-163 7 0 -160z"/>
<path d="M6425 6530 c-16 -7 -17 -9 -3 -9 9 -1 20 4 23 9 7 11 7 11 -20 0z"/>
<path d="M6517 6455 c-4 -8 -2 -17 3 -20 6 -4 10 3 10 14 0 25 -6 27 -13 6z"/>
<path d="M6480 6444 c0 -8 5 -12 10 -9 6 4 8 11 5 16 -9 14 -15 11 -15 -7z"/>
<path d="M2072 6415 c0 -16 2 -22 5 -12 2 9 2 23 0 30 -3 6 -5 -1 -5 -18z"/>
<path d="M6510 6406 c0 -8 5 -18 10 -21 6 -3 10 1 10 9 0 8 -4 18 -10 21 -5 3
-10 -1 -10 -9z"/>
<path d="M8920 6350 c0 -11 2 -20 4 -20 2 0 6 9 9 20 3 11 1 20 -4 20 -5 0 -9
-9 -9 -20z"/>
<path d="M5182 6310 c0 -19 2 -27 5 -17 2 9 2 25 0 35 -3 9 -5 1 -5 -18z"/>
<path d="M6232 6190 c0 -14 2 -19 5 -12 2 6 2 18 0 25 -3 6 -5 1 -5 -13z"/>
<path d="M1341 6184 c0 -11 3 -14 6 -6 3 7 2 16 -1 19 -3 4 -6 -2 -5 -13z"/>
<path d="M48 6103 c6 -2 18 -2 25 0 6 3 1 5 -13 5 -14 0 -19 -2 -12 -5z"/>
<path d="M6222 6070 c0 -19 2 -27 5 -17 2 9 2 25 0 35 -3 9 -5 1 -5 -18z"/>
<path d="M2578 6053 c6 -2 18 -2 25 0 6 3 1 5 -13 5 -14 0 -19 -2 -12 -5z"/>
<path d="M5871 6034 c0 -11 3 -14 6 -6 3 7 2 16 -1 19 -3 4 -6 -2 -5 -13z"/>
<path d="M73 5993 c9 -2 25 -2 35 0 9 3 1 5 -18 5 -19 0 -27 -2 -17 -5z"/>
<path d="M38 5973 c6 -2 18 -2 25 0 6 3 1 5 -13 5 -14 0 -19 -2 -12 -5z"/>
<path d="M9303 5946 c-13 -15 -7 -26 14 -26 7 0 13 9 13 20 0 23 -10 25 -27 6z"/>
<path d="M1372 5930 c0 -14 2 -19 5 -12 2 6 2 18 0 25 -3 6 -5 1 -5 -13z"/>
<path d="M43 5933 c9 -2 23 -2 30 0 6 3 -1 5 -18 5 -16 0 -22 -2 -12 -5z"/>
<path d="M2700 5907 c0 -16 4 -26 10 -22 6 3 10 1 10 -6 0 -7 2 -10 5 -7 3 3
-1 18 -10 34 l-15 29 0 -28z"/>
<path d="M5862 5910 c0 -14 2 -19 5 -12 2 6 2 18 0 25 -3 6 -5 1 -5 -13z"/>
<path d="M2140 5894 c0 -16 4 -35 9 -43 6 -10 8 -2 6 23 -4 46 -15 61 -15 20z"/>
<path d="M2660 5875 c0 -8 4 -15 10 -15 5 0 7 7 4 15 -4 8 -8 15 -10 15 -2 0
-4 -7 -4 -15z"/>
<path d="M9295 5860 c-18 -8 -17 -9 8 -9 15 -1 27 4 27 9 0 12 -8 12 -35 0z"/>
<path d="M1780 5856 c0 -2 7 -7 16 -10 8 -3 12 -2 9 4 -6 10 -25 14 -25 6z"/>
<path d="M1885 5850 c3 -5 8 -10 11 -10 2 0 4 5 4 10 0 6 -5 10 -11 10 -5 0
-7 -4 -4 -10z"/>
<path d="M3051 5844 c0 -11 3 -14 6 -6 3 7 2 16 -1 19 -3 4 -6 -2 -5 -13z"/>
<path d="M2241 5814 c0 -11 3 -14 6 -6 3 7 2 16 -1 19 -3 4 -6 -2 -5 -13z"/>
<path d="M1403 5795 c0 -8 9 -15 19 -15 22 0 24 16 2 24 -21 8 -21 8 -21 -9z"/>
<path d="M2228 5783 c7 -3 16 -2 19 1 4 3 -2 6 -13 5 -11 0 -14 -3 -6 -6z"/>
<path d="M4814 5751 c-32 -15 -42 -26 -47 -51 -5 -20 -11 -29 -19 -24 -8 5 -9
2 -5 -10 4 -10 7 -22 7 -27 0 -5 7 -9 16 -9 11 0 15 8 14 28 -3 43 -1 54 10
47 6 -3 7 1 4 9 -6 16 19 30 81 46 28 7 28 8 5 9 -14 0 -43 -8 -66 -18z"/>
<path d="M5628 5743 c7 -3 16 -2 19 1 4 3 -2 6 -13 5 -11 0 -14 -3 -6 -6z"/>
<path d="M5560 5729 c0 -5 5 -7 10 -4 6 3 10 8 10 11 0 2 -4 4 -10 4 -5 0 -10
-5 -10 -11z"/>
<path d="M5665 5720 c3 -5 13 -10 21 -10 8 0 14 5 14 10 0 6 -9 10 -21 10 -11
0 -17 -4 -14 -10z"/>
<path d="M5173 5713 c3 -5 -26 -7 -64 -5 -58 3 -69 1 -69 -12 0 -9 -8 -16 -17
-16 -15 0 -15 -1 1 -13 14 -10 17 -21 11 -45 -3 -18 -11 -30 -16 -26 -5 3 -7
14 -4 23 3 11 -2 24 -11 32 -16 13 -17 11 -11 -17 4 -20 1 -38 -8 -50 -11 -16
-12 -12 -8 31 3 28 11 53 17 57 6 4 -32 8 -85 8 l-97 0 -7 -27 c-4 -18 -2 -31
8 -38 15 -11 12 -35 -4 -35 -6 0 -8 4 -4 9 12 21 -15 20 -30 -1 -10 -13 -19
-18 -21 -12 -5 12 -51 7 -60 -7 -3 -5 3 -9 13 -10 13 -1 11 -3 -7 -9 -23 -7
-22 -8 10 -9 19 -1 50 3 68 8 20 6 30 6 27 0 -4 -5 -12 -9 -18 -9 -7 0 -13
-12 -14 -27 -1 -16 1 -21 4 -13 3 8 11 18 17 22 15 10 331 0 381 -12 60 -14
65 -13 65 19 0 15 11 45 25 65 28 41 35 77 11 57 -11 -9 -15 -7 -19 10 -3 12
-10 18 -16 14 -6 -3 -9 -11 -6 -16 4 -5 1 -9 -4 -9 -6 0 -11 5 -11 10 0 6 -7
10 -15 10 -12 0 -13 4 -6 19 8 15 7 20 -5 25 -21 8 -26 8 -21 -1z m-8 -43 c3
-5 -1 -10 -9 -10 -12 0 -16 -11 -16 -49 0 -46 -2 -49 -28 -53 -46 -7 -52 0
-52 57 l0 54 38 4 c20 2 42 4 49 5 6 1 15 -2 18 -8z m33 -48 c5 -17 -27 -27
-41 -13 -9 9 -8 14 3 21 18 11 32 8 38 -8z m-308 -22 c18 -12 2 -12 -25 0 -13
6 -15 9 -5 9 8 0 22 -4 30 -9z"/>
<path d="M5620 5710 c0 -5 5 -12 10 -15 6 -3 10 -1 10 5 0 6 6 8 13 4 6 -4 8
-3 4 1 -10 12 -37 15 -37 5z"/>
<path d="M5810 5691 c0 -25 6 -27 13 -6 4 8 2 17 -3 20 -6 4 -10 -3 -10 -14z"/>
<path d="M5715 5670 c-14 -27 -14 -31 0 -36 16 -7 19 -31 8 -61 -6 -16 -8 -15
-13 6 -3 14 -12 27 -19 29 -10 3 -12 0 -8 -11 3 -9 1 -20 -6 -24 -16 -10 26
-21 83 -21 l45 0 -38 11 c-22 7 -37 14 -34 17 11 11 18 90 8 90 -6 0 -8 7 -5
15 11 27 -5 16 -21 -15z"/>
<path d="M5638 5640 c-5 -33 13 -41 38 -16 22 23 17 46 -10 46 -19 0 -25 -6
-28 -30z"/>
<path d="M6103 5638 c-30 -31 -50 -69 -68 -127 -6 -21 -5 -23 11 -16 11 4 53
11 94 14 l75 6 12 50 c14 64 15 88 3 80 -5 -3 -10 -15 -10 -26 0 -31 -25 -22
-35 14 -14 44 -42 46 -82 5z"/>
<path d="M4713 5615 c-3 -9 -3 -19 1 -22 8 -9 37 18 30 28 -8 14 -24 11 -31
-6z"/>
<path d="M5750 5530 c0 -6 17 -10 37 -10 43 0 41 5 -4 13 -19 4 -33 2 -33 -3z"/>
<path d="M4833 5504 c9 -3 17 -9 17 -12 0 -4 9 -13 21 -20 18 -11 23 -11 33 4
14 18 52 13 41 -6 -4 -6 6 -11 22 -11 42 -2 55 1 71 17 11 11 26 13 56 9 47
-8 42 -8 80 -6 54 2 20 11 -60 16 -160 10 -299 14 -281 9z"/>
<path d="M6108 5493 c6 -2 18 -2 25 0 6 3 1 5 -13 5 -14 0 -19 -2 -12 -5z"/>
<path d="M5209 5473 c-13 -15 -12 -15 9 -4 23 12 28 21 13 21 -5 0 -15 -7 -22
-17z"/>
<path d="M5235 5450 c-3 -6 1 -7 9 -4 18 7 21 14 7 14 -6 0 -13 -4 -16 -10z"/>
<path d="M5662 5385 c0 -16 2 -22 5 -12 2 9 2 23 0 30 -3 6 -5 -1 -5 -18z"/>
<path d="M5235 5369 c-4 -6 -5 -13 -2 -16 7 -7 27 6 27 18 0 12 -17 12 -25 -2z"/>
<path d="M6412 5345 c0 -16 2 -22 5 -12 2 9 2 23 0 30 -3 6 -5 -1 -5 -18z"/>
<path d="M6901 5354 c0 -11 3 -14 6 -6 3 7 2 16 -1 19 -3 4 -6 -2 -5 -13z"/>
<path d="M5712 5320 c-7 -12 -17 -18 -21 -15 -5 3 -7 -3 -4 -13 3 -14 11 -18
31 -15 51 8 55 11 38 29 -9 8 -20 13 -26 9 -6 -3 -7 1 -4 9 9 22 1 20 -14 -4z"/>
<path d="M5573 5260 c0 -25 2 -35 4 -22 2 12 2 32 0 45 -2 12 -4 2 -4 -23z"/>
<path d="M5676 5245 c-6 -16 11 -20 32 -6 11 7 10 10 -3 15 -22 8 -22 8 -29
-9z"/>
<path d="M7664 5225 c-10 -8 -14 -15 -8 -15 6 0 17 7 24 15 16 19 9 19 -16 0z"/>
<path d="M4912 4980 c0 -14 2 -19 5 -12 2 6 2 18 0 25 -3 6 -5 1 -5 -13z"/>
<path d="M4795 4979 c-10 -15 -2 -19 24 -12 17 4 19 8 9 14 -18 12 -26 11 -33
-2z"/>
<path d="M8485 4750 c-3 -5 -2 -17 3 -26 8 -15 10 -15 15 0 5 12 3 15 -5 10
-8 -5 -9 -2 -5 9 7 19 2 23 -8 7z"/>
<path d="M8765 4332 c17 -19 565 -200 565 -187 0 6 -37 24 -82 38 -220 70
-455 146 -473 153 -14 5 -17 4 -10 -4z"/>
<path d="M8760 4248 c0 -28 3 -49 6 -45 4 3 19 0 35 -9 34 -17 135 -54 362
-133 l167 -58 0 57 0 57 -59 22 c-114 41 -483 161 -497 161 -10 0 -14 -14 -14
-52z"/>
</g>
</svg>
