<?xml version="1.0" standalone="no"?>
<!DOCTYPE svg PUBLIC "-//W3C//DTD SVG 20010904//EN"
 "http://www.w3.org/TR/2001/REC-SVG-20010904/DTD/svg10.dtd">
<svg version="1.0" xmlns="http://www.w3.org/2000/svg"
 width="712.000000pt" height="534.000000pt" viewBox="0 0 712.000000 534.000000"
 preserveAspectRatio="xMidYMid meet">

<g transform="translate(0.000000,534.000000) scale(0.100000,-0.100000)"
fill="#000000" stroke="none">
<path d="M0 5253 l0 -88 102 0 103 0 9 -57 c13 -90 13 -90 -109 -86 l-105 3 2
-889 3 -889 21 -3 c14 -2 23 3 26 14 7 26 73 55 138 60 30 3 59 11 65 19 8 11
71 14 333 14 178 0 326 -1 329 -4 2 -3 0 -14 -6 -26 -15 -27 -6 -30 64 -20 33
5 105 6 161 2 l101 -6 5 34 c3 19 2 67 -1 107 -4 39 -3 72 0 72 4 0 28 -15 54
-32 l47 -33 5 -90 c2 -49 6 -91 7 -93 2 -2 -3 -24 -11 -50 -14 -49 -9 -121 9
-133 6 -4 19 2 30 13 21 21 21 23 2 146 -3 24 -3 72 1 108 6 54 9 63 21 53 7
-6 11 -15 8 -21 -3 -5 0 -31 7 -59 11 -41 11 -54 0 -72 -14 -22 -14 -22 8 -3
11 11 21 29 21 42 0 27 38 35 143 30 61 -3 67 -1 67 17 0 18 5 19 83 12 116
-10 127 -16 127 -64 0 -22 4 -42 10 -46 5 -3 7 13 3 43 -5 47 -4 50 21 56 24
6 26 10 26 64 -1 65 -14 140 -26 152 -8 8 -35 6 -159 -15 -26 -4 -27 -4 -5 3
l25 8 -27 6 c-16 3 -28 1 -28 -3 0 -5 -8 -9 -17 -9 -15 0 -16 2 -3 10 11 7 7
9 -15 7 l-29 -2 -1 220 c-1 121 -5 381 -9 578 l-9 357 27 0 c16 0 39 9 53 20
17 13 33 18 50 14 24 -6 25 -5 21 32 -3 38 -2 39 31 42 28 3 41 -3 73 -35 61
-58 144 -209 88 -158 -17 16 -20 16 -20 2 0 -8 7 -23 16 -32 9 -8 14 -21 11
-28 -3 -7 1 -27 8 -44 11 -26 18 -31 41 -28 66 7 71 -21 12 -60 -24 -15 -53
-36 -64 -47 -22 -19 -22 -19 -43 3 -11 12 -23 20 -27 17 -5 -5 -4 -379 1 -488
1 -25 3 -111 4 -192 2 -125 5 -148 19 -159 9 -8 14 -9 9 -4 -4 5 7 14 25 19
l33 11 2 109 c1 59 4 111 8 114 3 3 22 12 43 19 39 13 329 22 349 10 5 -3 16
6 24 21 7 15 20 35 27 44 13 16 17 14 43 -24 15 -23 25 -47 21 -53 -3 -5 2 -4
11 4 9 7 17 18 17 23 0 5 11 21 25 36 14 15 25 23 25 19 0 -14 26 17 44 50 9
18 20 34 25 37 12 8 42 -4 36 -13 -2 -4 6 -7 18 -7 18 1 23 -6 28 -41 3 -27 1
-43 -5 -44 -6 0 -31 0 -56 0 -25 1 -52 -3 -60 -9 -13 -8 -12 -10 5 -10 19 0
19 -1 -3 -18 -20 -16 -21 -19 -8 -38 35 -49 121 -51 133 -4 3 11 12 20 19 20
10 0 14 -14 14 -52 0 -63 -3 -67 -58 -100 l-42 -25 40 -13 c43 -14 53 -30 20
-30 -29 0 -82 29 -75 40 4 6 1 10 -4 10 -19 0 -12 23 16 52 33 34 20 60 -15
28 -11 -11 -24 -20 -27 -20 -30 0 -54 -100 -29 -121 11 -9 14 -8 14 3 0 8 5
19 11 25 19 19 59 -13 52 -40 -3 -12 -5 -30 -5 -39 1 -11 -9 -20 -24 -24 -29
-8 -83 34 -110 86 -11 19 -22 37 -26 38 -5 2 -8 19 -8 37 0 39 -20 96 -27 78
-8 -21 -39 -15 -51 10 -6 12 -11 16 -11 10 -1 -7 -8 -13 -16 -13 -8 0 -15 -6
-15 -14 0 -18 27 -29 33 -13 2 7 8 9 12 5 9 -8 -12 -38 -26 -38 -5 0 -18 9
-29 20 -19 19 -47 19 -35 0 3 -4 1 -36 -3 -69 -7 -52 -6 -61 5 -56 8 3 17 5
19 5 3 0 3 4 0 8 -3 5 10 16 29 25 35 16 35 16 35 -6 0 -13 4 -27 8 -32 5 -6
14 -28 20 -50 29 -101 42 -154 42 -168 0 -17 77 -187 84 -187 9 0 85 134 91
161 8 31 45 67 63 61 7 -2 12 3 12 12 0 9 5 16 11 16 5 0 7 -4 4 -10 -15 -25
-13 -48 6 -53 29 -8 34 -34 13 -75 -23 -45 -31 -52 -67 -52 -18 0 -44 -13 -70
-35 -22 -19 -44 -35 -49 -35 -5 0 -6 -11 -2 -24 5 -21 3 -23 -21 -18 -22 4
-26 1 -23 -14 2 -12 12 -19 25 -18 19 0 21 -4 17 -30 -17 -98 -26 -136 -35
-136 -5 0 -9 5 -9 10 0 22 -21 8 -37 -25 -9 -19 -23 -36 -32 -39 -24 -7 57 3
122 16 60 11 77 28 28 28 -35 0 -47 13 -27 29 8 7 17 23 20 37 4 14 10 22 15
19 5 -2 11 2 14 9 3 8 1 17 -6 20 -7 2 -2 5 11 5 16 1 22 7 22 24 0 16 -3 18
-9 8 -7 -10 -12 -11 -27 -1 -18 11 -18 11 0 6 17 -6 17 -5 5 11 -8 9 -9 14 -2
10 7 -4 26 7 46 28 19 19 37 32 40 28 10 -9 9 -25 -1 -19 -4 2 -8 -4 -8 -14 0
-14 3 -16 13 -8 8 7 13 7 13 0 0 -5 -7 -15 -15 -22 -8 -7 -15 -9 -15 -4 0 4
-6 -1 -14 -12 -13 -16 -12 -21 2 -35 15 -15 19 -15 35 -1 15 14 17 13 17 -2 0
-9 -4 -14 -10 -11 -5 3 -10 1 -10 -4 0 -6 4 -11 9 -11 4 0 6 -23 3 -51 l-5
-52 34 7 c19 4 55 10 82 13 26 3 47 10 47 16 0 8 20 11 62 9 47 -2 81 4 133
22 39 14 71 21 73 16 6 -17 -38 -247 -54 -286 -8 -20 -25 -51 -37 -69 l-21
-33 -18 23 c-23 30 -107 73 -156 81 -37 6 -40 9 -56 61 -13 41 -21 52 -29 44
-21 -21 -137 -9 -137 14 0 27 -25 21 -35 -8 -9 -27 -15 -31 -53 -32 -23 -1
-45 2 -48 7 -8 12 -45 30 -43 21 1 -4 1 -23 0 -41 -1 -41 -21 -33 -21 9 0 27
-19 43 -21 17 0 -7 -5 -2 -10 12 -8 20 -12 22 -19 10 -5 -8 -10 -30 -10 -47 0
-29 -3 -33 -25 -33 -14 0 -28 7 -32 15 -5 13 -8 13 -20 -4 -8 -12 -28 -24 -45
-29 -18 -4 -33 -13 -36 -20 -6 -18 28 -27 39 -11 6 9 12 10 16 4 5 -5 18 -10
31 -11 72 -2 77 -4 77 -26 1 -13 4 -40 8 -60 7 -33 6 -37 -9 -31 -14 5 -16 2
-11 -18 6 -27 -14 -58 -52 -78 -18 -10 -20 -15 -10 -27 6 -8 16 -14 22 -14 6
0 19 -7 29 -17 17 -15 18 -15 18 1 0 9 -7 19 -15 22 -11 5 -9 13 12 45 14 21
23 45 19 54 -3 9 1 18 9 21 18 7 20 30 3 37 -7 3 -8 6 -2 6 6 1 9 14 6 30 -6
40 12 71 38 64 11 -3 20 -8 20 -12 0 -18 -33 -117 -43 -130 -10 -11 -32 -65
-40 -95 -1 -4 9 -10 22 -12 18 -3 22 -1 17 12 -5 13 -3 14 7 6 8 -7 26 -8 52
-2 58 14 65 12 65 -11 0 -28 62 -53 114 -45 36 6 38 5 25 -10 -13 -16 -12 -16
8 -6 29 16 66 16 58 0 -4 -7 1 -4 9 6 15 19 16 18 16 -17 0 -41 -3 -43 -40
-23 -21 12 -27 12 -49 -5 -13 -10 -31 -19 -39 -19 -13 0 -13 -3 -4 -12 9 -9
15 -9 24 0 17 17 31 15 24 -3 -3 -9 0 -15 10 -15 11 0 14 5 10 17 -7 18 10 34
30 26 9 -3 9 -10 -1 -30 -15 -29 -33 -43 -55 -43 -13 0 -13 1 0 10 11 7 5 8
-19 5 -19 -2 -46 2 -60 9 -14 7 -32 11 -40 8 -9 -3 -11 0 -6 7 4 7 13 10 20 7
8 -3 15 5 18 19 3 21 0 24 -22 23 -39 -1 -61 -8 -61 -19 0 -14 28 -11 33 4 2
6 8 9 12 4 5 -4 -2 -18 -15 -32 -23 -24 -47 -35 -35 -15 3 6 -1 10 -11 10 -13
0 -14 -3 -5 -14 9 -11 8 -15 -4 -20 -9 -3 -14 -10 -11 -14 3 -5 -12 -14 -34
-21 -21 -6 -42 -15 -45 -20 -3 -5 18 0 46 10 28 11 56 18 62 16 6 -2 -13 -11
-43 -21 -30 -10 -61 -23 -67 -28 -10 -8 -13 -5 -14 8 0 18 -1 18 -9 -1 -6 -15
-9 -16 -9 -4 -1 9 8 24 20 35 20 18 54 74 45 74 -2 0 -14 -16 -26 -35 -12 -19
-28 -35 -36 -35 -10 0 -8 6 7 21 11 11 18 27 15 34 -6 16 45 57 66 54 23 -3
38 1 38 10 0 4 -20 11 -46 15 -37 5 -49 2 -66 -14 -12 -11 -28 -20 -35 -20 -7
0 -13 -4 -13 -10 0 -5 -14 -10 -32 -10 -31 0 -31 1 -12 16 16 13 16 15 2 10
-10 -3 -18 -1 -18 5 0 7 10 9 24 5 19 -5 26 -1 31 14 12 39 -6 39 -66 2 l-60
-37 33 -6 c30 -6 29 -6 -13 -8 -34 -1 -53 -8 -72 -25 -29 -27 -47 -27 -97 -1
-18 9 -34 14 -37 11 -3 -3 11 -12 31 -20 25 -10 36 -21 36 -35 0 -25 -11 -26
-49 -7 -41 21 -56 43 -42 59 8 11 6 18 -10 33 -16 14 -23 16 -26 6 -3 -6 -9
-9 -15 -6 -6 4 1 -13 15 -37 14 -25 39 -50 56 -58 17 -8 31 -18 31 -23 0 -12
-38 -10 -45 2 -4 7 -13 7 -26 0 -11 -6 -17 -15 -14 -21 4 -5 13 -6 24 0 9 5
23 6 30 2 17 -11 -43 -35 -70 -28 -12 3 -31 2 -43 -3 -13 -5 -29 -4 -37 1 -11
7 -10 9 6 9 14 0 16 3 7 12 -9 9 -18 9 -37 0 -14 -7 -35 -12 -47 -12 -12 0
-30 -8 -41 -17 -10 -10 -33 -18 -50 -19 -58 -2 -67 -4 -67 -12 0 -5 13 -7 29
-4 16 2 32 -1 35 -7 9 -14 27 -15 23 -1 -1 5 15 18 36 28 26 14 37 16 37 7 0
-7 -13 -15 -30 -19 -38 -7 -39 -21 -2 -24 21 -1 23 0 12 8 -8 5 -10 10 -4 10
5 0 16 -6 22 -12 10 -10 17 -10 33 0 17 11 34 11 90 0 38 -7 69 -16 69 -20 0
-11 -4 -10 -66 8 -40 11 -58 12 -74 4 -30 -16 -24 -22 18 -15 25 5 33 3 23 -3
-11 -8 -9 -12 9 -22 39 -21 14 -21 -36 0 -38 17 -65 21 -121 18 -40 -2 -73 -7
-73 -12 0 -5 -8 -2 -17 5 -17 13 -17 12 -4 -4 9 -12 23 -17 37 -14 19 3 22 1
14 -13 -7 -13 -5 -20 6 -24 22 -8 115 -6 139 3 11 5 -14 7 -60 5 -56 -2 -71
-1 -50 5 25 7 26 9 8 10 -13 0 -23 5 -23 10 0 20 49 19 110 -4 36 -13 59 -24
51 -24 -11 -1 -10 -5 5 -16 17 -13 16 -13 -13 -3 -26 10 -35 10 -45 -1 -11
-11 -9 -13 10 -8 13 3 20 1 16 -5 -3 -5 0 -9 7 -7 28 3 40 -1 33 -13 -4 -6 -3
-9 2 -5 5 3 18 -1 29 -9 10 -8 15 -14 10 -14 -5 0 6 -16 25 -35 27 -28 31 -37
21 -49 -7 -8 -10 -19 -7 -25 3 -5 1 -11 -4 -13 -6 -2 -22 -34 -35 -71 -31 -85
-31 -145 -1 -306 15 -77 21 -133 16 -146 -5 -13 -3 -33 5 -52 15 -35 18 -59
16 -118 -2 -36 -3 -38 -14 -20 -8 14 -25 21 -52 23 -22 1 -35 -1 -29 -5 14
-10 28 -143 15 -143 -5 0 -12 -10 -14 -23 -2 -12 -5 -3 -6 21 -1 30 -5 42 -16
42 -13 0 -15 -9 -9 -52 4 -29 11 -56 17 -59 16 -11 37 -81 28 -97 -6 -10 -10
-11 -15 -3 -4 6 -14 11 -23 11 -13 0 -15 -9 -11 -43 6 -54 -14 -72 -71 -63
-49 8 -71 -6 -53 -34 19 -31 -8 -54 -53 -47 -22 4 -46 0 -67 -11 -18 -9 -46
-16 -63 -17 -22 0 -33 -7 -43 -27 -7 -16 -17 -28 -22 -28 -15 0 -4 -63 14 -75
9 -7 13 -15 9 -18 -10 -11 22 -8 33 2 5 5 32 11 59 14 28 3 88 17 135 31 71
22 96 26 148 20 50 -5 62 -10 62 -24 0 -42 66 -28 128 28 31 29 42 52 23 52
-5 0 -4 11 2 24 7 13 15 22 19 20 14 -9 9 7 -7 22 -8 9 -19 12 -25 9 -5 -3
-10 -1 -10 6 0 6 -8 18 -17 25 -13 10 -14 13 -4 14 12 0 12 3 0 18 -8 9 -16
31 -18 47 -2 17 -7 35 -13 42 -5 7 -6 18 -2 24 4 8 3 9 -4 5 -11 -7 -18 23
-12 49 7 32 6 95 -2 95 -5 0 -6 5 -2 12 5 7 8 26 9 43 0 16 4 36 8 43 5 6 5
12 1 12 -3 0 4 9 17 20 16 13 18 18 7 14 -15 -5 -16 -1 -11 32 4 27 3 35 -5
30 -7 -4 -12 -2 -12 3 0 6 4 11 9 11 6 0 9 9 8 20 -1 11 -5 20 -10 20 -5 0 -1
7 7 16 12 11 13 20 6 34 -13 24 -13 33 0 25 7 -4 9 3 6 19 -2 13 0 26 6 28 18
6 18 41 0 56 -15 12 -15 13 6 8 23 -5 24 -4 5 16 -17 21 -17 21 1 15 15 -6 17
-3 13 13 -3 11 -2 20 2 20 6 0 29 39 70 122 8 15 21 28 28 28 7 0 13 6 13 13
0 7 9 18 20 25 12 7 18 18 14 25 -4 7 -4 9 1 5 4 -4 22 0 39 10 57 31 87 42
80 30 -5 -7 -2 -8 7 -2 19 12 227 15 235 3 3 -5 10 -7 16 -3 5 3 31 8 56 11
96 8 118 11 152 18 19 4 43 8 52 8 9 1 14 5 12 9 -4 7 63 24 79 20 4 -1 10 5
13 13 7 17 34 21 34 5 0 -5 5 -10 11 -10 5 0 8 4 5 9 -11 18 66 23 94 6 9 -5
11 -4 6 3 -4 7 -2 13 3 13 21 3 26 4 38 12 9 6 11 3 7 -8 -5 -13 0 -12 30 5
21 11 42 17 48 14 6 -4 4 3 -5 17 -21 29 -21 39 -3 39 16 0 29 27 17 35 -13 7
-1 47 12 42 6 -2 24 -28 41 -59 30 -54 93 -127 153 -176 l28 -23 -25 6 c-19 5
-17 1 12 -16 20 -12 41 -32 47 -45 6 -13 15 -24 21 -24 5 0 10 -6 10 -14 0 -8
7 -16 15 -20 19 -7 20 20 1 31 -7 4 -25 27 -40 50 -14 24 -60 75 -101 115 -45
43 -81 88 -90 112 -9 22 -30 60 -46 84 l-30 44 32 49 c27 43 34 48 57 42 20
-5 24 -3 19 10 -9 25 23 53 79 71 49 16 53 16 110 -5 33 -12 73 -36 91 -54 32
-32 32 -32 102 -23 58 7 77 5 103 -8 20 -11 27 -19 19 -23 -7 -5 0 -8 18 -9
43 -1 67 -17 79 -52 6 -16 9 -30 6 -30 -3 0 0 -6 5 -12 50 -60 64 -81 46 -68
-11 8 1 -9 27 -39 26 -30 50 -67 53 -82 4 -15 13 -30 21 -33 8 -3 14 -12 14
-21 0 -8 18 -33 40 -55 l41 -41 -40 20 c-21 11 -41 26 -44 33 -3 9 -11 6 -26
-9 -26 -28 -46 -31 -33 -6 6 11 6 26 1 38 -8 18 -9 18 -5 -3 4 -23 4 -23 -15
-6 -11 10 -19 12 -19 6 0 -7 -9 -12 -19 -12 -11 0 -23 -5 -26 -10 -4 -6 -11
-8 -16 -5 -5 4 -9 1 -9 -6 0 -6 -8 -18 -17 -25 -15 -11 -15 -13 -3 -13 8 0 24
6 34 14 11 8 28 15 38 15 27 0 22 -27 -7 -34 -14 -4 -25 -11 -25 -16 0 -6 -6
-10 -14 -10 -24 0 -86 -88 -110 -156 -13 -36 -30 -70 -37 -75 -22 -14 9 -30
54 -27 25 2 41 -3 47 -12 8 -12 10 -10 10 8 0 19 3 21 18 13 11 -6 24 -6 35 0
9 6 21 8 26 5 9 -6 29 13 29 27 0 5 3 12 7 15 4 4 5 0 3 -8 -2 -11 4 -14 22
-13 20 2 21 1 7 -5 -25 -10 -23 -22 5 -36 15 -8 25 -9 30 -2 4 5 12 -2 19 -18
11 -23 17 -27 38 -21 42 10 111 12 111 2 0 -4 14 1 30 13 17 12 30 28 30 36 0
8 5 14 11 14 5 0 7 -4 4 -10 -3 -5 -1 -10 4 -10 6 0 11 15 11 33 l1 32 15 -25
c15 -25 15 -25 8 -1 -4 14 -2 21 4 18 8 -6 10 27 2 43 -6 13 -4 36 4 48 4 6 5
12 1 12 -4 0 -2 7 5 15 10 12 16 13 27 4 11 -10 11 -14 1 -21 -10 -8 -10 -9 1
-6 15 4 22 66 9 74 -9 6 2 34 13 34 5 0 8 -5 6 -12 -1 -6 9 -14 22 -17 14 -4
27 -13 29 -20 3 -8 0 -11 -7 -7 -7 5 -11 -1 -11 -16 1 -20 2 -21 11 -5 13 22
36 22 51 -2 6 -10 17 -17 24 -14 7 2 17 -4 23 -15 8 -15 7 -23 -4 -32 -19 -16
-19 -30 0 -30 9 0 27 -11 40 -25 16 -18 25 -22 28 -13 3 8 6 6 6 -5 1 -10 5
-15 11 -12 11 7 53 -19 45 -27 -3 -2 6 -11 20 -18 14 -7 25 -20 25 -27 0 -8 4
-12 9 -8 6 3 15 -4 22 -16 10 -19 9 -21 -5 -16 -12 5 -16 0 -15 -21 0 -24 1
-25 9 -7 8 18 9 17 9 -7 1 -16 6 -28 12 -28 6 0 8 -8 4 -19 -4 -14 0 -21 15
-26 17 -6 25 -22 21 -47 0 -4 6 -4 15 -1 14 5 14 2 -2 -22 l-18 -28 22 12 c21
11 22 10 22 -21 0 -36 26 -67 50 -60 12 3 12 2 2 -6 -8 -5 -13 -12 -13 -16 3
-19 -1 -18 -12 3 -13 27 -39 41 -35 19 2 -7 10 -18 18 -25 17 -13 20 -35 7
-44 -12 -8 -17 -60 -5 -53 5 3 7 12 4 19 -2 7 2 16 11 19 8 4 13 13 10 20 -3
8 0 16 6 19 8 3 12 -7 13 -27 1 -17 -1 -25 -3 -18 -3 6 -9 10 -14 6 -5 -3 -5
-13 1 -24 7 -13 7 -21 -2 -26 -7 -5 -8 -3 -3 6 5 9 4 11 -3 6 -9 -5 -8 -12 1
-26 6 -11 15 -20 19 -20 5 0 8 -5 8 -11 0 -5 -4 -8 -8 -5 -5 3 -9 -1 -9 -9 0
-8 3 -13 5 -10 3 3 11 0 19 -7 11 -8 12 -7 7 5 -4 11 0 15 13 13 12 -2 17 -10
15 -25 -2 -11 1 -21 7 -21 13 0 45 -59 37 -68 -3 -3 -6 0 -6 6 0 7 -5 12 -10
12 -6 0 -5 -8 2 -20 11 -17 10 -22 -2 -30 -13 -8 -12 -10 3 -10 10 0 15 -5 12
-10 -4 -6 -2 -17 5 -25 8 -10 8 -15 -1 -21 -7 -4 -9 -3 -5 4 3 6 2 13 -4 17
-6 4 -13 -7 -16 -24 -4 -17 -10 -28 -15 -25 -15 9 -10 -6 13 -36 18 -25 20
-33 10 -55 -15 -32 -15 -35 -2 -35 6 0 9 3 8 8 -1 4 5 21 14 37 15 26 17 27
15 7 -1 -12 -5 -22 -9 -22 -16 0 -7 -22 20 -46 17 -17 21 -24 10 -20 -12 4
-18 0 -18 -10 0 -11 -6 -14 -17 -10 -13 4 -11 0 6 -14 18 -15 19 -20 7 -20 -9
0 -16 -4 -16 -10 0 -12 10 -13 29 -1 8 5 11 16 8 25 -4 10 -1 16 8 16 19 0 19
-24 0 -44 -20 -19 -19 -26 3 -26 11 -1 6 -6 -13 -15 -30 -13 -30 -13 -5 -15
l25 -2 -25 -8 c-21 -7 -12 -15 12 -11 4 0 4 -7 1 -16 -4 -9 -2 -14 3 -11 5 3
15 0 21 -8 8 -8 9 -15 3 -19 -6 -3 -10 -1 -10 6 0 8 -4 8 -15 -1 -8 -7 -15 -9
-15 -4 0 5 -5 1 -11 -8 -15 -26 -29 -22 -29 9 l0 27 -16 -22 c-13 -18 -19 -21
-30 -11 -11 9 -14 8 -14 -7 0 -16 -2 -16 -10 -4 -5 9 -5 19 2 27 6 8 8 16 4
20 -3 3 -6 0 -7 -8 0 -8 -4 -6 -9 6 -8 17 -9 16 -9 -9 -1 -24 -3 -27 -16 -16
-8 7 -13 16 -10 20 3 4 -3 7 -13 6 -11 0 -17 6 -17 18 0 30 -34 29 -46 -1 -5
-14 -12 -23 -15 -20 -4 3 -14 -1 -22 -10 -11 -10 -17 -12 -20 -4 -2 6 -8 9
-13 5 -5 -3 1 -14 13 -25 19 -16 20 -18 4 -12 -14 4 -17 2 -14 -8 3 -8 11 -13
18 -11 8 2 11 -4 8 -16 -7 -27 3 -41 32 -44 19 -2 25 2 25 17 0 11 4 23 10 27
5 4 6 10 2 14 -3 4 -14 1 -24 -7 -16 -13 -16 -12 1 15 10 16 13 25 7 22 -6 -4
-11 -2 -11 3 0 6 0 14 0 19 0 4 3 7 8 7 4 0 12 3 18 7 7 5 9 -1 6 -19 -4 -20
-2 -24 9 -18 8 5 11 4 6 0 -4 -5 0 -16 9 -26 9 -10 14 -25 11 -33 -4 -11 0
-14 15 -11 20 4 20 4 2 -17 -17 -19 -17 -21 -2 -15 10 3 17 2 15 -2 -1 -5 3
-10 8 -10 6 -1 11 8 13 19 3 21 4 21 23 4 23 -21 94 -30 105 -13 4 7 2 15 -4
17 -7 2 -12 15 -12 29 0 18 -4 24 -15 19 -25 -9 -17 10 9 22 29 13 37 6 30
-25 -5 -19 -3 -22 11 -17 15 6 16 4 6 -15 -7 -12 -11 -32 -10 -44 2 -12 -2
-32 -9 -44 -7 -12 -12 -26 -11 -30 1 -4 -3 -19 -9 -33 -8 -18 -11 -20 -11 -7
-1 11 -9 17 -26 17 -18 0 -23 4 -18 16 5 14 2 13 -16 -2 l-21 -19 22 -8 c15
-6 18 -11 10 -14 -7 -3 -22 3 -32 12 -10 9 -23 14 -29 11 -5 -4 -13 0 -18 7
-4 7 -17 17 -28 21 -19 7 -19 8 5 21 l24 13 -24 4 c-22 3 -25 8 -25 45 0 26
-3 39 -9 33 -5 -5 -9 -22 -9 -38 0 -28 -1 -28 -19 -10 -22 22 -38 23 -38 2 0
-8 -4 -13 -8 -10 -4 2 -9 -4 -9 -15 -1 -16 1 -17 11 -6 7 7 15 19 19 27 4 12
6 11 6 -3 1 -10 5 -16 10 -13 8 5 8 -15 1 -34 -1 -3 -2 -8 -1 -12 1 -11 -7
-10 -30 2 -20 11 -28 -3 -9 -15 15 -9 -9 -37 -26 -31 -7 3 -16 1 -19 -4 -9
-15 26 -12 57 4 24 13 28 13 28 0 0 -50 110 -78 125 -31 l8 22 4 -22 c4 -19
11 -23 43 -23 31 0 38 3 34 15 -4 8 -1 15 5 15 6 0 11 -7 11 -15 0 -13 26 -15
175 -15 l176 0 -5 33 c-3 17 -8 81 -11 140 -4 60 -8 117 -10 128 -3 14 2 19
19 19 18 0 29 -11 45 -45 12 -25 21 -49 21 -55 0 -5 11 -30 25 -54 14 -25 26
-57 27 -71 1 -14 5 -25 9 -25 3 0 14 -16 25 -35 l19 -35 203 0 c186 0 203 1
191 16 -7 9 -14 23 -15 33 -2 14 -1 14 10 -1 16 -22 30 -24 22 -3 -3 8 -1 15
4 15 6 0 10 -4 10 -9 0 -5 9 -7 19 -4 12 3 17 11 14 20 -3 8 -14 13 -24 10
-11 -3 -22 -1 -25 4 -6 10 -48 12 -93 3 -27 -6 -29 -9 -19 -22 12 -13 11 -14
-9 -2 -26 17 -30 31 -25 92 4 47 4 47 35 41 18 -3 40 -10 50 -15 10 -5 35 -11
56 -14 20 -2 55 -13 76 -24 22 -11 45 -20 52 -20 7 0 13 -3 13 -7 0 -5 30 -8
68 -8 37 -1 76 -5 87 -9 22 -10 31 -12 60 -15 18 -1 17 -4 -7 -22 -16 -11 -28
-29 -28 -40 0 -18 10 -19 220 -19 212 0 220 1 220 20 0 13 -5 18 -15 14 -9 -4
-15 0 -15 7 0 11 -2 11 -8 2 -6 -9 -11 -7 -19 6 -14 22 -6 35 30 47 36 12 30
29 -11 28 -18 -1 -31 1 -28 3 9 10 -19 30 -34 25 -9 -3 -7 1 4 10 19 15 19 16
1 54 -10 22 -44 64 -76 94 -62 60 -133 183 -194 335 -42 103 -93 205 -103 205
-4 0 -18 21 -32 48 -35 66 -69 112 -84 112 -7 0 -18 12 -25 27 -17 37 -1 48
64 46 38 -1 53 2 49 10 -6 16 108 57 172 62 29 2 51 10 56 19 5 9 15 16 23 16
36 0 235 98 277 136 28 25 47 34 73 34 19 0 35 5 35 10 0 6 -9 10 -20 10 -28
0 -25 11 20 71 44 58 51 97 23 125 -17 17 -18 15 -23 -32 -7 -59 -9 -64 -85
-149 -55 -62 -72 -73 -202 -136 -156 -77 -247 -109 -302 -109 -23 0 -45 -8
-59 -20 -11 -11 -42 -24 -67 -30 -44 -10 -48 -9 -67 15 -11 14 -27 33 -36 42
-20 20 -38 53 -63 118 -20 54 -25 79 -9 55 6 -10 10 -11 10 -2 0 7 14 13 33
13 23 1 16 4 -26 11 -57 10 -58 11 -93 72 -34 57 -115 229 -170 358 -13 31
-45 92 -70 135 -25 43 -63 110 -84 149 l-39 70 122 13 c240 24 386 47 401 61
10 10 -8 36 -36 51 -44 24 -199 62 -263 64 -38 2 -95 8 -125 13 -30 6 -83 11
-116 11 -68 1 -74 7 -74 79 0 28 -3 32 -26 32 -14 0 -23 4 -19 10 4 6 11 8 16
5 5 -4 9 1 9 9 0 9 5 16 10 16 6 0 10 4 10 9 0 5 -9 7 -20 4 -14 -4 -20 0 -20
12 0 13 6 16 24 11 12 -3 25 -3 28 0 3 3 210 7 459 9 445 4 550 10 549 30 -1
18 -52 25 -195 29 -77 3 -203 10 -280 16 -84 7 -276 10 -480 8 l-341 -3 4 62
c4 63 -12 133 -30 133 -6 0 -8 -14 -4 -37 6 -37 6 -38 -8 -13 -9 14 -16 34
-16 45 -1 19 -2 19 -9 1 -7 -18 -8 -18 -14 -2 -4 10 -5 21 -2 25 2 5 -7 6 -20
3 -18 -3 -25 0 -25 12 0 9 -3 16 -7 16 -18 0 -63 49 -63 69 0 28 -29 73 -42
65 -6 -4 -5 -10 3 -15 9 -6 0 -6 -21 -2 -36 6 -53 20 -43 36 2 4 11 3 18 -3 8
-7 15 -7 19 -1 4 5 2 12 -4 16 -19 11 -10 25 25 39 19 8 35 17 35 20 0 3 -16
-2 -36 -10 -20 -8 -42 -13 -50 -10 -7 3 -16 1 -20 -5 -3 -6 -11 -8 -17 -6 -7
2 -19 -8 -28 -23 -15 -24 -23 -27 -81 -28 -53 -2 -68 2 -82 17 -11 12 -15 25
-10 33 4 7 7 24 6 38 -2 24 1 26 29 22 30 -4 32 -3 27 23 -5 23 0 30 28 47 28
17 32 23 23 35 -8 9 -21 12 -38 8 -24 -6 -25 -6 -8 13 9 10 17 24 17 30 0 8
31 12 103 12 68 0 111 5 129 14 19 10 28 11 31 3 2 -8 23 -7 73 2 52 9 77 9
99 1 15 -6 35 -8 42 -5 8 2 28 -2 45 -11 17 -9 39 -13 50 -11 15 4 20 -1 25
-25 7 -35 31 -48 45 -25 5 10 16 17 24 17 8 0 12 5 9 10 -3 6 -1 10 4 10 6 0
14 1 17 3 4 1 8 -10 10 -24 4 -44 24 -109 34 -109 4 0 15 -2 22 -5 10 -4 19 7
28 37 19 62 32 71 26 18 -4 -33 -3 -39 3 -20 8 23 9 22 10 -12 1 -27 6 -38 16
-38 8 0 15 6 16 13 2 48 12 84 25 97 15 14 15 12 9 -20 -3 -19 -9 -43 -11 -52
-3 -11 0 -18 8 -18 23 0 43 34 40 68 -2 23 1 32 11 32 8 0 18 11 21 25 9 35
26 31 26 -5 0 -16 5 -30 10 -30 6 0 10 7 10 15 0 8 5 15 10 15 6 0 10 -18 10
-41 0 -47 27 -99 50 -99 9 0 21 -5 28 -12 15 -15 33 30 26 64 -2 13 -7 44 -11
71 -6 47 2 58 25 35 10 -10 15 -10 22 1 6 11 37 14 149 12 121 -2 141 0 141
14 0 8 9 15 20 15 11 0 20 -6 20 -14 0 -8 11 -17 25 -20 37 -9 328 4 340 15 6
6 10 49 9 97 -1 48 -1 161 0 252 2 361 -1 529 -9 622 -6 76 -5 101 5 113 22
27 34 -10 31 -93 -2 -59 1 -78 15 -93 26 -29 28 -87 15 -541 -12 -435 -15
-478 -36 -478 -15 0 -25 -22 -25 -56 0 -13 -4 -24 -9 -24 -5 0 -6 -38 -4 -85
6 -82 5 -84 -18 -94 -26 -10 -329 -28 -619 -37 -102 -3 -201 -7 -220 -10 -62
-10 -11 -23 131 -34 130 -10 822 -29 1082 -30 l127 0 0 101 c0 96 -1 101 -20
96 -11 -3 -36 -1 -57 4 -42 9 -54 2 -58 -33 -1 -13 -3 -26 -4 -30 0 -4 -22
-13 -47 -21 -36 -10 -62 -11 -117 -3 l-71 11 -18 50 c-10 28 -18 74 -18 103 0
56 26 169 44 189 8 9 56 13 156 13 80 1 160 4 178 7 l32 5 0 1019 0 1019
-2956 0 -2956 0 3 -45 c2 -24 0 -47 -4 -51 -4 -4 -4 -32 0 -63 6 -53 5 -55
-11 -38 -10 9 -21 17 -26 17 -4 0 -11 40 -15 90 l-7 89 -574 1 -574 0 0 -87z
m730 42 c7 -8 8 -15 2 -15 -5 0 -15 7 -22 15 -7 8 -8 15 -2 15 5 0 15 -7 22
-15z m5577 -20 c-4 -8 -11 -15 -17 -15 -6 0 -6 7 2 20 14 22 24 19 15 -5z
m-5253 0 c-4 -8 -12 -15 -20 -15 -8 0 -14 7 -14 15 0 8 9 15 20 15 13 0 18 -5
14 -15z m4822 -12 c-10 -10 -19 5 -10 18 6 11 8 11 12 0 2 -7 1 -15 -2 -18z
m-4621 -33 c3 -5 1 -10 -4 -10 -6 0 -11 5 -11 10 0 6 2 10 4 10 3 0 8 -4 11
-10z m1360 -26 c0 -16 -7 -19 -40 -17 -44 3 -95 21 -95 34 0 10 88 16 115 8
11 -4 20 -15 20 -25z m3353 -24 c20 0 14 -18 -10 -31 -13 -7 -26 -17 -30 -23
-5 -6 -8 -1 -8 12 0 12 -4 22 -9 22 -10 0 -22 51 -14 63 3 5 17 -3 32 -17 15
-14 32 -26 39 -26z m522 35 c0 -8 -7 -15 -15 -15 -16 0 -20 12 -8 23 11 12 23
8 23 -8z m-3600 -15 c0 -13 -7 -20 -20 -20 -13 0 -20 7 -20 20 0 13 7 20 20
20 13 0 20 -7 20 -20z m544 4 c27 -27 8 -34 -85 -34 -80 0 -89 2 -89 18 0 29
8 32 86 32 53 0 77 -4 88 -16z m407 -6 c16 -25 8 -28 -75 -28 -86 0 -103 7
-92 37 5 13 19 15 83 10 46 -3 79 -11 84 -19z m1919 -3 c0 -8 -4 -15 -10 -15
-5 0 -7 7 -4 15 4 8 8 15 10 15 2 0 4 -7 4 -15z m-1520 -5 c0 -5 -12 -10 -26
-10 -14 0 -23 4 -19 10 3 6 15 10 26 10 10 0 19 -4 19 -10z m1592 -37 c6 -8 6
-18 -2 -30 -11 -17 -11 -17 -6 0 3 10 -2 22 -14 29 -15 10 -17 16 -7 32 11 21
11 21 15 1 2 -11 9 -25 14 -32z m-3497 -3 c16 -16 35 -30 42 -30 8 0 25 -11
38 -25 34 -33 36 -109 4 -126 -23 -12 -185 -4 -209 11 -21 13 -9 139 16 156
10 7 24 17 29 22 11 9 34 20 46 21 3 1 18 -12 34 -29z m645 20 c0 -5 -4 -10
-10 -10 -5 0 -10 5 -10 10 0 6 5 10 10 10 6 0 10 -4 10 -10z m3381 -3 c15 -11
15 -16 4 -37 l-12 -23 -12 21 c-13 24 -15 52 -3 52 4 0 14 -6 23 -13z m-3514
-65 c1 -37 5 -81 8 -98 7 -41 -7 -46 -110 -45 -116 3 -125 6 -125 50 0 30 16
97 35 149 3 8 32 12 97 12 l93 0 2 -68z m397 31 c22 -144 22 -164 5 -174 -28
-15 -182 -11 -204 5 -18 13 -19 19 -8 71 15 67 27 85 59 85 14 0 23 5 22 12
-2 8 15 15 44 18 26 3 50 9 54 13 15 14 22 6 28 -30z m773 10 c24 -22 40 -64
47 -127 9 -70 0 -76 -103 -76 -119 1 -122 4 -110 111 6 46 12 90 14 97 7 20
128 16 152 -5z m2428 7 c3 -5 1 -10 -4 -10 -6 0 -11 5 -11 10 0 6 2 10 4 10 3
0 8 -4 11 -10z m-5953 -25 c0 -5 -5 -11 -11 -13 -6 -2 -11 4 -11 13 0 9 5 15
11 13 6 -2 11 -8 11 -13z m4984 -10 c-8 -7 -13 -15 -9 -18 3 -4 1 -7 -5 -7 -7
0 -12 -7 -12 -15 0 -8 -9 -24 -20 -35 -11 -11 -20 -15 -20 -9 0 22 53 96 68
96 12 0 12 -2 -2 -12z m-1904 -13 c73 -3 77 -5 88 -31 6 -16 10 -48 8 -72 l-3
-44 -90 -3 c-134 -4 -135 -4 -129 66 8 92 12 105 32 96 9 -5 51 -10 94 -12z
m-2363 -34 c-1 -24 4 -70 10 -103 6 -33 18 -185 26 -337 10 -202 18 -287 30
-314 12 -30 13 -39 3 -45 -16 -10 -13 -213 4 -354 6 -49 12 -111 12 -137 2
-65 16 -73 16 -10 0 29 3 52 8 52 9 0 32 -72 32 -100 0 -25 -5 -25 -68 1 -33
14 -52 28 -56 42 -3 12 -6 76 -6 142 0 126 -27 659 -34 685 -11 38 -16 481 -6
500 18 33 31 23 29 -22z m4792 16 c-18 -8 -36 -12 -39 -9 -10 10 21 25 48 24
23 -1 22 -2 -9 -15z m259 -6 c0 -29 -17 -41 -39 -29 -32 17 -27 41 9 41 17 0
30 -5 30 -12z m-5747 -13 c28 -21 18 -49 -19 -53 -39 -4 -60 18 -44 47 12 24
37 26 63 6z m5597 -19 c0 -3 -4 -8 -10 -11 -5 -3 -10 -1 -10 4 0 6 5 11 10 11
6 0 10 -2 10 -4z m260 -92 c0 -8 -4 -12 -10 -9 -5 3 -10 10 -10 16 0 5 5 9 10
9 6 0 10 -7 10 -16z m-2290 -86 c30 -5 59 -14 65 -19 5 -5 10 -42 10 -83 1
-80 -7 -88 -37 -36 -17 30 -45 43 -35 16 33 -85 31 -131 -3 -88 -24 29 -32 28
-24 -2 5 -21 3 -24 -14 -19 -12 3 -28 14 -38 24 -9 10 -30 19 -45 19 -36 0
-45 18 -48 101 -1 44 2 69 11 76 21 17 72 32 88 26 8 -2 40 -9 70 -15z m-2203
-13 c0 -8 -4 -12 -9 -9 -5 3 -6 10 -3 15 9 13 12 11 12 -6z m4531 -50 c3 -25
2 -27 -12 -16 -19 16 -22 55 -3 49 6 -3 14 -17 15 -33z m-1532 -100 c0 -69 15
-114 94 -280 32 -66 62 -136 68 -155 21 -66 52 -245 52 -302 0 -54 -2 -58 -22
-57 -13 0 -45 8 -73 18 -39 14 -54 26 -71 57 -11 21 -37 65 -57 97 -43 71 -77
167 -77 220 0 21 -7 45 -15 53 -8 9 -15 28 -15 44 0 16 -5 32 -11 35 -6 4 -8
21 -5 38 5 29 5 29 -4 8 -6 -13 -22 -33 -36 -44 -15 -11 -32 -35 -40 -52 -7
-17 -27 -47 -44 -65 -26 -28 -31 -40 -28 -72 2 -21 0 -38 -4 -38 -5 0 -8 -5
-8 -11 0 -39 -272 -321 -339 -350 -58 -26 -83 -50 -123 -113 -18 -28 -33 -53
-34 -55 -2 -2 -17 8 -34 23 -18 14 -44 28 -58 31 -15 3 -48 10 -74 16 -26 6
-66 9 -88 8 -31 -3 -44 1 -51 14 -8 13 -13 14 -28 5 -28 -17 -51 -3 -51 32 0
28 2 31 23 24 51 -17 119 5 97 31 -6 7 -9 23 -8 36 2 19 -2 24 -22 27 -38 4
-100 24 -100 33 0 11 21 15 85 14 54 0 60 -2 63 -22 6 -39 92 -32 142 13 41
36 65 44 130 44 56 0 64 3 86 30 14 16 62 59 107 96 86 70 260 242 275 272 5
9 15 55 21 102 12 83 34 143 69 187 22 29 119 68 168 68 l39 0 1 -60z m-912
-94 c17 -18 24 -31 17 -35 -7 -5 -5 -15 5 -32 25 -38 9 -40 -36 -4 -39 31 -50
50 -30 50 7 0 7 6 0 19 -13 26 -13 31 3 31 7 0 26 -13 41 -29z m1616 -87 c0
-14 -4 -33 -10 -43 -12 -23 -68 -35 -86 -20 -15 12 -20 64 -5 55 5 -3 19 3 32
13 47 36 69 35 69 -5z m-1394 -76 c10 -29 21 -56 22 -60 2 -4 -1 -8 -8 -8 -6
0 -22 25 -36 55 -28 65 -28 65 -11 65 7 0 22 -23 33 -52z m1644 0 c0 -17 -3
-18 -15 -8 -8 7 -15 19 -15 26 0 8 6 11 15 8 8 -4 15 -15 15 -26z m-4371 -130
c1 -67 -3 -98 -10 -98 -8 0 -10 -13 -5 -38 3 -21 1 -76 -4 -122 -5 -47 -10
-119 -11 -160 -2 -78 -17 -178 -29 -185 -9 -5 -23 232 -21 340 2 59 7 89 22
113 15 27 19 52 19 136 0 57 5 118 12 137 l12 34 7 -30 c4 -16 7 -74 8 -127z
m4226 94 c-8 -8 -25 17 -25 38 0 9 6 6 16 -8 9 -13 13 -26 9 -30z m-3498 -50
c48 -49 102 -97 118 -107 68 -42 156 -118 145 -125 -8 -5 -7 -10 3 -19 18 -14
20 -86 3 -104 -7 -6 -11 -18 -8 -25 5 -17 -18 -82 -29 -82 -11 0 -88 51 -111
73 -7 7 -34 30 -60 51 -46 37 -186 201 -223 261 -10 17 -27 39 -36 50 -17 19
-16 21 10 51 32 36 71 64 87 64 7 0 52 -40 101 -88z m3737 2 c12 -31 7 -84 -9
-84 -29 0 -46 65 -23 88 16 16 25 15 32 -4z m182 -30 c5 -25 1 -47 -10 -70 -9
-19 -16 -45 -16 -59 0 -42 -10 -55 -45 -55 -47 0 -57 17 -49 86 7 53 12 63 52
101 25 24 48 40 53 37 5 -2 11 -21 15 -40z m759 -41 c18 8 29 -9 20 -31 -5
-14 -7 -14 -15 -2 -12 19 -20 10 -24 -26 -2 -16 -9 -47 -14 -69 -12 -46 -24
-160 -23 -225 1 -125 -42 -411 -60 -393 -13 13 -17 124 -7 197 11 81 30 339
31 400 0 32 -5 53 -15 60 -10 7 -12 18 -7 31 8 20 8 20 9 0 1 -15 3 -16 7 -5
4 8 12 21 20 28 7 7 13 20 13 27 0 8 5 26 12 40 l12 26 13 -32 c9 -21 18 -29
28 -26z m-1428 -37 c-4 -9 -22 -24 -42 -33 -28 -13 -38 -14 -48 -4 -9 10 -4
19 27 48 34 32 40 34 53 20 9 -9 13 -23 10 -31z m799 4 c36 -33 51 -40 83 -40
42 0 55 -9 45 -33 -11 -29 -60 -28 -132 4 -70 31 -98 62 -86 94 10 26 45 16
90 -25z m-1996 -10 c30 -30 25 -43 -12 -35 -44 10 -48 13 -48 36 0 25 34 25
60 -1z m1674 -42 c-11 -39 -38 -48 -54 -19 -19 37 22 93 49 66 11 -10 12 -22
5 -47z m-463 5 c-11 -4 -11 -7 0 -14 11 -6 10 -12 -4 -27 -18 -20 -65 -35 -80
-25 -9 5 41 58 63 66 19 7 39 7 21 0z m-4121 -125 c0 -53 4 -99 8 -102 10 -6
9 -103 -1 -112 -13 -14 -20 6 -22 68 -2 35 -6 89 -10 120 -4 32 -4 79 0 105
11 74 25 31 25 -79z m-453 62 c3 -11 9 -18 13 -15 5 3 6 -4 3 -14 -8 -31 -32
-34 -43 -5 -6 14 -10 32 -10 40 0 21 31 17 37 -6z m1700 -13 c-15 -12 -39 -35
-53 -52 -16 -19 -21 -22 -15 -9 11 22 76 84 89 84 4 0 -6 -10 -21 -23z m901
-11 c28 -25 38 -55 20 -67 -5 -3 -4 -17 1 -32 9 -24 8 -27 -12 -27 -44 -1 -56
-21 -50 -82 4 -36 2 -58 -6 -62 -6 -4 -11 -16 -11 -27 0 -12 -10 -23 -25 -29
-30 -11 -86 -23 -67 -14 6 3 10 10 7 15 -3 4 2 20 11 34 22 33 8 47 -16 17
-18 -22 -19 -22 -29 -3 -15 28 -3 51 30 58 32 6 54 28 62 61 5 21 2 22 -48 22
l-53 0 5 43 c3 23 13 56 22 72 14 25 25 31 66 36 28 3 53 7 57 7 3 1 20 -9 36
-22z m-2768 -19 c0 -2 -11 -4 -25 -5 -24 -2 -32 7 -19 21 6 5 44 -9 44 -16z
m3140 -45 c0 -5 -7 -9 -15 -9 -8 0 -15 4 -15 9 0 4 7 8 15 8 8 0 15 -4 15 -8z
m-3046 -41 c-2 -3 -12 3 -22 13 -16 17 -16 18 5 5 12 -7 20 -15 17 -18z m157
-19 c-7 -28 -44 -43 -62 -25 -15 15 1 52 22 48 12 -3 19 2 19 12 0 12 3 13 14
4 10 -8 12 -21 7 -39z m-298 31 c3 -5 -1 -14 -9 -20 -14 -14 -30 0 -19 17 7
12 22 13 28 3z m187 -32 c0 -8 -43 -36 -51 -33 -4 1 -5 -6 -2 -16 2 -9 0 -28
-6 -42 -8 -22 -9 -19 -9 20 1 31 8 51 22 66 19 19 46 22 46 5z m31 -28 c13
-16 12 -17 -3 -4 -17 13 -22 21 -14 21 2 0 10 -8 17 -17z m2381 -28 c-1 -19 2
-35 7 -35 7 0 20 -52 25 -102 1 -3 4 -10 9 -14 4 -4 7 -13 7 -21 0 -7 12 -26
26 -43 20 -22 35 -29 61 -28 41 2 63 -16 44 -34 -11 -11 -13 -10 -8 5 6 15 3
16 -13 7 -10 -5 -22 -15 -25 -20 -3 -6 -18 -8 -33 -5 -15 3 -21 2 -14 -1 22
-10 13 -24 -17 -24 -16 0 -31 -4 -33 -8 -1 -5 -15 -12 -29 -15 -24 -6 -27 -4
-33 27 -4 19 -4 45 -2 58 8 36 -16 93 -39 93 -11 0 -21 8 -23 18 -2 10 3 17
12 17 10 0 13 6 9 17 -4 11 -3 14 5 9 8 -5 12 1 12 15 0 28 21 100 33 117 14
18 20 7 19 -33z m58 25 c0 -5 -7 -7 -15 -4 -8 4 -15 8 -15 10 0 2 7 4 15 4 8
0 15 -4 15 -10z m-2607 -30 c-8 -31 -23 -34 -23 -6 0 16 6 26 14 26 9 0 12 -7
9 -20z m255 -22 c-7 -19 -38 -22 -38 -4 0 10 9 16 21 16 12 0 19 -5 17 -12z
m2569 -31 c9 -7 10 -14 2 -29 -10 -19 -11 -18 -35 7 -13 14 -24 28 -24 30 0 7
45 1 57 -8z m-2701 -63 c-3 -7 -14 -12 -25 -11 -11 0 -18 4 -15 8 2 4 -2 9 -8
12 -10 3 -10 7 1 20 7 9 17 14 22 11 5 -3 9 1 10 8 0 7 5 2 10 -11 5 -14 8
-30 5 -37z m228 -8 c0 -61 -63 -128 -102 -107 -18 10 -17 13 18 50 21 22 44
56 51 76 15 42 33 32 33 -19z m3316 46 c0 -4 14 -16 30 -26 40 -23 110 -90 87
-82 -11 3 -16 2 -12 -4 3 -6 12 -10 20 -10 17 0 27 -28 16 -47 -7 -14 -10 -13
-15 5 -7 22 -26 31 -26 12 0 -5 -5 -10 -11 -10 -5 0 -7 5 -3 12 4 6 0 16 -8
22 -8 6 -20 21 -27 33 -7 14 -17 20 -26 17 -10 -4 -15 0 -15 15 0 12 -7 24
-15 27 -8 4 -12 10 -9 15 3 5 0 9 -5 9 -6 0 -11 5 -11 10 0 6 7 10 15 10 8 0
15 -4 15 -8z m-3720 -13 c30 -1 63 1 73 6 22 9 29 3 21 -19 -3 -9 -11 -13 -16
-10 -6 4 -6 -2 1 -14 6 -12 40 -31 86 -47 60 -22 75 -32 76 -49 0 -11 3 -34 5
-50 3 -16 0 -41 -6 -56 -8 -19 -8 -45 -1 -90 12 -71 7 -106 -17 -115 -20 -7
-598 -9 -611 -1 -5 3 -10 73 -10 159 -1 83 -4 178 -7 210 -6 48 -4 57 10 57 9
0 16 4 16 10 0 9 240 19 300 13 14 -1 50 -3 80 -4z m219 -23 c1 15 62 27 95
18 19 -5 25 -12 24 -30 -1 -13 -6 -24 -11 -24 -4 0 -6 -4 -3 -9 11 -16 -88 0
-102 17 -7 10 -10 11 -6 3 5 -9 3 -12 -4 -7 -7 4 -12 19 -11 34 0 24 1 25 9 7
5 -11 9 -15 9 -9z m3440 -28 c1 -23 5 -46 8 -51 3 -6 1 -7 -5 -3 -7 4 -12 3
-12 -3 0 -12 36 -24 49 -17 5 4 23 -17 40 -44 19 -31 36 -48 43 -44 8 5 9 -2
5 -25 -4 -20 -3 -30 3 -26 6 3 10 -1 10 -9 0 -8 -4 -18 -10 -21 -5 -3 -10 -2
-10 4 0 5 -8 8 -17 7 -18 -3 -40 -64 -42 -112 -1 -22 -31 -56 -31 -36 0 6 -7
18 -16 26 -9 9 -17 22 -18 29 -1 6 -5 17 -9 23 -17 29 -33 143 -26 190 25 164
33 189 38 112z m48 -40 c-2 -13 -4 -3 -4 22 0 25 2 35 4 23 2 -13 2 -33 0 -45z
m2218 -17 c-5 -77 -26 -166 -36 -150 -12 19 -11 116 1 124 6 3 10 23 10 44 0
21 3 41 7 44 12 13 20 -14 18 -62z m-3145 24 c-7 -9 -19 -14 -27 -11 -13 5
-17 -5 -14 -31 1 -7 -4 -13 -10 -13 -16 0 -49 30 -49 44 0 6 5 5 12 -2 18 -18
31 -14 25 8 -4 18 0 20 35 20 35 0 39 -2 28 -15z m1277 -17 c-3 -8 -6 -5 -6 6
-1 11 2 17 5 13 3 -3 4 -12 1 -19z m-1194 -3 c-3 -9 -8 -14 -10 -11 -3 3 -2 9
2 15 9 16 15 13 8 -4z m1037 -16 c0 8 2 12 5 10 2 -3 2 -15 -2 -27 -7 -27 -23
-19 -23 11 0 18 2 19 10 7 8 -12 10 -12 10 -1z m-2193 -21 c-3 -8 -6 -5 -6 6
-1 11 2 17 5 13 3 -3 4 -12 1 -19z m3917 -59 c12 -117 7 -235 -9 -249 -29 -24
-37 3 -37 132 0 184 0 178 21 178 15 0 19 -11 25 -61z m-3837 9 c-3 -7 -5 -2
-5 12 0 14 2 19 5 13 2 -7 2 -19 0 -25z m461 0 c2 -22 11 -39 27 -51 21 -16
23 -22 13 -40 -6 -12 -12 -32 -14 -43 -1 -12 -5 -30 -8 -41 -4 -13 6 -26 42
-50 26 -18 57 -40 69 -49 25 -18 43 -12 43 16 0 10 4 21 9 25 6 3 6 -6 1 -24
-6 -20 -5 -32 3 -35 9 -5 9 -8 0 -12 -10 -4 -10 -11 -2 -26 6 -11 8 -22 5 -26
-3 -3 -6 0 -6 7 0 7 -4 10 -9 7 -5 -3 -21 7 -37 22 -15 15 -24 20 -19 12 6
-11 3 -10 -12 3 -11 9 -23 14 -28 10 -4 -5 -5 -3 -2 3 4 7 -9 22 -28 35 -19
13 -35 28 -35 33 0 4 -7 5 -16 2 -8 -3 -12 -2 -9 4 3 6 1 10 -5 10 -6 0 -8 5
-5 10 3 6 1 10 -5 10 -8 0 -10 9 -6 23 5 21 2 24 -24 22 -17 -1 -38 3 -46 10
-15 10 -11 19 28 71 25 32 48 67 51 77 10 27 23 20 25 -15z m1066 23 c4 -5 -3
-7 -14 -4 -23 6 -26 13 -6 13 8 0 17 -4 20 -9z m551 -56 c-7 -45 -35 -84 -35
-50 0 11 -3 36 -6 55 -5 33 -4 35 21 35 26 0 26 -2 20 -40z m-1545 25 c0 -5
-4 -10 -10 -10 -5 0 -10 5 -10 10 0 6 5 10 10 10 6 0 10 -4 10 -10z m1590 -98
c6 -24 6 -38 0 -40 -6 -2 -10 -8 -10 -14 0 -6 6 -8 13 -5 12 5 18 -9 44 -105
5 -21 23 -24 23 -5 0 6 10 32 23 57 28 58 63 64 73 13 4 -20 2 -39 -5 -47 -7
-8 -14 -43 -17 -77 -3 -35 -7 -74 -9 -86 -3 -12 -1 -23 5 -25 5 -2 11 -15 12
-30 1 -16 8 -28 15 -28 17 0 17 -17 1 -23 -13 -4 -51 30 -61 55 -4 8 -6 7 -6
-4 -1 -10 -9 -19 -18 -19 -17 -1 -17 -2 0 -6 22 -6 12 -23 -13 -23 -10 0 -24
-8 -29 -17 -6 -10 -11 -12 -11 -5 0 6 -5 12 -11 12 -6 0 -8 -7 -5 -16 3 -8 2
-12 -4 -9 -6 3 -10 -2 -10 -13 0 -11 12 -24 27 -31 24 -11 25 -14 11 -22 -10
-5 -15 -16 -12 -23 5 -13 -27 -23 -96 -32 -57 -6 -193 -34 -207 -43 -9 -4 -24
-6 -35 -3 -13 3 -17 0 -13 -10 5 -12 -4 -15 -44 -14 -48 1 -50 2 -45 26 2 14
-7 0 -21 -30 -14 -30 -35 -65 -46 -76 -24 -25 -21 -60 4 -58 9 1 17 -3 17 -8
0 -6 -13 -8 -31 -4 -17 3 -38 6 -46 6 -8 0 -11 5 -7 11 4 8 -3 9 -27 4 l-33
-7 33 41 c18 23 43 46 54 53 23 11 37 27 37 41 0 5 -12 0 -27 -11 -49 -33 -53
-35 -46 -15 4 10 11 21 16 24 5 4 5 9 -1 13 -6 4 -29 -20 -51 -53 -49 -72 -67
-86 -57 -45 4 16 14 42 22 58 18 38 12 44 -14 12 -20 -26 -32 -25 -32 4 0 9
-6 30 -14 46 -8 16 -18 50 -21 77 -8 55 -7 55 81 32 31 -8 61 -12 66 -9 5 3
16 0 25 -8 14 -10 15 -10 9 0 -6 11 4 12 53 6 58 -6 61 -6 70 19 5 14 14 28
19 31 5 3 9 19 10 37 0 17 3 33 6 36 2 3 -4 22 -15 44 -28 53 -18 74 49 108
31 16 72 43 90 60 32 30 72 42 72 22 0 -5 -32 -35 -72 -65 -103 -80 -68 -71
41 11 43 32 71 42 71 24 0 -5 -22 -23 -49 -40 -26 -17 -61 -43 -77 -57 l-29
-25 40 16 c21 9 46 22 55 29 8 8 25 17 38 20 36 11 26 -12 -13 -31 -19 -9 -35
-20 -35 -24 0 -10 82 1 98 14 6 5 30 7 52 3 25 -4 40 -2 40 4 0 9 -31 15 -54
11 -5 -1 -15 0 -23 3 -11 5 -11 10 3 31 11 17 17 44 15 77 -1 41 3 56 21 75
18 19 19 23 5 23 -25 0 -21 19 7 31 21 10 23 15 15 36 -11 31 -11 36 1 28 5
-3 14 -22 20 -43z m-2045 28 c3 -5 1 -10 -4 -10 -6 0 -11 5 -11 10 0 6 2 10 4
10 3 0 8 -4 11 -10z m-21 -15 c22 -17 17 -29 -7 -19 -16 6 -32 34 -19 34 4 0
16 -7 26 -15z m1396 -25 c0 -3 -12 -13 -28 -24 -24 -16 -27 -25 -28 -72 -1
-58 -16 -86 -41 -77 -9 4 -19 -1 -25 -10 -5 -10 -14 -17 -20 -17 -6 0 -3 12 7
26 12 19 13 25 3 22 -27 -9 -58 -70 -58 -114 0 -89 -42 -54 -48 40 -2 33 1 73
6 87 9 23 17 27 71 32 73 6 81 11 81 47 0 30 -1 31 -65 43 -18 4 -18 5 5 14
25 10 140 13 140 3z m-1318 -19 c15 -18 15 -19 -2 -24 -10 -2 -24 -1 -31 3
-10 7 -10 11 0 24 16 19 13 20 33 -3z m-962 -5 c0 -2 -7 -7 -16 -10 -8 -3 -12
-2 -9 4 6 10 25 14 25 6z m1135 -36 c3 -5 1 -10 -4 -10 -6 0 -11 5 -11 10 0 6
2 10 4 10 3 0 8 -4 11 -10z m985 -5 c0 -2 -9 -3 -19 -2 -11 0 -18 5 -15 9 4 6
34 0 34 -7z m-485 -5 c22 -8 26 -15 22 -35 -3 -21 2 -28 30 -41 18 -9 40 -26
48 -38 17 -23 21 -91 5 -81 -5 3 -10 1 -10 -4 0 -6 4 -11 9 -11 5 0 9 -22 9
-49 0 -41 -6 -56 -29 -82 -16 -18 -29 -35 -29 -39 0 -11 -61 -42 -73 -37 -7 3
-21 20 -31 38 -17 30 -17 32 -2 20 14 -12 19 -12 29 -1 9 10 9 14 -1 17 -8 3
-5 11 10 23 l23 18 -28 11 c-42 16 -75 14 -81 -6 -3 -11 -4 -8 -3 7 1 16 12
29 30 38 29 14 34 26 15 38 -7 4 -8 3 -4 -4 5 -8 0 -12 -13 -12 -10 0 -21 -6
-24 -12 -3 -10 -7 -10 -17 -1 -10 9 -9 16 4 34 9 13 16 31 16 41 0 20 21 20
58 0 17 -10 22 -10 20 -1 -2 7 8 15 22 19 26 7 19 13 -25 23 -11 3 -2 5 20 6
23 1 35 5 28 9 -7 4 -25 7 -40 6 -15 -1 -35 -3 -44 -3 -8 -1 -25 -10 -37 -21
l-21 -20 -11 20 c-6 11 -10 39 -8 61 2 36 6 43 38 59 42 21 60 23 95 10z m753
-60 c1 -16 -4 -46 -12 -65 -8 -19 -11 -35 -6 -35 5 0 4 -13 -1 -30 -13 -37
-30 -30 -23 10 5 22 1 31 -15 42 -12 7 -21 20 -21 28 0 8 -7 24 -15 34 -22 29
-19 32 19 28 27 -3 54 4 71 18 1 0 2 -13 3 -30z m220 -22 c-4 -12 -68 -31 -76
-23 -5 5 51 34 66 35 8 0 12 -6 10 -12z m-718 -2 c0 -2 -9 -6 -20 -9 -11 -3
-18 -1 -14 4 5 9 34 13 34 5z m17 -36 c-3 -10 0 -21 7 -23 18 -7 -28 -81 -53
-85 -24 -4 -29 13 -6 22 8 3 15 14 15 24 0 10 5 23 12 30 9 9 8 12 -5 12 -15
0 -16 4 -7 20 14 27 44 27 37 0z m296 -37 c-7 -2 -21 -2 -30 0 -10 3 -4 5 12
5 17 0 24 -2 18 -5z m-363 -23 c0 -11 -2 -20 -4 -20 -2 0 -6 9 -9 20 -3 11 -1
20 4 20 5 0 9 -9 9 -20z m417 -4 c3 -3 -5 -6 -20 -6 -14 0 -29 -5 -32 -11 -4
-5 -19 -15 -33 -20 -21 -8 -23 -12 -12 -19 8 -5 25 -7 37 -3 17 4 23 1 23 -11
0 -9 -6 -13 -14 -10 -8 3 -17 1 -21 -5 -9 -16 -25 -14 -25 3 0 7 -9 16 -20 19
-12 3 -20 14 -20 25 0 15 5 19 20 15 14 -4 20 0 20 10 0 8 6 18 13 20 15 7 76
2 84 -7z m1754 -73 c-12 -20 -14 -14 -5 12 4 9 9 14 11 11 3 -2 0 -13 -6 -23z
m-871 -8 c0 -8 -4 -15 -10 -15 -5 0 -10 7 -10 15 0 8 5 15 10 15 6 0 10 -7 10
-15z m-1540 -45 c-20 -13 -33 -13 -25 0 3 6 14 10 23 10 15 0 15 -2 2 -10z
m500 -35 c0 -1 -8 -9 -17 -16 -10 -8 -14 -9 -10 -2 4 6 3 14 -3 18 -5 3 -10 1
-10 -5 0 -6 -5 -8 -11 -4 -16 10 9 23 32 17 10 -3 19 -7 19 -8z m-215 -37 c-1
-12 -6 -23 -12 -25 -17 -6 -24 26 -11 47 14 22 25 10 23 -22z m1173 -7 c3 -8
-1 -12 -9 -9 -7 2 -15 10 -17 17 -3 8 1 12 9 9 7 -2 15 -10 17 -17z m-38 -12
c0 -5 -4 -9 -10 -9 -5 0 -10 7 -10 16 0 8 5 12 10 9 6 -3 10 -10 10 -16z
m-990 0 c0 -8 5 -7 15 1 9 7 18 10 21 7 9 -9 -72 -64 -121 -83 -56 -21 -187
-17 -211 7 -14 15 -10 17 46 28 34 7 64 10 67 7 3 -3 12 1 20 9 17 17 33 20
33 5 0 -12 56 -2 90 16 31 16 40 17 40 3z m1236 -63 c3 -8 12 -12 20 -9 8 3
14 0 14 -6 0 -6 9 -11 20 -11 11 0 20 -4 20 -10 0 -13 -1 -13 -42 4 -37 16
-69 46 -49 46 6 0 14 -6 17 -14z m-1316 -129 c0 -10 -4 -16 -9 -13 -5 4 -7 -4
-3 -16 3 -13 1 -19 -5 -15 -7 4 -9 0 -7 -10 2 -10 1 -31 -4 -48 l-8 -29 -19
32 c-17 28 -21 30 -27 15 -3 -10 -7 -27 -7 -37 -1 -17 5 -18 70 -12 59 5 68 4
57 -7 -7 -8 -20 -12 -29 -10 -9 3 -16 -2 -16 -11 0 -9 4 -16 9 -16 4 0 8 5 8
11 0 5 4 8 8 5 4 -2 14 -1 22 4 20 12 50 -16 50 -47 0 -32 -24 -29 -37 5 -9
23 -11 17 -12 -46 -1 -47 3 -71 9 -67 6 3 10 15 10 26 0 10 7 19 15 19 8 0 15
-7 15 -15 0 -8 4 -15 9 -15 5 0 8 34 6 75 -3 72 -2 75 19 75 19 0 22 -5 20
-37 l-3 -38 7 35 c8 41 45 58 40 18 -2 -13 -7 -28 -10 -34 -5 -7 1 -10 17 -6
25 4 25 3 25 -64 0 -66 -1 -69 -24 -69 -13 0 -22 3 -20 6 2 4 -3 9 -11 13 -9
3 -16 19 -16 38 -2 29 -3 29 -6 7 -2 -15 5 -43 17 -64 12 -21 17 -41 12 -44
-5 -3 -12 -13 -15 -21 -3 -9 -6 -2 -7 15 -1 30 -18 79 -20 60 0 -5 -7 -1 -15
9 -14 19 -15 18 -16 -10 -1 -29 -1 -29 -9 -4 -4 14 -8 19 -9 13 -1 -7 -8 -13
-17 -13 -8 0 -12 -5 -8 -11 3 -6 -5 -3 -20 6 -21 14 -26 25 -26 57 0 21 -4 37
-9 33 -5 -3 -8 -26 -5 -52 3 -26 2 -44 -2 -40 -3 3 -13 0 -21 -8 -8 -9 -33
-15 -59 -15 -41 0 -44 -1 -30 -16 18 -18 18 -17 10 -38 -9 -23 -61 -21 -73 2
-7 12 -7 23 0 30 5 7 6 10 3 8 -3 -3 -17 -1 -30 4 -15 6 -24 6 -24 0 0 -6 -9
-10 -21 -10 -13 0 -18 -4 -13 -12 5 -8 2 -9 -9 -5 -11 4 -17 1 -17 -8 0 -20
21 -30 32 -14 7 11 8 9 6 -6 -2 -12 -11 -20 -23 -20 -12 0 -21 8 -23 20 -2 11
-7 29 -12 40 -4 11 -13 54 -20 95 -6 41 -14 84 -16 95 -5 20 -5 20 10 1 14
-18 16 -18 16 -3 0 10 10 22 23 27 16 6 17 9 5 9 -9 1 -19 -3 -23 -9 -3 -5
-13 -6 -22 -3 -24 9 22 21 117 29 41 4 81 8 89 9 8 1 18 12 23 24 5 16 4 20
-4 15 -8 -5 -9 -2 -5 10 4 9 3 15 -2 12 -11 -7 -23 22 -14 36 3 6 1 8 -4 5
-14 -9 -22 13 -14 35 6 16 9 16 34 3 25 -13 27 -12 27 6 0 24 30 26 31 2 0
-14 2 -15 6 -3 3 8 12 21 21 27 18 15 32 2 32 -30z m1150 19 c0 -2 -9 -2 -20
1 -11 3 -20 9 -20 15 0 5 9 4 20 -2 11 -6 20 -12 20 -14z m321 -49 c-13 -13
-26 -3 -16 12 3 6 11 8 17 5 6 -4 6 -10 -1 -17z m-730 -9 c1 -7 1 -16 1 -19
-1 -7 106 -1 119 7 5 3 27 0 49 -6 60 -16 50 -39 -25 -59 -33 -10 -69 -22 -80
-29 -19 -11 -19 -11 5 -11 14 0 34 4 45 8 20 8 31 1 52 -36 11 -20 10 -20 -25
-12 -20 5 -52 12 -70 16 -39 7 -214 -16 -206 -28 2 -4 52 -6 111 -3 69 4 121
2 150 -7 33 -9 47 -9 56 0 6 6 17 11 25 11 23 0 102 -42 96 -51 -2 -4 -20 1
-39 12 -19 11 -44 19 -57 17 -22 -4 -21 -5 7 -18 17 -7 38 -12 48 -12 20 1 22
-11 6 -39 -8 -16 -13 -18 -25 -8 -12 10 -13 9 -9 -3 4 -10 -4 -23 -19 -36 -14
-11 -26 -25 -26 -31 0 -6 -6 -11 -13 -11 -24 0 -49 -37 -42 -60 5 -17 10 -19
21 -9 8 6 14 18 14 26 0 29 20 1 21 -30 2 -30 2 -31 6 -4 2 15 6 27 9 27 10 0
44 -36 44 -47 0 -7 5 -13 10 -13 7 0 7 7 0 20 -6 12 -8 39 -5 63 8 50 15 61
15 23 0 -20 4 -27 14 -23 8 3 16 1 18 -5 5 -13 98 75 98 91 0 6 7 8 15 5 8 -4
15 -1 15 7 0 7 3 9 7 6 3 -4 12 2 20 13 28 39 40 25 32 -37 -9 -68 -2 -79 48
-81 44 -2 68 -22 59 -50 -9 -26 -23 -31 -66 -23 l-35 5 40 6 c31 4 41 10 43
27 3 19 -2 21 -53 25 -64 3 -90 -12 -56 -34 28 -17 26 -26 -4 -21 -19 4 -27 0
-36 -21 -7 -14 -10 -28 -7 -31 2 -3 38 2 79 11 41 8 103 14 139 13 94 -4 107
2 104 51 -1 24 2 37 8 34 5 -4 8 -17 5 -30 -4 -22 3 -29 26 -25 4 0 7 -4 7
-10 0 -18 27 8 44 42 14 28 14 29 -9 25 -15 -3 -26 1 -29 10 -4 9 -2 12 5 8
16 -10 -6 29 -26 46 -14 12 -12 15 21 26 43 15 143 17 165 3 11 -7 9 -9 -7 -9
-17 0 -23 -8 -27 -36 -7 -39 -15 -29 103 -127 30 -25 56 -42 58 -37 2 6 11 6
23 -1 16 -8 18 -13 8 -25 -9 -11 -7 -18 11 -32 23 -18 20 -49 -2 -36 -6 4 -8
2 -4 -4 3 -6 2 -13 -4 -17 -18 -11 -56 -96 -90 -200 -17 -55 -40 -116 -49
-136 -25 -51 -125 -181 -153 -199 -103 -65 -134 -81 -144 -73 -6 4 -71 48
-145 97 -74 49 -170 123 -214 165 -44 42 -67 61 -51 44 16 -18 28 -35 25 -37
-2 -2 -40 14 -84 35 -44 21 -83 39 -88 39 -4 0 -24 11 -45 24 -20 14 -43 26
-51 28 -8 2 -25 12 -38 22 -13 11 -30 21 -38 22 -7 1 -24 9 -36 18 l-22 15 24
-1 c13 -1 32 -8 41 -16 10 -8 26 -12 38 -9 11 3 18 1 15 -3 -6 -10 34 -34 42
-26 3 3 12 -2 20 -12 8 -9 12 -12 9 -5 -4 7 5 6 25 -4 49 -25 87 -26 99 -4 7
15 20 19 53 19 46 -1 67 6 67 23 0 6 -5 7 -11 4 -6 -4 -5 2 3 14 7 12 16 21
20 21 5 0 24 16 45 35 20 19 40 32 45 29 4 -3 8 -1 8 5 0 22 -23 21 -100 -4
-45 -14 -98 -25 -118 -25 -38 1 -77 21 -65 34 4 4 0 4 -10 1 -14 -6 -15 -11
-5 -28 7 -12 12 -26 13 -30 0 -4 5 -11 12 -15 9 -5 6 -12 -10 -21 -19 -13 -21
-12 -9 1 10 12 10 17 -1 27 -8 6 -16 8 -20 5 -3 -3 -3 5 0 18 6 23 6 23 -15 4
-21 -18 -22 -18 -51 9 -16 16 -27 34 -24 42 4 9 0 11 -13 7 -17 -6 -18 -5 -3
10 22 24 55 27 71 8 11 -15 11 -15 -3 -5 -13 10 -16 10 -16 -2 0 -8 4 -12 9
-9 4 3 8 1 8 -5 0 -5 9 -9 20 -8 17 1 18 3 5 17 -22 24 -19 29 20 26 20 -2 38
1 41 5 3 5 10 9 15 9 6 0 8 -4 4 -9 -3 -6 7 -6 27 0 18 5 51 9 73 8 22 0 51 2
65 6 14 4 35 7 47 6 12 0 35 4 50 11 15 6 36 13 46 15 30 5 136 65 141 80 7
17 -12 17 -103 -2 -41 -9 -124 -17 -185 -18 -107 -2 -113 -1 -175 31 -51 26
-75 32 -125 32 -39 0 -70 6 -83 15 -25 18 -40 4 -17 -16 16 -13 25 -16 74 -22
14 -2 34 -8 45 -14 11 -5 27 -9 35 -8 8 1 33 -8 55 -19 l40 -20 -73 -9 c-69
-7 -142 -38 -142 -59 0 -5 -5 -6 -10 -3 -7 4 -6 13 1 26 9 18 8 19 -9 10 -15
-8 -23 -7 -32 4 -7 8 -20 15 -29 15 -10 0 -30 13 -45 29 -15 16 -53 46 -84 67
-80 55 -85 59 -67 74 17 14 20 30 5 30 -5 0 -10 -6 -10 -14 0 -15 -22 -26 -48
-25 -12 0 -11 3 6 11 13 7 26 24 29 40 3 17 18 35 40 48 32 19 63 29 35 11
-11 -7 -11 -9 1 -14 16 -6 16 2 3 40 -6 19 -11 21 -26 13 -24 -13 -90 -13 -90
0 0 6 14 10 31 10 27 0 59 19 59 34 0 3 -19 6 -42 7 l-43 1 39 9 c29 7 42 6
47 -3 6 -9 16 -8 45 6 29 13 35 14 25 3 -10 -13 -9 -15 6 -13 10 2 17 10 17
19 -1 8 16 25 37 37 28 15 39 18 39 8 0 -9 3 -9 10 2 5 8 10 11 10 6 0 -5 8
-1 19 8 10 9 22 16 27 14 5 -1 18 3 29 9 11 6 55 17 98 24 101 17 103 37 2 30
-28 -2 -79 -15 -115 -28 -8 -3 -19 -7 -25 -8 -5 0 -23 -7 -39 -13 -32 -14 -82
-8 -92 11 -4 7 -4 9 1 5 4 -4 17 -2 29 4 11 7 29 11 39 9 11 -1 17 4 17 18 0
25 15 28 24 4 6 -14 8 -14 20 3 8 10 12 22 10 26 -3 5 0 8 5 8 6 0 12 -6 12
-12z m-598 -95 c-7 -2 -19 -2 -25 0 -7 3 -2 5 12 5 14 0 19 -2 13 -5z m64 -25
c-3 -7 -5 -2 -5 12 0 14 2 19 5 13 2 -7 2 -19 0 -25z m388 0 c-16 -4 -32 -5
-36 -3 -3 3 -12 -2 -19 -10 -7 -8 -16 -12 -21 -9 -5 3 -9 0 -9 -6 0 -6 -5 -8
-11 -4 -7 4 -7 9 -2 13 6 3 15 16 21 27 10 20 15 21 58 11 45 -11 46 -11 19
-19z m-1538 -83 c-15 -14 -35 -40 -44 -58 -13 -25 -18 -28 -21 -14 -5 23 -18
21 -37 -5 -13 -19 -17 -21 -25 -8 -11 18 -6 27 31 45 20 11 29 12 29 4 0 -6
10 1 21 15 18 23 48 43 69 45 3 1 -7 -10 -23 -24z m257 -50 c-18 -44 -19 -43
14 -38 20 3 23 2 13 -5 -22 -16 -24 -52 -3 -52 9 0 13 4 7 8 -5 4 -11 14 -13
22 -1 8 6 5 16 -9 11 -13 24 -21 31 -17 6 4 11 2 11 -3 0 -6 -4 -11 -9 -11
-14 0 -34 -64 -21 -68 8 -3 -30 -42 -42 -42 -1 0 -3 22 -4 48 0 51 -21 139
-36 159 -6 8 0 17 19 27 15 8 29 15 30 16 1 0 -5 -16 -13 -35z m-57 3 c9 -12
15 -30 29 -93 9 -38 5 -98 -7 -109 -9 -8 -10 -8 -5 1 3 6 0 13 -6 15 -9 3 -13
27 -14 69 -1 35 -4 72 -8 82 -14 39 -15 47 -7 47 5 0 13 -6 18 -12z m1806 -80
c-3 -16 -10 -28 -15 -28 -6 0 -8 10 -4 23 3 12 6 31 6 42 1 16 2 17 9 5 5 -8
7 -27 4 -42z m767 32 c0 -5 -12 -10 -27 -10 -22 0 -25 2 -13 10 20 13 40 13
40 0z m-2397 -30 c-3 -12 -8 -19 -11 -16 -5 6 5 36 12 36 2 0 2 -9 -1 -20z
m588 -27 c-12 -20 -14 -14 -5 12 4 9 9 14 11 11 3 -2 0 -13 -6 -23z m-967 11
c24 -9 19 -21 -6 -18 -31 3 -30 3 -23 14 7 12 8 12 29 4z m950 -30 c3 -8 2
-12 -4 -9 -6 3 -10 10 -10 16 0 14 7 11 14 -7z m46 -5 c0 -5 -4 -9 -8 -9 -5 0
-9 7 -9 15 0 8 4 12 9 9 4 -3 8 -9 8 -15z m-614 -54 c-10 -66 -26 -88 -26 -37
-1 26 -1 26 -15 8 -8 -11 -15 -15 -15 -9 0 6 6 16 14 22 8 7 22 27 31 46 9 19
17 35 18 35 1 0 -2 -29 -7 -65z m-216 45 c0 -5 -10 -10 -22 -10 -19 0 -20 2
-8 10 19 13 30 13 30 0z m2147 -9 c-3 9 0 16 7 16 6 0 12 -8 12 -18 0 -10 -4
-15 -8 -13 -4 3 -8 -3 -8 -12 0 -23 -15 -7 -25 26 -7 25 -7 25 10 5 12 -14 15
-15 12 -4z m101 -3 c2 -11 -3 -18 -11 -18 -8 0 -18 -7 -21 -16 -3 -8 -11 -12
-17 -8 -8 5 -8 9 1 14 7 4 9 13 5 20 -6 9 -9 9 -16 -1 -7 -11 -9 -11 -9 2 0
22 5 25 37 24 18 0 29 -6 31 -17z m-1973 -38 c3 -5 1 -10 -4 -10 -6 0 -11 5
-11 10 0 6 2 10 4 10 3 0 8 -4 11 -10z m-595 -4 c0 -2 -17 -14 -37 -25 l-38
-22 28 26 c25 22 47 32 47 21z m2567 -12 c-3 -3 -12 -4 -19 -1 -8 3 -5 6 6 6
11 1 17 -2 13 -5z m-2207 -43 c0 -5 -7 -14 -15 -21 -12 -10 -15 -10 -15 2 0 8
3 18 7 21 9 10 23 9 23 -2z m-560 -13 c0 -9 4 -8 10 2 8 13 10 13 10 -1 0 -21
-37 -31 -62 -18 -27 15 -22 29 12 29 17 0 30 -5 30 -12z m103 -2 c16 -13 16
-14 -5 -21 -13 -4 -32 -11 -43 -15 -20 -8 -20 -8 1 -9 11 -1 25 4 31 10 7 7
13 8 17 0 4 -6 -5 -13 -21 -17 -15 -3 -46 -15 -69 -25 -44 -21 -54 -23 -54
-11 0 4 14 12 32 17 17 6 33 15 36 22 2 9 -5 10 -30 2 -41 -11 -48 -11 -48 1
0 5 28 12 63 16 49 6 57 9 37 15 l-25 7 25 2 c23 1 23 2 5 10 -18 8 -18 9 5 9
14 0 33 -6 43 -13z m312 -27 c104 -19 162 -62 179 -131 9 -37 -2 -62 -20 -47
-10 8 -14 8 -14 1 0 -6 -7 -9 -15 -6 -12 5 -15 -2 -15 -32 0 -33 -7 -44 -47
-81 -27 -23 -54 -43 -60 -43 -7 0 -13 -4 -13 -10 0 -5 -7 -10 -15 -10 -8 0
-29 -9 -47 -20 -19 -11 -51 -20 -73 -20 -23 0 -45 -4 -50 -8 -17 -14 -113 -34
-134 -27 -21 6 -22 34 -6 165 3 25 2 31 -5 20 -5 -8 -10 -23 -10 -33 0 -21
-61 -143 -85 -172 -16 -19 -16 -18 -1 8 13 22 14 27 2 27 -7 0 -19 -7 -26 -15
-7 -8 -18 -15 -24 -15 -6 0 -3 5 7 11 26 15 55 86 60 149 4 52 3 54 -9 25 -7
-16 -13 -46 -14 -66 0 -35 -22 -60 -35 -40 -3 5 1 11 9 14 7 3 15 21 18 41 2
19 0 32 -4 30 -4 -3 -8 -16 -8 -28 0 -15 -7 -26 -20 -29 -11 -3 -20 -1 -20 4
0 5 7 9 15 9 9 0 15 9 15 21 0 19 -2 20 -17 8 -14 -12 -16 -12 -11 1 2 8 11
15 19 15 8 0 28 18 44 40 32 43 63 60 51 28 -11 -27 -25 -107 -20 -114 2 -4
-3 -24 -11 -45 l-16 -39 21 24 c11 12 17 27 14 32 -3 5 -2 9 3 9 4 0 8 27 8
59 1 34 6 66 14 75 10 11 10 16 2 16 -7 0 -9 5 -6 10 3 6 2 10 -4 10 -5 0 -11
-4 -13 -9 -1 -5 -12 -3 -22 5 -19 13 -19 14 -1 14 18 0 18 0 -1 14 -10 8 -16
18 -11 22 4 4 7 2 7 -4 0 -20 39 -13 50 8 17 32 0 47 -21 19 -13 -16 -19 -19
-18 -9 0 8 6 23 13 33 17 23 91 24 100 1 3 -8 10 -12 16 -9 12 7 13 -25 1 -43
-4 -8 -12 -13 -17 -12 -5 1 -15 -9 -23 -22 -13 -22 -12 -22 3 -4 10 13 16 15
16 7 0 -21 27 5 56 54 26 44 102 91 173 106 28 6 21 7 -31 6 -37 -2 -62 1 -55
5 17 11 84 10 152 -3z m-481 -7 c2 -4 -11 -12 -30 -18 -27 -9 -34 -8 -34 2 0
7 10 15 23 17 12 2 25 5 29 6 4 0 9 -3 12 -7z m611 -12 c10 -11 16 -20 13 -20
-3 0 -13 9 -23 20 -10 11 -16 20 -13 20 3 0 13 -9 23 -20z m-430 -20 c4 -6 -8
-10 -29 -10 -26 0 -44 -8 -66 -30 -32 -31 -47 -39 -34 -17 14 21 57 52 83 58
39 10 39 10 46 -1z m-195 -15 c-27 -14 -36 -13 -25 4 3 6 16 11 28 11 21 -1
21 -1 -3 -15z m668 -10 c-3 -3 -9 2 -12 12 -6 14 -5 15 5 6 7 -7 10 -15 7 -18z
m-728 -5 c0 -5 -12 -10 -27 -9 l-28 1 25 8 c14 4 26 8 28 9 1 1 2 -3 2 -9z
m69 -22 c-18 -17 -25 -19 -27 -9 -4 15 15 31 37 31 9 0 6 -8 -10 -22z m-59
-19 c0 -7 -18 -12 -95 -24 -37 -6 -38 -5 -20 8 30 22 115 33 115 16z m90 3 c0
-11 -22 -32 -32 -32 -5 0 -4 9 2 20 11 20 30 28 30 12z m-330 -20 c-19 -2 -41
-8 -47 -14 -7 -6 -13 -6 -13 -1 0 20 22 29 57 24 l38 -6 -35 -3z m95 -2 c-3
-5 -17 -10 -31 -10 -14 0 -22 4 -19 10 3 6 17 10 31 10 14 0 22 -4 19 -10z
m255 -20 c0 -5 -7 -10 -16 -10 -8 0 -12 5 -9 10 3 6 10 10 16 10 5 0 9 -4 9
-10z m-124 -16 c18 -15 18 -15 -5 -8 -16 4 -21 3 -17 -5 4 -6 3 -11 -3 -11 -5
0 -9 9 -8 20 2 24 7 25 33 4z m-68 -13 c-2 -5 6 -17 17 -26 20 -16 20 -16 -2
-5 -16 7 -23 7 -23 0 0 -5 -7 -10 -16 -10 -8 0 -12 -5 -8 -11 3 -6 -12 2 -35
17 -46 30 -49 44 -4 21 17 -9 35 -11 48 -6 11 4 16 8 12 8 -5 1 -5 6 -2 11 8
13 16 13 13 1z m177 -1 c-3 -5 -12 -10 -18 -10 -7 0 -6 4 3 10 19 12 23 12 15
0z m39 -25 c-4 -8 -9 -15 -13 -15 -4 0 -13 -12 -19 -26 -7 -14 -17 -22 -22
-19 -14 8 -13 26 1 23 6 -2 14 3 17 11 3 9 0 11 -9 6 -8 -5 -11 -5 -7 0 6 6
39 27 55 34 1 1 0 -6 -3 -14z m1966 6 c0 -4 -11 -6 -25 -3 -14 2 -25 6 -25 8
0 2 11 4 25 4 14 0 25 -4 25 -9z m-2093 -29 c-10 -2 -26 -1 -35 3 -14 5 -14 8
-2 15 8 5 22 4 34 -3 19 -10 20 -11 3 -15z m-150 -29 c-4 -3 1 -15 10 -26 18
-20 18 -20 -10 -2 -21 13 -25 20 -15 26 16 10 24 11 15 2z m137 1 c23 -9 20
-23 -4 -17 -11 3 -20 9 -20 14 0 11 3 11 24 3z m-59 -44 c12 -19 -14 -10 -42
16 l-28 25 32 -15 c17 -9 35 -20 38 -26z m-90 0 c10 -11 16 -20 13 -20 -3 0
-13 9 -23 20 -10 11 -16 20 -13 20 3 0 13 -9 23 -20z m100 -51 c11 -17 0 -20
-21 -4 -17 13 -17 14 -2 15 9 0 20 -5 23 -11z m45 -9 c0 -5 -5 -10 -11 -10 -5
0 -7 5 -4 10 3 6 8 10 11 10 2 0 4 -4 4 -10z m-50 -40 c8 -5 12 -11 9 -14 -3
-3 -14 1 -25 9 -21 16 -8 20 16 5z m2505 -46 c22 -3 47 -13 55 -21 13 -13 10
-14 -30 -11 -54 3 -143 31 -147 45 -3 7 10 8 39 1 24 -5 61 -11 83 -14z m-184
-43 c-5 -9 -21 -26 -35 -36 -19 -14 -22 -22 -14 -32 8 -10 3 -17 -21 -30 -18
-11 -31 -26 -31 -37 0 -11 -10 -31 -22 -44 -20 -21 -20 -24 -5 -19 10 4 30 7
43 7 16 0 28 8 34 23 5 12 9 18 9 13 1 -5 8 -3 16 4 9 8 19 9 23 4 4 -5 6 -8
4 -7 -10 5 -43 -37 -37 -46 3 -6 -1 -14 -9 -17 -9 -3 -14 -10 -11 -14 3 -5 1
-11 -5 -15 -5 -3 -10 -1 -10 6 0 8 -4 8 -15 -1 -8 -7 -15 -18 -15 -25 0 -7
-10 -15 -22 -19 -13 -3 -33 -21 -45 -39 -13 -22 -32 -36 -50 -40 -15 -3 -29
-4 -30 -3 -12 12 4 149 18 154 21 8 6 30 -31 48 -22 10 -40 23 -40 27 0 5 -5
5 -11 1 -14 -8 20 45 44 69 17 17 18 16 29 -10 13 -32 15 -39 17 -55 0 -6 4
-8 7 -5 4 3 16 2 27 -4 13 -8 17 -8 13 0 -4 5 5 18 19 27 14 9 25 22 25 28 0
23 116 118 133 109 4 -2 3 -12 -2 -22z m340 -50 c0 -3 3 -14 5 -23 3 -10 7
-31 11 -48 5 -29 4 -30 -20 -21 -16 7 -28 6 -36 -2 -8 -8 -11 -8 -11 2 0 7 -3
10 -7 8 -12 -8 -14 82 -3 103 10 19 12 19 35 4 14 -9 25 -19 26 -23z m53 -161
c4 -5 5 -13 2 -19 -9 -15 -66 -14 -66 0 0 7 -8 18 -17 25 -15 11 -11 12 27 7
25 -3 49 -9 54 -13z m-467 -162 c0 -13 -1 -17 -4 -10 -3 6 -9 10 -14 6 -10 -6
-12 9 -2 19 12 13 19 7 20 -15z m1362 -370 c36 -51 59 -93 55 -100 -5 -7 -2
-9 8 -5 11 4 36 -18 82 -74 37 -43 71 -79 76 -79 6 0 10 -9 10 -20 0 -11 25
-54 56 -96 31 -41 69 -101 86 -132 16 -31 35 -64 43 -72 7 -8 20 -30 29 -47
16 -32 16 -33 -5 -33 -12 0 -19 -3 -15 -7 4 -5 13 -8 19 -8 17 0 66 -95 59
-113 -4 -11 -1 -13 8 -7 10 6 12 3 8 -13 -4 -12 -2 -20 2 -17 5 3 14 -8 21
-24 7 -16 17 -27 21 -25 13 8 9 -11 -4 -26 -11 -12 -10 -12 4 -1 21 16 40 11
44 -12 1 -11 -5 -17 -17 -17 -13 0 -18 4 -13 13 5 9 4 9 -6 0 -9 -9 -22 -8
-52 3 -22 8 -45 11 -51 7 -6 -3 -7 -1 -3 6 6 8 0 10 -18 5 -15 -3 -32 -2 -39
4 -6 5 -25 12 -42 15 -54 10 -181 43 -193 51 -9 5 -9 13 -2 26 7 13 7 21 -2
26 -7 4 -8 3 -4 -4 4 -7 5 -12 2 -12 -10 0 -36 72 -30 81 3 5 0 8 -7 7 -7 -2
-16 11 -20 27 -4 17 -19 72 -33 123 -14 50 -30 131 -36 180 -6 48 -17 113 -25
145 -8 31 -14 80 -14 107 1 34 -4 56 -15 69 -9 9 -16 22 -16 28 0 6 -11 34
-25 61 -25 50 -32 75 -17 57 5 -6 36 -49 71 -97z m-479 2 c0 -5 -2 -10 -4 -10
-3 0 -8 5 -11 10 -3 6 -1 10 4 10 6 0 11 -4 11 -10z m30 -18 c0 -4 -7 -15 -14
-25 -13 -16 -10 -22 27 -56 39 -36 40 -40 30 -72 -9 -30 -11 -32 -18 -14 -5
11 -12 22 -16 25 -6 4 -69 136 -69 143 0 1 14 3 30 4 17 1 30 -1 30 -5z m-243
-44 c-3 -7 -5 -2 -5 12 0 14 2 19 5 13 2 -7 2 -19 0 -25z m-2 -78 c3 -6 -1 -7
-9 -4 -18 7 -21 14 -7 14 6 0 13 -4 16 -10z m45 6 c0 -2 -8 -10 -17 -17 -16
-13 -17 -12 -4 4 13 16 21 21 21 13z m264 -109 c11 -17 21 -45 23 -62 4 -40
27 -120 69 -238 19 -54 32 -103 28 -108 -3 -5 -1 -9 3 -9 10 0 35 -61 28 -69
-3 -2 -5 1 -5 7 0 6 -7 9 -15 6 -11 -5 -15 1 -15 25 0 17 -4 31 -9 31 -5 0 -8
6 -8 13 1 6 -4 30 -11 52 -6 22 -30 103 -53 180 -22 77 -44 145 -48 150 -11
14 -20 55 -13 55 4 0 16 -15 26 -33z m-214 -78 c0 -6 -4 -7 -10 -4 -5 3 -10
11 -10 16 0 6 5 7 10 4 6 -3 10 -11 10 -16z m-3176 -5 c4 -11 14 -14 35 -9 25
5 30 3 33 -17 2 -17 8 -22 26 -20 15 2 22 -2 22 -13 0 -9 5 -13 10 -10 6 3 10
-1 10 -9 0 -20 -44 -21 -100 -4 -38 12 -44 21 -41 61 1 9 -3 17 -8 17 -6 0
-11 5 -11 10 0 16 17 12 24 -6z m3160 -120 c3 -8 2 -12 -4 -9 -6 3 -10 10 -10
16 0 14 7 11 14 -7z m-3077 -90 c-3 -3 -12 -4 -19 -1 -8 3 -5 6 6 6 11 1 17
-2 13 -5z m3180 -16 c-3 -8 -6 -5 -6 6 -1 11 2 17 5 13 3 -3 4 -12 1 -19z
m-274 -175 c-3 -7 -9 -10 -14 -7 -14 8 -11 21 5 21 8 0 12 -6 9 -14z m-48 -54
c11 -16 1 -19 -13 -3 -7 8 -8 14 -3 14 5 0 13 -5 16 -11z m195 -25 c0 -18 -4
-24 -13 -21 -8 3 -14 -1 -14 -8 0 -7 6 -11 14 -8 7 3 13 -2 13 -11 0 -9 -4
-16 -9 -16 -13 0 -32 26 -24 34 4 4 -4 5 -18 3 -17 -4 -26 -1 -26 9 0 9 4 10
12 4 15 -12 40 4 30 20 -5 8 -4 11 3 6 6 -3 13 -2 17 4 10 17 15 12 15 -16z
m37 -48 c-3 -8 -1 -17 6 -19 7 -2 9 -8 4 -12 -11 -13 -31 11 -24 29 4 9 9 16
13 16 3 0 4 -6 1 -14z m1247 -82 c22 -8 20 -23 -1 -19 -10 2 -22 4 -26 4 -5 1
-5 6 -2 11 7 12 8 12 29 4z m-1401 -71 c-5 -12 -2 -15 9 -10 12 4 14 1 11 -14
-6 -22 -23 -26 -23 -5 0 8 -5 16 -12 18 -6 2 -8 10 -4 16 11 18 26 14 19 -5z
m1040 -10 c-7 -2 -21 -2 -30 0 -10 3 -4 5 12 5 17 0 24 -2 18 -5z m-906 -35
c-3 -8 -6 -5 -6 6 -1 11 2 17 5 13 3 -3 4 -12 1 -19z"/>
<path d="M4753 4680 c-39 -18 -43 -33 -7 -24 25 6 26 5 22 -24 -4 -26 -2 -29
9 -20 8 6 13 23 11 37 -2 14 3 31 11 37 21 16 -6 13 -46 -6z"/>
<path d="M4676 4626 c-22 -47 -20 -53 9 -26 14 13 25 32 25 42 0 29 -16 21
-34 -16z"/>
<path d="M4735 4570 c-10 -11 -14 -20 -9 -20 5 0 15 9 22 20 7 11 11 20 9 20
-2 0 -12 -9 -22 -20z"/>
<path d="M4080 3927 c0 -9 -8 -21 -17 -26 -16 -9 -17 -10 -1 -11 17 0 35 36
24 47 -3 4 -6 -1 -6 -10z"/>
<path d="M4013 3885 c13 -27 27 -33 27 -12 0 14 -19 37 -31 37 -4 0 -2 -11 4
-25z"/>
<path d="M3380 3839 c0 -5 5 -7 10 -4 6 3 10 8 10 11 0 2 -4 4 -10 4 -5 0 -10
-5 -10 -11z"/>
<path d="M1020 3780 c0 -24 15 -27 24 -4 9 22 8 24 -9 24 -8 0 -15 -9 -15 -20z"/>
<path d="M614 3771 c-2 -2 -4 -66 -4 -141 0 -103 3 -140 13 -149 8 -6 16 -8
19 -6 3 3 41 7 84 8 44 1 85 6 92 10 17 11 15 52 -3 67 -8 7 -15 25 -15 41 0
19 -5 29 -15 29 -18 0 -19 -12 -3 -28 28 -28 -83 -64 -122 -40 -11 7 -21 24
-21 38 -1 14 -3 40 -5 58 -3 26 3 40 31 71 l35 39 -40 4 c-23 2 -43 2 -46 -1z"/>
<path d="M305 3641 c-8 -149 -1 -175 43 -165 15 4 41 22 58 42 27 31 32 33 51
21 12 -7 27 -23 34 -35 10 -19 15 -21 31 -11 21 13 21 32 2 220 l-6 57 -103 0
-103 0 -7 -129z"/>
<path d="M4592 3340 c-10 -16 -10 -20 2 -20 19 0 27 13 17 28 -4 8 -11 5 -19
-8z"/>
<path d="M4618 3253 c7 -3 16 -2 19 1 4 3 -2 6 -13 5 -11 0 -14 -3 -6 -6z"/>
<path d="M4215 3241 c-6 -10 44 -41 65 -41 5 0 10 9 10 21 0 15 -5 20 -22 18
-13 -2 -28 0 -35 4 -6 4 -14 3 -18 -2z"/>
<path d="M4225 3086 c0 -52 7 -55 78 -35 26 7 37 16 37 29 0 10 6 20 13 23 25
9 -3 19 -65 24 l-63 5 0 -46z"/>
<path d="M4200 3081 c0 -5 5 -13 10 -16 6 -3 10 -2 10 4 0 5 -4 13 -10 16 -5
3 -10 2 -10 -4z"/>
<path d="M4045 2968 l-16 -33 21 24 c11 13 20 27 20 32 0 18 -10 8 -25 -23z"/>
<path d="M3720 3416 c0 -2 9 -6 20 -9 11 -3 18 -1 14 4 -5 9 -34 13 -34 5z"/>
<path d="M3465 2830 c-3 -5 -1 -10 4 -10 6 0 11 5 11 10 0 6 -2 10 -4 10 -3 0
-8 -4 -11 -10z"/>
<path d="M3515 2830 c3 -5 8 -10 11 -10 2 0 4 5 4 10 0 6 -5 10 -11 10 -5 0
-7 -4 -4 -10z"/>
<path d="M3395 2680 c-3 -5 -1 -10 4 -10 6 0 11 5 11 10 0 6 -2 10 -4 10 -3 0
-8 -4 -11 -10z"/>
<path d="M3747 2631 c8 -31 33 -35 33 -6 0 18 -5 25 -19 25 -14 0 -18 -5 -14
-19z"/>
<path d="M3371 2624 c0 -11 3 -14 6 -6 3 7 2 16 -1 19 -3 4 -6 -2 -5 -13z"/>
<path d="M3760 2583 c0 -5 5 -15 10 -23 8 -12 10 -11 10 8 0 12 -4 22 -10 22
-5 0 -10 -3 -10 -7z"/>
<path d="M3423 2483 c-18 -6 -16 -33 1 -33 19 0 31 19 20 30 -5 4 -15 5 -21 3z"/>
<path d="M4731 2541 c-7 -5 -11 -19 -9 -32 4 -24 5 -24 16 5 14 32 12 39 -7
27z"/>
<path d="M4030 2515 c0 -8 2 -15 4 -15 2 0 6 7 10 15 3 8 1 15 -4 15 -6 0 -10
-7 -10 -15z"/>
<path d="M4674 2475 c-9 -13 -20 -23 -24 -20 -12 7 -22 -27 -11 -38 6 -6 21 2
40 24 33 36 37 44 21 54 -5 3 -17 -6 -26 -20z"/>
<path d="M4219 2474 c5 -11 7 -30 4 -42 -3 -13 -1 -22 6 -22 6 0 10 3 10 8 -3
20 2 32 15 32 8 0 18 5 22 11 4 7 -2 9 -17 7 -13 -2 -30 4 -37 12 -11 13 -12
12 -3 -6z"/>
<path d="M4131 2454 c0 -11 3 -14 6 -6 3 7 2 16 -1 19 -3 4 -6 -2 -5 -13z"/>
<path d="M4587 2425 c-7 -16 8 -29 23 -20 15 9 12 35 -4 35 -8 0 -16 -7 -19
-15z"/>
<path d="M4170 2369 c0 -5 5 -7 10 -4 6 3 10 8 10 11 0 2 -4 4 -10 4 -5 0 -10
-5 -10 -11z"/>
<path d="M5086 2299 c2 -4 -3 -10 -12 -13 -10 -4 -13 -2 -8 7 5 8 2 7 -9 -2
-11 -8 -17 -9 -17 -2 0 6 -20 0 -44 -14 -24 -13 -46 -22 -48 -19 -3 2 -10 -1
-16 -9 -9 -11 0 -12 50 -9 41 3 58 1 54 -6 -9 -15 61 -7 109 13 39 17 83 53
68 57 -23 5 -130 2 -127 -3z m-6 -43 c0 -2 -8 -10 -17 -17 -16 -13 -17 -12 -4
4 13 16 21 21 21 13z"/>
<path d="M5286 2272 c-3 -5 -16 -7 -30 -5 -13 3 -27 0 -30 -6 -5 -7 3 -11 21
-10 38 1 70 14 56 22 -7 4 -14 3 -17 -1z"/>
<path d="M5308 2195 c-3 -3 -34 -13 -69 -22 -72 -18 -124 -47 -181 -103 -34
-32 -65 -50 -190 -112 -10 -4 -23 -8 -30 -8 -7 0 -24 -12 -37 -25 -15 -17 -19
-25 -9 -25 8 0 19 5 26 12 9 9 12 9 12 -1 0 -8 9 -3 21 10 11 13 18 19 15 14
-3 -7 8 -9 31 -7 24 3 31 7 22 13 -15 10 -6 11 65 12 32 0 47 7 75 34 37 36
77 60 121 74 22 6 23 7 4 8 -12 1 -41 -6 -64 -14 -48 -17 -69 -19 -54 -6 18
16 140 78 179 91 22 7 49 19 60 26 11 8 29 14 40 14 16 0 17 2 5 10 -17 11
-34 13 -42 5z m-278 -195 c-13 -11 -30 -20 -39 -19 -13 0 -13 2 -1 6 8 3 23
14 34 24 11 11 22 17 24 14 3 -3 -5 -14 -18 -25z"/>
<path d="M4376 2148 c13 -14 20 -15 31 -7 18 16 16 18 -9 11 -12 -3 -19 -1
-15 5 3 5 0 10 -8 10 -13 0 -12 -3 1 -19z"/>
<path d="M4953 2123 c-18 -9 -22 -9 -16 0 4 7 0 7 -10 -2 -9 -7 -17 -10 -17
-5 0 4 -5 3 -11 -3 -8 -8 -20 -8 -34 -3 -19 7 -26 4 -39 -15 -9 -13 -13 -31
-10 -39 4 -11 0 -16 -12 -16 -9 0 -14 -3 -10 -7 13 -13 35 -11 48 5 11 13 11
14 -2 7 -13 -7 -13 -6 -2 7 7 8 10 23 6 32 -4 11 -2 15 8 11 16 -6 20 -35 6
-35 -5 0 -7 -4 -3 -10 3 -5 15 -6 29 0 26 9 136 78 136 85 0 8 -44 0 -67 -12z
m-38 -43 c-3 -5 -13 -10 -21 -10 -8 0 -12 5 -9 10 3 6 13 10 21 10 8 0 12 -4
9 -10z"/>
<path d="M4708 2043 c7 -3 16 -2 19 1 4 3 -2 6 -13 5 -11 0 -14 -3 -6 -6z"/>
<path d="M4789 1953 c-13 -16 -12 -17 4 -4 16 13 21 21 13 21 -2 0 -10 -8 -17
-17z"/>
<path d="M4742 1905 c-15 -32 -15 -46 -1 -22 6 9 13 15 17 13 4 -3 8 4 8 15 0
26 -11 24 -24 -6z"/>
<path d="M2230 2320 c19 -13 30 -13 30 0 0 6 -10 10 -22 10 -19 0 -20 -2 -8
-10z"/>
<path d="M2360 2195 c0 -12 -3 -16 -8 -9 -4 7 -13 -1 -24 -22 -14 -27 -14 -32
-3 -27 8 3 15 9 15 14 0 5 8 9 18 9 20 0 64 29 45 30 -7 0 -16 0 -19 -1 -4 0
-11 5 -15 13 -6 10 -9 8 -9 -7z"/>
<path d="M2338 2083 c-8 -10 -18 -40 -22 -68 -4 -34 -3 -45 4 -35 5 8 10 29
10 45 1 33 22 69 35 57 5 -4 5 -1 1 6 -9 16 -10 15 -28 -5z"/>
<path d="M4145 1660 c-3 -5 -2 -10 4 -10 5 0 13 5 16 10 3 6 2 10 -4 10 -5 0
-13 -4 -16 -10z"/>
<path d="M4698 1703 c7 -3 16 -2 19 1 4 3 -2 6 -13 5 -11 0 -14 -3 -6 -6z"/>
<path d="M5848 733 c7 -3 16 -2 19 1 4 3 -2 6 -13 5 -11 0 -14 -3 -6 -6z"/>
<path d="M5833 653 c9 -2 25 -2 35 0 9 3 1 5 -18 5 -19 0 -27 -2 -17 -5z"/>
<path d="M5820 412 c0 -5 24 -9 53 -10 40 0 46 1 27 8 -33 11 -80 12 -80 2z"/>
<path d="M6002 399 c11 -6 29 -6 50 0 32 9 31 9 -17 10 -38 0 -46 -2 -33 -10z"/>
<path d="M2447 3863 c-9 -9 -9 -33 1 -33 4 0 13 9 20 20 10 16 10 20 -1 20 -8
0 -17 -3 -20 -7z"/>
<path d="M2058 3705 c-2 -41 -1 -80 0 -85 5 -15 25 -12 52 10 20 16 22 20 8
20 -19 0 -21 8 -22 80 -1 33 -5 45 -18 48 -14 3 -17 -8 -20 -73z"/>
<path d="M2718 3713 c7 -3 16 -2 19 1 4 3 -2 6 -13 5 -11 0 -14 -3 -6 -6z"/>
<path d="M2167 3649 c7 -7 15 -10 18 -7 3 3 -2 9 -12 12 -14 6 -15 5 -6 -5z"/>
<path d="M2227 3649 c7 -7 15 -10 18 -7 3 3 -2 9 -12 12 -14 6 -15 5 -6 -5z"/>
<path d="M2253 3585 c0 -8 4 -12 9 -9 5 3 6 10 3 15 -9 13 -12 11 -12 -6z"/>
<path d="M2264 3558 c-4 -6 -3 -8 3 -5 6 4 14 0 17 -9 3 -8 2 -13 -2 -10 -4 2
-7 -16 -8 -40 -1 -29 3 -41 10 -37 8 5 8 3 0 -8 -5 -8 -9 -25 -8 -39 1 -14 -3
-28 -10 -32 -8 -5 -8 -10 0 -18 7 -7 16 -4 30 11 10 13 15 20 9 17 -16 -10
-10 52 8 69 12 12 13 21 5 42 -29 73 -39 84 -54 59z"/>
<path d="M1956 3539 c9 -15 8 -299 -1 -329 -6 -21 -5 -23 6 -12 12 11 29 110
29 167 0 11 0 42 0 70 0 55 -16 115 -31 115 -6 0 -7 -5 -3 -11z"/>
<path d="M2210 3488 c0 -21 2 -38 4 -38 9 0 12 50 5 62 -6 8 -9 -1 -9 -24z"/>
<path d="M2097 3457 c-14 -21 -23 -90 -19 -146 2 -16 6 -21 17 -17 8 3 15 0
15 -7 1 -7 10 -1 21 13 16 19 19 33 15 65 -16 122 -22 133 -49 92z"/>
<path d="M2305 3440 c-3 -5 -2 -10 4 -10 6 0 8 -8 5 -17 -5 -14 -4 -15 4 -4 6
8 8 20 5 28 -6 16 -10 16 -18 3z"/>
<path d="M2344 3372 c9 -62 10 -66 17 -72 12 -10 22 -53 10 -46 -7 5 -9 1 -5
-9 6 -14 8 -13 21 5 8 11 11 25 7 32 -4 7 -3 8 4 4 17 -11 -14 71 -39 102
l-22 27 7 -43z"/>
<path d="M2734 3369 c-3 -6 2 -18 11 -27 10 -10 15 -11 10 -3 -4 7 -2 16 5 21
8 5 8 9 -4 13 -8 3 -18 1 -22 -4z"/>
<path d="M2265 3330 c-3 -5 -1 -10 4 -10 6 0 11 5 11 10 0 6 -2 10 -4 10 -3 0
-8 -4 -11 -10z"/>
<path d="M2426 3314 c-3 -8 1 -17 9 -21 12 -4 13 -9 4 -19 -8 -10 -6 -12 10
-9 25 5 37 -25 21 -55 -6 -11 -13 -20 -16 -20 -2 0 0 9 6 20 12 22 5 44 -10
35 -15 -9 -1 -79 18 -93 14 -11 19 -10 29 5 15 20 16 13 3 -21 -12 -32 3 -43
19 -13 14 26 22 79 11 72 -4 -2 -7 2 -7 10 0 8 4 12 8 9 5 -2 6 10 4 27 -4 37
-27 61 -72 76 -26 9 -33 9 -37 -3z"/>
<path d="M95 3268 c-11 -6 -32 -22 -46 -36 -22 -22 -25 -31 -19 -63 4 -21 17
-52 29 -71 l22 -33 -6 35 c-9 48 20 118 52 131 13 5 102 9 196 9 167 0 207 6
193 29 -9 15 -394 14 -421 -1z"/>
<path d="M546 3272 c-2 -4 0 -47 5 -97 4 -49 8 -105 8 -124 2 -72 15 -17 18
76 2 53 8 102 13 108 7 9 40 12 100 11 50 0 90 3 90 7 0 4 -6 9 -12 12 -24 7
-218 13 -222 7z"/>
<path d="M2399 3254 c-8 -10 -10 -21 -3 -31 14 -22 27 -21 29 4 1 12 -3 19 -8
16 -6 -4 -8 0 -4 10 8 21 3 22 -14 1z m15 -30 c3 -8 2 -12 -4 -9 -6 3 -10 10
-10 16 0 14 7 11 14 -7z"/>
<path d="M1896 3214 c-4 -10 -1 -14 6 -12 15 5 23 28 10 28 -5 0 -13 -7 -16
-16z"/>
<path d="M1456 3199 c-27 -22 -40 -80 -24 -114 15 -32 28 -22 28 22 0 19 9 48
21 64 19 27 25 29 81 29 81 0 67 12 -17 15 -51 1 -71 -2 -89 -16z"/>
<path d="M1834 3179 c3 -17 6 -35 6 -40 0 -5 5 -9 10 -9 6 0 10 18 10 40 0 30
-4 40 -16 40 -13 0 -15 -7 -10 -31z"/>
<path d="M4935 3201 c-18 -15 -65 -22 -65 -9 0 9 -3 9 -12 0 -7 -7 -19 -12
-28 -12 -9 0 -25 -9 -35 -20 -10 -11 -13 -20 -7 -20 7 0 12 -5 12 -11 0 -5 -4
-7 -10 -4 -6 4 -7 -1 -3 -10 5 -14 10 -12 30 14 28 36 53 40 53 10 0 -11 5
-17 10 -14 6 4 8 10 5 15 -2 4 11 18 30 31 19 13 35 27 35 32 0 9 -4 9 -15 -2z"/>
<path d="M1128 3185 c-2 -3 -25 -5 -51 -6 -62 -3 -68 -9 -75 -64 -5 -45 -4
-47 17 -40 13 4 21 2 21 -5 0 -7 8 -9 23 -4 30 9 33 12 19 26 -17 17 -15 28 4
28 9 0 23 8 30 18 10 12 16 14 21 5 5 -6 17 -13 28 -15 20 -3 23 12 10 50 -4
12 -37 17 -47 7z"/>
<path d="M884 3133 c-8 -38 -41 -110 -54 -118 -5 -3 -10 -12 -10 -20 0 -7 -12
-27 -27 -43 -43 -45 -73 -86 -73 -99 0 -27 28 -11 58 31 18 25 42 48 55 52 12
4 28 15 35 25 15 21 53 26 50 7 -2 -8 11 -14 35 -16 29 -3 37 0 37 13 0 9 13
21 30 26 17 6 30 15 30 19 0 8 -28 7 -109 -6 -35 -6 -42 -4 -36 6 6 9 4 12 -7
8 -13 -5 -13 0 -1 45 7 28 13 59 13 69 0 29 -19 30 -26 1z"/>
<path d="M4980 3145 c-14 -8 -33 -14 -42 -15 -10 0 -18 -4 -18 -8 0 -5 -10
-14 -22 -20 l-23 -11 22 0 c12 -1 23 3 25 8 2 4 26 20 53 34 28 14 46 26 40
26 -5 0 -21 -6 -35 -14z"/>
<path d="M1841 3115 c1 -19 18 -51 18 -35 0 8 -4 22 -9 30 -5 8 -9 11 -9 5z"/>
<path d="M1851 2998 c-1 -55 2 -68 15 -68 8 0 13 4 9 9 -5 9 3 13 58 25 33 8
38 38 5 36 -47 -4 -58 1 -72 33 -14 32 -14 32 -15 -35z"/>
<path d="M1340 3026 c-20 -20 -6 -62 23 -65 4 -1 8 -1 10 -2 1 0 15 -3 30 -5
39 -7 32 16 -11 36 -37 17 -41 30 -10 30 12 0 18 3 14 7 -11 11 -44 11 -56 -1z"/>
<path d="M2722 3034 c4 -3 1 -13 -7 -21 -18 -17 -20 -43 -4 -43 6 0 9 -7 5
-15 -3 -8 -1 -15 4 -15 6 0 10 15 10 33 0 18 5 38 11 44 7 7 5 12 -8 17 -9 4
-14 4 -11 0z"/>
<path d="M1488 2987 c27 -46 43 -50 189 -42 107 6 136 10 140 23 12 30 -24 40
-155 42 -70 0 -141 2 -159 4 l-32 2 17 -29z"/>
<path d="M1100 2996 c0 -9 7 -16 16 -16 9 0 14 5 12 12 -6 18 -28 21 -28 4z"/>
<path d="M650 2980 c0 -5 16 -17 35 -26 34 -16 35 -16 54 7 23 28 10 37 -25
18 -19 -10 -27 -10 -36 -1 -14 14 -28 16 -28 2z"/>
<path d="M2464 2945 c-29 -44 -7 -42 30 3 17 19 17 22 3 22 -9 0 -24 -11 -33
-25z"/>
<path d="M5065 2950 c-3 -5 0 -10 9 -10 8 0 23 -3 33 -6 16 -6 16 -5 -2 9 -24
19 -32 21 -40 7z"/>
<path d="M2053 2873 c9 -2 25 -2 35 0 9 3 1 5 -18 5 -19 0 -27 -2 -17 -5z"/>
<path d="M1599 2866 c-2 -2 -34 -6 -71 -9 -37 -3 -71 -8 -76 -11 -4 -2 -37 -6
-73 -7 -35 -1 -69 -6 -76 -11 -7 -5 -18 -6 -25 -2 -23 15 -108 12 -108 -3 0
-7 -11 -13 -25 -13 -14 0 -25 5 -25 10 0 6 -15 9 -32 9 l-33 -1 30 -9 c23 -6
16 -8 -30 -5 -33 1 -49 1 -35 -2 22 -3 19 -7 -30 -31 -64 -32 -100 -78 -124
-163 -9 -31 -16 -61 -15 -65 5 -30 -3 -83 -11 -78 -13 8 -13 -16 1 -52 10 -27
131 -193 176 -243 13 -14 23 -28 23 -31 0 -3 16 -26 35 -50 49 -62 45 -88 -14
-79 -7 1 -24 -8 -37 -21 -16 -15 -30 -20 -47 -15 -17 4 -32 -1 -48 -15 -16
-14 -31 -18 -49 -14 -18 4 -31 1 -40 -10 -8 -9 -29 -15 -56 -15 -23 0 -46 -4
-49 -10 -3 -5 -23 -10 -44 -10 -20 0 -41 -4 -46 -9 -6 -5 -26 -11 -45 -13 -27
-2 -34 -7 -32 -20 2 -10 -2 -18 -8 -18 -5 0 -10 5 -10 10 0 13 -76 13 -101 -1
-11 -6 -44 -12 -72 -14 -29 -2 -68 -6 -87 -9 -19 -2 -91 -11 -160 -20 -69 -8
-126 -15 -127 -15 -2 -1 -3 -11 -3 -22 0 -19 4 -20 32 -15 18 3 39 7 46 8 6 1
12 8 12 15 0 11 4 11 17 -2 11 -12 24 -15 42 -10 14 4 44 9 66 11 22 1 69 8
105 14 36 6 85 13 109 15 24 2 51 7 60 11 9 3 33 8 55 10 21 2 44 8 50 13 10
8 27 11 136 27 25 3 52 12 60 19 8 7 30 12 47 12 18 0 41 7 51 16 13 12 28 15
48 11 22 -4 34 0 48 15 13 14 26 19 45 15 18 -4 33 0 44 10 9 9 32 16 54 16
29 0 41 -5 53 -24 8 -14 37 -53 65 -87 55 -71 63 -101 64 -254 1 -49 7 -116
15 -147 8 -33 9 -62 4 -70 -4 -7 -8 -26 -7 -43 2 -56 -1 -76 -10 -70 -16 9
-20 -9 -5 -23 21 -19 34 16 34 88 0 34 4 59 9 56 5 -4 12 0 15 6 4 9 5 8 5 -2
-1 -8 -1 -33 0 -54 l1 -39 26 24 c14 13 30 35 35 47 5 13 18 26 30 29 32 9 19
38 -19 41 -39 4 -43 29 -12 80 21 34 55 41 55 12 0 -45 89 -61 126 -23 16 16
17 24 8 63 -6 25 -12 54 -15 65 -3 20 -80 95 -97 95 -4 0 -5 5 -2 10 10 15 21
12 54 -16 35 -29 45 -10 11 21 -18 16 -19 42 -1 31 4 -3 8 8 9 24 0 16 7 42
16 57 8 16 20 50 28 76 9 35 21 54 40 65 30 18 38 38 12 28 -9 -4 -23 -1 -30
5 -11 9 -14 8 -14 -1 0 -7 -8 -19 -17 -27 -11 -9 -12 -12 -3 -7 8 4 4 -4 -10
-18 -17 -16 -29 -21 -37 -15 -7 5 -19 7 -28 4 -8 -4 -17 -2 -20 4 -4 5 -10 7
-15 4 -19 -12 -50 15 -50 44 0 24 -4 28 -30 28 -22 0 -30 -5 -30 -19 0 -10 -4
-18 -9 -18 -4 0 -11 28 -15 63 -3 34 -13 130 -21 212 -8 83 -22 215 -30 294
-8 79 -12 147 -10 151 2 4 53 10 112 14 59 3 167 11 240 18 121 10 133 10 158
-6 15 -10 30 -27 32 -37 3 -10 10 -19 15 -19 6 0 8 -9 5 -20 -3 -13 0 -20 9
-20 8 0 14 10 14 23 0 12 10 31 22 41 l22 19 -46 42 c-26 23 -61 45 -79 49
-34 6 -203 9 -210 2z m-372 -171 c19 -96 25 -115 33 -115 5 0 11 6 13 13 8 19
8 -85 0 -113 l-7 -25 -7 25 c-8 26 -3 -84 11 -284 5 -66 7 -122 5 -126 -3 -4
-14 -7 -26 -6 -22 1 -57 42 -220 254 -39 50 -75 92 -79 92 -4 0 -19 22 -33 49
-48 88 -31 227 32 266 16 10 196 34 241 31 22 -1 26 -8 37 -61z m55 -77 c-7
-7 -12 -8 -12 -2 0 14 12 26 19 19 2 -3 -1 -11 -7 -17z m-15 -574 c-3 -3 -12
-4 -19 -1 -8 3 -5 6 6 6 11 1 17 -2 13 -5z m161 -73 c33 -16 85 -30 93 -25 5
3 9 -7 9 -23 0 -25 -100 -205 -121 -218 -9 -6 -16 46 -23 178 -6 103 -2 110
42 88z m-463 -11 c-3 -5 -10 -10 -16 -10 -5 0 -9 5 -9 10 0 6 7 10 16 10 8 0
12 -4 9 -10z m-95 -25 c0 -8 -4 -15 -10 -15 -5 0 -10 7 -10 15 0 8 5 15 10 15
6 0 10 -7 10 -15z m-100 -25 c0 -5 -4 -10 -10 -10 -5 0 -10 5 -10 10 0 6 5 10
10 10 6 0 10 -4 10 -10z m-99 -23 c-1 -12 -15 -9 -19 4 -3 6 1 10 8 8 6 -3 11
-8 11 -12z m-201 -47 c0 -5 -2 -10 -4 -10 -3 0 -8 5 -11 10 -3 6 -1 10 4 10 6
0 11 -4 11 -10z m-105 -10 c3 -5 1 -10 -4 -10 -6 0 -11 5 -11 10 0 6 2 10 4
10 3 0 8 -4 11 -10z m-95 -14 c0 -3 -4 -8 -10 -11 -5 -3 -10 -1 -10 4 0 6 5
11 10 11 6 0 10 -2 10 -4z m-110 -16 c0 -5 -4 -10 -10 -10 -5 0 -10 5 -10 10
0 6 5 10 10 10 6 0 10 -4 10 -10z m1390 -101 c25 -23 36 -36 24 -30 -11 5 -27
17 -34 26 -12 14 -15 14 -31 -1 -11 -10 -19 -14 -19 -10 0 3 -11 -1 -25 -10
-22 -14 -38 -53 -17 -40 4 2 8 -6 8 -20 0 -29 -7 -30 -30 -5 -23 26 -14 55 33
98 20 18 38 33 41 33 3 -1 25 -19 50 -41z m-5 -59 c-3 -5 -11 -10 -16 -10 -6
0 -7 5 -4 10 3 6 11 10 16 10 6 0 7 -4 4 -10z m-182 -181 c4 -16 3 -18 -9 -8
-7 6 -11 15 -8 20 8 13 11 11 17 -12z"/>
<path d="M2065 2814 l-30 -13 30 6 c32 6 41 11 34 17 -2 2 -17 -2 -34 -10z"/>
<path d="M2177 2820 c-52 -10 -56 -18 -8 -16 23 0 47 -6 58 -15 16 -14 22 -14
61 0 24 9 42 21 40 26 -3 10 -10 10 -65 -1 -22 -4 -33 -2 -33 5 0 6 -3 10 -7
10 -5 -1 -25 -5 -46 -9z"/>
<path d="M2365 2790 c3 -5 14 -10 23 -10 15 0 15 2 2 10 -20 13 -33 13 -25 0z"/>
<path d="M2108 2783 c7 -3 16 -2 19 1 4 3 -2 6 -13 5 -11 0 -14 -3 -6 -6z"/>
<path d="M633 2748 c4 -12 1 -28 -5 -35 -6 -8 -7 -13 0 -13 21 0 34 28 22 49
-14 28 -24 27 -17 -1z"/>
<path d="M1835 2510 c10 -11 20 -20 23 -20 3 0 -3 9 -13 20 -10 11 -20 20 -23
20 -3 0 3 -9 13 -20z"/>
<path d="M1871 2485 c0 -5 16 -28 36 -50 19 -22 31 -31 25 -20 -16 30 -61 81
-61 70z"/>
<path d="M1830 2445 c19 -19 36 -35 39 -35 3 0 -10 16 -29 35 -19 19 -36 35
-39 35 -3 0 10 -16 29 -35z"/>
<path d="M1865 2370 c3 -18 0 -20 -18 -15 -15 4 -18 3 -8 -3 11 -8 10 -14 -4
-38 l-17 -29 19 24 c22 26 39 16 19 -11 -8 -11 -24 -17 -44 -15 -36 2 -41 10
-13 23 16 7 17 11 6 21 -10 9 -18 7 -39 -10 -28 -24 -24 -41 14 -55 24 -9 24
-10 -18 -31 -23 -12 -42 -24 -42 -27 0 -2 10 1 23 7 20 11 21 11 8 -4 -10 -13
-10 -17 -1 -17 6 0 14 9 17 19 5 21 41 38 87 43 28 3 51 28 26 28 -6 0 -8 -4
-5 -10 3 -5 -3 -10 -15 -10 -19 0 -20 2 -6 15 8 8 30 18 48 22 18 3 38 10 45
15 7 5 14 5 17 -1 3 -5 -10 -15 -29 -21 -19 -6 -35 -16 -35 -21 0 -13 51 1 69
18 7 8 16 11 20 8 9 -10 -39 -45 -63 -45 -19 -1 -19 -2 -3 -11 19 -11 57 -3
57 12 0 5 9 9 20 9 27 0 25 11 -5 45 -20 20 -32 25 -50 21 -31 -8 -32 1 -2 15
20 9 20 9 -5 4 -22 -4 -26 -2 -22 10 5 11 2 13 -10 9 -11 -4 -16 -2 -14 7 2 7
-5 14 -14 17 -13 2 -16 -2 -13 -18z"/>
<path d="M1927 2379 c7 -7 15 -10 18 -7 3 3 -2 9 -12 12 -14 6 -15 5 -6 -5z"/>
<path d="M2650 2370 c0 -5 7 -7 15 -4 8 4 15 8 15 10 0 2 -7 4 -15 4 -8 0 -15
-4 -15 -10z"/>
<path d="M2499 2358 c-5 -16 -3 -55 3 -52 4 3 7 16 6 29 -2 21 -6 31 -9 23z"/>
<path d="M1726 2272 c-3 -6 1 -15 8 -21 8 -7 17 -8 20 -3 3 6 -1 15 -8 21 -8
7 -17 8 -20 3z"/>
<path d="M1805 2230 c-3 -5 3 -10 14 -10 11 0 23 5 26 10 3 6 -3 10 -14 10
-11 0 -23 -4 -26 -10z"/>
<path d="M3542 2218 c6 -18 76 -39 81 -25 2 7 -13 17 -32 24 -45 16 -54 16
-49 1z"/>
<path d="M1520 2187 c0 -7 5 -18 10 -23 12 -12 3 -44 -11 -44 -5 0 -9 8 -9 19
0 10 -7 24 -15 31 -13 10 -15 9 -15 -11 1 -37 22 -58 53 -52 17 3 27 1 27 -6
0 -8 11 -11 28 -9 24 3 27 7 27 38 0 24 -5 35 -15 35 -8 0 -30 8 -47 18 -25
13 -33 14 -33 4z"/>
<path d="M3741 2153 c-19 -8 -45 -13 -57 -10 -23 4 -22 3 5 -37 15 -23 36 -68
46 -101 10 -33 24 -67 30 -75 7 -8 16 -25 19 -37 9 -27 33 -53 49 -53 7 0 4 5
-5 11 -22 12 -23 26 -3 31 13 2 11 9 -9 37 -14 19 -23 38 -20 43 3 5 -2 15
-11 22 -10 7 -18 27 -19 44 0 18 -5 32 -10 32 -16 0 18 32 56 51 21 11 38 21
38 22 0 1 -18 1 -39 -1 -36 -4 -39 -2 -34 17 3 12 4 21 2 20 -2 0 -19 -7 -38
-16z"/>
<path d="M1679 2140 c-9 -6 -6 -8 14 -6 32 3 43 11 18 13 -9 1 -24 -2 -32 -7z"/>
<path d="M1561 2044 c0 -11 3 -14 6 -6 3 7 2 16 -1 19 -3 4 -6 -2 -5 -13z"/>
<path d="M1707 2049 c7 -7 15 -10 18 -7 3 3 -2 9 -12 12 -14 6 -15 5 -6 -5z"/>
<path d="M3513 1966 l-28 -25 21 -22 22 -21 31 29 c30 29 30 31 13 47 -24 21
-26 21 -59 -8z"/>
<path d="M3623 1906 c3 -8 1 -17 -6 -19 -7 -3 -2 -4 10 -4 17 1 20 4 12 19
-12 21 -24 24 -16 4z"/>
<path d="M3575 1890 c3 -5 8 -10 11 -10 2 0 4 5 4 10 0 6 -5 10 -11 10 -5 0
-7 -4 -4 -10z"/>
<path d="M3210 1880 c0 -5 5 -10 11 -10 5 0 7 5 4 10 -3 6 -8 10 -11 10 -2 0
-4 -4 -4 -10z"/>
<path d="M3590 1866 c0 -8 51 -13 56 -5 3 5 -9 9 -25 9 -17 0 -31 -2 -31 -4z"/>
<path d="M3618 1833 c7 -3 16 -2 19 1 4 3 -2 6 -13 5 -11 0 -14 -3 -6 -6z"/>
<path d="M3636 1812 l-19 -27 26 24 c28 26 32 31 20 31 -5 0 -17 -13 -27 -28z"/>
<path d="M2715 1790 c-3 -5 -2 -10 4 -10 5 0 13 5 16 10 3 6 2 10 -4 10 -5 0
-13 -4 -16 -10z"/>
<path d="M3601 1771 c-8 -5 -9 -11 -3 -15 5 -3 12 1 16 9 6 17 6 18 -13 6z"/>
<path d="M3826 1740 c12 -5 25 -13 29 -19 3 -6 11 -11 17 -11 6 0 3 9 -7 20
-10 11 -28 20 -39 19 -21 0 -21 0 0 -9z"/>
<path d="M3740 1725 c-14 -8 -49 -22 -78 -31 -55 -16 -76 -39 -51 -55 12 -7
12 -9 0 -9 -8 0 -11 -3 -8 -6 4 -4 14 -1 24 7 11 9 14 10 9 2 -9 -15 -1 -16
23 -3 11 5 30 6 47 0 28 -8 28 -8 -10 -9 -22 -1 -37 -3 -35 -5 5 -5 55 -17 76
-18 7 -1 10 -4 8 -8 -5 -9 43 -35 50 -28 3 3 -8 31 -25 63 -36 68 -36 69 -10
95 23 23 15 25 -20 5z"/>
<path d="M4570 1611 c0 -7 -4 -9 -10 -6 -5 3 -10 -1 -10 -9 0 -9 4 -16 9 -16
11 0 24 31 16 38 -3 3 -5 0 -5 -7z"/>
<path d="M4520 1586 c0 -8 4 -17 9 -20 5 -4 7 3 4 14 -6 23 -13 26 -13 6z"/>
<path d="M4596 1575 c-4 -12 -1 -16 11 -13 18 3 21 20 5 26 -5 1 -12 -4 -16
-13z"/>
<path d="M4445 1569 c-5 -8 -4 -10 3 -5 16 10 15 -6 0 -24 -7 -8 -4 -7 7 2 14
13 16 21 8 29 -8 8 -13 7 -18 -2z"/>
<path d="M3778 1543 c7 -3 16 -2 19 1 4 3 -2 6 -13 5 -11 0 -14 -3 -6 -6z"/>
<path d="M4515 1539 c-4 -6 -5 -12 -2 -15 2 -3 7 2 10 11 7 17 1 20 -8 4z"/>
<path d="M840 1520 c-13 -8 -12 -10 3 -10 9 0 17 5 17 10 0 12 -1 12 -20 0z"/>
<path d="M4465 1509 c-4 -6 -5 -12 -2 -15 2 -3 7 2 10 11 7 17 1 20 -8 4z"/>
<path d="M1760 1455 c0 -8 5 -15 10 -15 6 0 10 -7 10 -15 0 -8 -9 -15 -20 -15
-11 0 -20 5 -20 10 0 6 -7 10 -15 10 -8 0 -15 -5 -15 -11 0 -5 5 -7 12 -3 8 5
9 2 5 -10 -4 -9 -3 -15 2 -11 5 3 12 -1 14 -7 4 -10 7 -10 15 0 5 7 16 10 27
6 15 -6 17 -4 12 10 -4 9 -3 15 2 11 5 -3 12 -1 16 5 3 5 2 10 -4 10 -6 0 -8
7 -5 15 5 11 2 13 -10 9 -9 -3 -16 -1 -16 5 0 6 -4 11 -10 11 -5 0 -10 -7 -10
-15z"/>
<path d="M4052 1449 c-12 -19 -11 -19 8 -9 11 6 18 15 15 21 -8 12 -8 12 -23
-12z"/>
<path d="M1730 1450 c0 -5 5 -10 10 -10 6 0 10 5 10 10 0 6 -4 10 -10 10 -5 0
-10 -4 -10 -10z"/>
<path d="M4045 1420 c-18 -8 -17 -9 8 -9 15 -1 27 4 27 9 0 12 -8 12 -35 0z"/>
<path d="M1870 1400 c0 -5 -7 -10 -15 -10 -8 0 -15 -4 -15 -10 0 -5 4 -10 10
-10 5 0 6 -7 3 -17 -4 -11 -3 -14 5 -9 7 4 12 2 12 -5 0 -6 8 -9 20 -6 10 3
22 0 25 -7 3 -8 7 -8 11 2 3 6 9 10 14 7 4 -2 8 7 8 20 0 14 -6 25 -13 25 -7
0 -16 8 -19 17 -6 15 -8 15 -16 3 -7 -10 -10 -11 -10 -2 0 6 -4 12 -10 12 -5
0 -10 -4 -10 -10z m43 -35 c1 -5 -6 -11 -15 -13 -11 -2 -18 3 -18 13 0 17 30
18 33 0z"/>
<path d="M4698 1403 c7 -3 16 -2 19 1 4 3 -2 6 -13 5 -11 0 -14 -3 -6 -6z"/>
<path d="M690 1355 c0 -12 7 -15 25 -13 14 2 26 8 26 13 0 6 -12 11 -26 13
-18 2 -25 -1 -25 -13z"/>
<path d="M940 1360 c0 -5 5 -10 10 -10 6 0 10 5 10 10 0 6 -4 10 -10 10 -5 0
-10 -4 -10 -10z"/>
<path d="M1045 1360 c-3 -5 1 -10 9 -10 9 0 16 5 16 10 0 6 -4 10 -9 10 -6 0
-13 -4 -16 -10z"/>
<path d="M1678 1323 c-4 -13 0 -19 13 -19 14 0 16 3 6 16 -6 8 -12 16 -13 18
-1 1 -4 -5 -6 -15z"/>
<path d="M1080 1300 c0 -5 5 -10 10 -10 6 0 10 5 10 10 0 6 -4 10 -10 10 -5 0
-10 -4 -10 -10z"/>
<path d="M1160 1300 c-13 -9 -13 -10 0 -10 8 0 22 5 30 10 13 9 13 10 0 10 -8
0 -22 -5 -30 -10z"/>
<path d="M1686 1274 c-4 -9 -4 -19 -1 -22 2 -3 7 3 11 12 4 9 4 19 1 22 -2 3
-7 -3 -11 -12z"/>
<path d="M1200 1265 c0 -8 4 -15 10 -15 5 0 7 7 4 15 -4 8 -8 15 -10 15 -2 0
-4 -7 -4 -15z"/>
<path d="M1123 1208 c-54 -16 -73 -26 -77 -42 -6 -19 -7 -20 -19 -4 -15 20
-68 28 -74 12 -2 -7 6 -10 23 -6 20 4 25 2 19 -8 -5 -8 -20 -10 -45 -6 -27 4
-52 0 -84 -14 -39 -16 -48 -17 -59 -5 -12 12 -18 10 -41 -14 l-27 -28 23 -6
c13 -4 32 0 46 9 13 9 29 14 35 11 7 -2 39 0 72 5 33 5 94 13 135 18 116 14
170 27 170 42 0 5 -4 6 -10 3 -15 -9 -12 4 5 21 38 39 13 42 -92 12z m17 -28
c0 -5 -9 -10 -20 -10 -11 0 -20 5 -20 10 0 6 9 10 20 10 11 0 20 -4 20 -10z"/>
<path d="M600 1166 c0 -17 32 -15 38 2 2 7 -6 12 -17 12 -12 0 -21 -6 -21 -14z"/>
<path d="M1764 1172 c-12 -7 -44 -65 -44 -79 0 -4 12 9 26 30 14 21 35 42 47
47 21 8 21 9 2 9 -11 0 -25 -3 -31 -7z"/>
<path d="M382 1144 c-13 -9 -32 -14 -43 -11 -16 4 -18 1 -13 -19 6 -24 -9 -34
-21 -14 -3 6 -14 10 -24 10 -10 0 -24 7 -31 15 -10 12 -15 12 -35 -1 -22 -14
-55 -10 -55 7 0 5 -4 9 -10 9 -5 0 -10 -9 -10 -21 0 -17 -4 -20 -28 -14 -25 5
-30 2 -45 -31 -15 -31 -21 -35 -42 -30 -23 6 -25 3 -25 -25 0 -32 0 -32 43
-25 103 17 127 18 127 8 0 -5 -8 -13 -17 -16 -11 -5 -13 -10 -6 -17 6 -6 8
-20 6 -30 -5 -18 -8 -17 -24 11 -16 26 -22 29 -38 20 -11 -5 -26 -7 -35 -4 -9
3 -19 -3 -26 -16 -14 -25 -6 -38 13 -22 16 13 37 -2 37 -27 0 -14 1 -14 10 -1
9 13 11 13 19 1 8 -12 13 -11 33 5 12 10 23 24 24 29 4 35 19 55 46 61 17 3
26 9 20 13 -17 10 75 34 136 35 28 0 52 5 52 9 0 5 6 7 14 4 8 -3 16 -3 19 0
7 7 -30 43 -45 44 -7 1 -2 5 12 9 25 8 25 8 3 15 -13 4 -20 12 -16 21 7 18 3
18 -25 -2z m-127 -74 c8 -13 -20 -24 -42 -16 -15 6 -15 8 -3 16 20 13 37 12
45 0z m-75 -9 c0 -5 -6 -11 -12 -14 -19 -6 -49 4 -42 14 7 12 54 12 54 0z"/>
<path d="M636 1144 c-4 -9 -13 -14 -21 -10 -11 4 -15 -2 -15 -23 0 -24 5 -30
31 -35 47 -9 59 -7 59 9 0 8 5 15 10 15 6 0 10 -8 10 -17 0 -15 2 -15 9 -4 15
23 1 41 -29 41 -16 0 -32 5 -35 10 -3 6 -1 10 5 10 6 0 8 5 5 10 -9 15 -22 12
-29 -6z"/>
<path d="M540 1095 c7 -9 15 -13 17 -11 7 7 -7 26 -19 26 -6 0 -6 -6 2 -15z"/>
<path d="M1074 1085 l-29 -25 30 0 c29 0 62 30 48 44 -11 10 -19 7 -49 -19z"/>
<path d="M895 1080 c-3 -5 1 -10 9 -10 8 0 18 5 21 10 3 6 -1 10 -9 10 -8 0
-18 -4 -21 -10z"/>
<path d="M827 1056 c-9 -7 -28 -11 -42 -8 -19 3 -25 0 -25 -13 0 -9 6 -15 13
-12 6 2 20 0 30 -5 9 -5 23 -6 29 -2 16 10 118 14 118 4 0 -12 -124 -20 -230
-13 l-100 6 0 -25 c0 -33 8 -40 32 -27 11 6 31 8 45 4 l26 -6 -22 -15 c-12 -9
-29 -13 -37 -10 -8 3 -30 -2 -50 -11 -30 -15 -36 -15 -44 -3 -5 8 -12 11 -15
8 -11 -11 5 -28 25 -28 10 0 21 -7 24 -15 5 -13 13 -12 53 10 26 14 58 25 70
25 27 0 73 20 73 32 0 12 42 9 69 -6 l24 -13 -34 -7 c-19 -3 -47 -7 -62 -9
-16 -2 -33 -10 -37 -18 -7 -10 -14 -11 -27 -3 -25 14 -51 7 -58 -17 -4 -10
-15 -19 -25 -19 -10 0 -22 -4 -25 -10 -3 -5 3 -10 14 -10 11 0 23 5 26 10 3 6
18 10 33 10 15 0 39 7 54 14 17 9 30 11 34 5 4 -6 11 -6 20 1 7 7 39 14 71 16
32 3 78 7 103 10 25 3 60 7 79 8 31 3 37 9 63 61 15 32 26 60 24 63 -3 2 -20
-1 -38 -6 -18 -6 -60 -14 -93 -17 -57 -7 -59 -6 -37 10 25 19 30 37 6 28 -9
-3 -20 0 -25 8 -5 8 -9 9 -9 3 0 -6 -20 -11 -45 -12 -25 0 -45 4 -45 9 0 13
-12 11 -33 -5z m198 -86 c7 -12 -42 -33 -57 -24 -5 3 1 12 14 19 29 17 35 17
43 5z"/>
<path d="M591 1053 c-1 -7 -16 -15 -35 -19 -24 -4 -33 -10 -29 -20 7 -19 33
-18 33 1 0 8 4 15 9 15 4 0 7 -11 6 -25 -4 -28 1 -31 20 -11 10 10 11 22 5 42
-4 16 -9 24 -9 17z"/>
<path d="M365 1010 c4 -6 11 -8 16 -5 14 9 11 15 -7 15 -8 0 -12 -5 -9 -10z"/>
<path d="M271 996 c-10 -12 -8 -17 8 -25 22 -12 34 -1 25 23 -8 20 -18 20 -33
2z"/>
<path d="M441 990 c-8 -4 -11 -15 -7 -25 5 -14 16 -17 61 -13 80 7 94 30 18
30 -21 0 -43 4 -48 8 -6 5 -17 5 -24 0z"/>
<path d="M203 943 c-7 -2 -13 -9 -13 -15 0 -7 4 -7 13 0 8 7 18 7 27 2 15 -9
30 -4 30 11 0 9 -36 11 -57 2z"/>
<path d="M289 938 c-8 -17 -2 -58 8 -58 7 0 13 -4 13 -8 0 -5 14 -6 31 -4 31
5 31 5 10 16 -12 7 -19 15 -16 18 3 3 -6 13 -20 22 -14 9 -26 15 -26 14z"/>
<path d="M4935 930 c3 -5 8 -10 11 -10 2 0 4 5 4 10 0 6 -5 10 -11 10 -5 0 -7
-4 -4 -10z"/>
<path d="M538 866 c-8 -8 -26 -16 -39 -19 -17 -3 -14 -5 13 -6 20 0 43 -4 52
-7 20 -8 22 19 2 35 -11 9 -17 8 -28 -3z"/>
<path d="M350 851 c0 -17 12 -41 21 -41 5 0 9 11 9 25 0 16 -6 25 -15 25 -8 0
-15 -4 -15 -9z"/>
<path d="M430 835 c7 -9 15 -13 17 -11 7 7 -7 26 -19 26 -6 0 -6 -6 2 -15z"/>
<path d="M4985 840 c-3 -6 1 -7 9 -4 18 7 21 14 7 14 -6 0 -13 -4 -16 -10z"/>
<path d="M5014 828 c-4 -7 -4 -10 1 -6 4 4 14 3 22 -4 11 -8 12 -7 7 6 -7 19
-20 21 -30 4z"/>
<path d="M310 820 c0 -5 7 -10 16 -10 8 0 12 5 9 10 -3 6 -10 10 -16 10 -5 0
-9 -4 -9 -10z"/>
<path d="M4921 814 c0 -11 3 -14 6 -6 3 7 2 16 -1 19 -3 4 -6 -2 -5 -13z"/>
<path d="M708 779 c-21 -13 9 -14 72 -3 l65 13 -63 -2 c-35 -1 -68 -5 -74 -8z"/>
<path d="M1 764 c0 -11 3 -14 6 -6 3 7 2 16 -1 19 -3 4 -6 -2 -5 -13z"/>
<path d="M31 764 c0 -11 3 -14 6 -6 3 7 2 16 -1 19 -3 4 -6 -2 -5 -13z"/>
<path d="M60 760 c0 -5 11 -10 25 -10 14 0 25 5 25 10 0 6 -11 10 -25 10 -14
0 -25 -4 -25 -10z"/>
<path d="M493 743 c9 -2 23 -2 30 0 6 3 -1 5 -18 5 -16 0 -22 -2 -12 -5z"/>
<path d="M420 730 l-25 -8 28 -1 c15 -1 27 4 27 9 0 6 -1 10 -2 9 -2 -1 -14
-5 -28 -9z"/>
<path d="M5027 721 c-17 -6 -17 -9 -4 -19 12 -10 16 -9 21 4 8 21 6 23 -17 15z"/>
<path d="M4915 700 c3 -5 8 -10 11 -10 2 0 4 5 4 10 0 6 -5 10 -11 10 -5 0 -7
-4 -4 -10z"/>
<path d="M4974 685 c0 -14 4 -25 8 -25 9 0 16 23 10 38 -8 21 -20 13 -18 -13z"/>
<path d="M150 694 c-8 -1 -45 -6 -82 -9 -49 -5 -68 -11 -68 -21 0 -8 8 -14 18
-14 24 0 155 28 183 39 23 9 23 10 -6 9 -16 0 -37 -2 -45 -4z"/>
<path d="M5006 675 c-9 -26 -7 -32 5 -12 6 10 9 21 6 23 -2 3 -7 -2 -11 -11z"/>
<path d="M4998 623 c-10 -2 -18 -11 -18 -19 0 -11 4 -10 20 3 17 15 26 26 18
22 -2 -1 -11 -3 -20 -6z"/>
<path d="M5025 610 c-3 -5 -1 -10 4 -10 6 0 11 5 11 10 0 6 -2 10 -4 10 -3 0
-8 -4 -11 -10z"/>
<path d="M4851 584 c0 -11 3 -14 6 -6 3 7 2 16 -1 19 -3 4 -6 -2 -5 -13z"/>
<path d="M0 459 l0 -50 42 3 c51 4 59 21 18 38 -29 12 -34 20 -31 48 1 6 -5
12 -14 12 -11 0 -15 -12 -15 -51z"/>
<path d="M770 501 c0 -17 12 -41 21 -41 5 0 9 11 9 25 0 16 -6 25 -15 25 -8 0
-15 -4 -15 -9z"/>
<path d="M4744 483 c3 -4 1 -12 -5 -19 -7 -8 -7 -14 1 -19 6 -4 9 -1 8 7 -2 7
5 12 15 12 24 -2 21 13 -4 19 -12 3 -18 3 -15 0z"/>
<path d="M100 452 c0 -4 9 -13 21 -20 17 -11 23 -11 32 1 7 8 19 17 27 20 8 3
-6 6 -32 6 -27 1 -48 -2 -48 -7z"/>
<path d="M4790 449 c0 -5 5 -7 10 -4 6 3 10 8 10 11 0 2 -4 4 -10 4 -5 0 -10
-5 -10 -11z"/>
<path d="M830 434 c-52 -7 -122 -17 -155 -23 -146 -23 -209 -32 -340 -47 -238
-28 -309 -32 -323 -22 -9 8 -12 -13 -12 -102 l0 -112 85 4 c82 5 129 17 69 19
l-29 0 25 11 c15 6 59 7 108 4 70 -5 84 -4 89 10 4 12 22 15 92 15 121 -1 226
5 295 18 47 9 62 8 68 -1 6 -10 8 -10 8 0 0 6 11 12 25 12 38 0 65 33 64 78 0
20 -3 32 -5 26 -3 -8 -16 -8 -43 -1 -31 8 -51 7 -97 -7 -33 -10 -68 -17 -79
-17 -70 6 -137 2 -149 -8 -10 -8 -27 -10 -48 -5 -89 19 -167 11 -190 -21 -5
-6 -11 -5 -17 4 -6 10 -24 14 -50 13 -21 -2 -42 2 -46 7 -6 11 25 21 60 20 11
0 101 9 200 19 99 11 243 23 320 27 77 4 144 10 149 12 22 13 -24 20 -127 17
l-112 -2 125 20 c110 17 153 30 139 41 -2 2 -47 -2 -99 -9z m-182 -61 c-10 -2
-28 -2 -40 0 -13 2 -5 4 17 4 22 1 32 -1 23 -4z m-111 -9 c-3 -3 -12 -4 -19
-1 -8 3 -5 6 6 6 11 1 17 -2 13 -5z m306 -51 c-7 -2 -21 -2 -30 0 -10 3 -4 5
12 5 17 0 24 -2 18 -5z m-684 -17 c-12 -10 -60 -16 -54 -6 3 5 18 10 32 10 15
0 24 -2 22 -4z m718 -12 c-3 -3 -12 -4 -19 -1 -8 3 -5 6 6 6 11 1 17 -2 13 -5z
m-407 -34 c0 -5 -2 -10 -4 -10 -3 0 -8 5 -11 10 -3 6 -1 10 4 10 6 0 11 -4 11
-10z m45 0 c-27 -12 -35 -12 -35 0 0 6 12 10 28 9 24 0 25 -1 7 -9z"/>
<path d="M4680 438 c0 -23 12 -29 27 -12 8 8 9 15 3 19 -6 3 -10 0 -10 -7 0
-9 -3 -9 -10 2 -8 13 -10 13 -10 -2z"/>
<path d="M165 430 c-3 -5 3 -10 14 -10 11 0 23 5 26 10 3 6 -3 10 -14 10 -11
0 -23 -4 -26 -10z"/>
<path d="M4640 436 c0 -2 7 -9 15 -16 9 -7 15 -8 15 -2 0 5 -7 12 -15 16 -8 3
-15 4 -15 2z"/>
<path d="M4808 413 c7 -3 16 -2 19 1 4 3 -2 6 -13 5 -11 0 -14 -3 -6 -6z"/>
<path d="M4760 401 c0 -6 4 -13 10 -16 6 -3 7 1 4 9 -7 18 -14 21 -14 7z"/>
<path d="M7040 400 c0 -5 18 -10 40 -10 22 0 40 5 40 10 0 6 -18 10 -40 10
-22 0 -40 -4 -40 -10z"/>
<path d="M4834 390 c17 -6 36 -5 45 0 11 7 3 9 -29 9 -42 -1 -43 -1 -16 -9z"/>
<path d="M4741 374 c0 -11 3 -14 6 -6 3 7 2 16 -1 19 -3 4 -6 -2 -5 -13z"/>
<path d="M4696 361 c-13 -14 -14 -21 -5 -27 7 -4 10 -3 5 4 -3 6 4 18 16 26
12 9 18 16 12 16 -6 0 -19 -9 -28 -19z"/>
<path d="M4812 336 c7 -8 15 -12 17 -11 5 6 -10 25 -20 25 -5 0 -4 -6 3 -14z"/>
<path d="M5071 324 c0 -11 3 -14 6 -6 3 7 2 16 -1 19 -3 4 -6 -2 -5 -13z"/>
<path d="M6660 289 c0 -5 5 -7 10 -4 6 3 10 8 10 11 0 2 -4 4 -10 4 -5 0 -10
-5 -10 -11z"/>
<path d="M4668 261 c-15 -17 -14 -18 8 -18 14 0 27 4 31 10 4 7 0 8 -11 4 -14
-5 -17 -3 -12 8 7 20 4 19 -16 -4z"/>
<path d="M4725 270 c-4 -6 -5 -12 -4 -13 2 -2 11 -8 21 -15 11 -9 18 -10 23
-2 4 6 1 9 -6 8 -7 -2 -13 2 -14 9 0 18 -12 26 -20 13z"/>
<path d="M4783 228 c-15 -7 -23 -20 -23 -36 0 -14 -8 -31 -17 -38 -10 -7 -13
-14 -6 -14 6 0 14 4 18 10 7 11 35 2 35 -12 0 -5 -6 -8 -12 -7 -7 1 -22 1 -32
0 -16 -1 -17 -4 -8 -13 10 -10 15 -10 22 2 5 8 10 10 10 5 0 -6 8 -15 19 -22
16 -10 18 -9 16 10 -1 12 -3 28 -4 35 0 6 -8 12 -16 12 -12 0 -11 4 5 20 11
11 20 29 20 40 0 11 -1 20 -2 19 -2 0 -13 -5 -25 -11z m7 -28 c0 -5 -2 -10 -4
-10 -3 0 -8 5 -11 10 -3 6 -1 10 4 10 6 0 11 -4 11 -10z"/>
<path d="M4643 217 c-3 -6 -1 -7 5 -3 6 3 15 -2 21 -11 10 -17 10 -16 11 3 0
21 -26 29 -37 11z"/>
<path d="M6959 210 c-1 -3 0 -17 1 -32 1 -19 -3 -28 -14 -28 -41 0 -101 -60
-75 -76 21 -13 -6 -26 -45 -21 -22 3 -33 3 -23 0 9 -2 15 -9 11 -14 -3 -5 -10
-6 -16 -3 -8 5 -9 1 -5 -10 4 -10 7 -20 7 -22 0 -2 72 -4 160 -4 l160 0 0 38
c0 30 -5 41 -22 50 l-23 11 23 0 c20 1 22 6 22 56 0 53 0 54 -32 59 -39 6
-128 3 -129 -4z m111 -80 c0 -5 -7 -10 -15 -10 -9 0 -15 -9 -15 -22 0 -19 -2
-20 -10 -8 -5 8 -14 16 -20 16 -5 1 -14 2 -20 3 -5 0 -10 8 -10 16 0 11 12 15
45 15 25 0 45 -4 45 -10z m-203 -106 c-3 -3 -12 -4 -19 -1 -8 3 -5 6 6 6 11 1
17 -2 13 -5z"/>
<path d="M4690 190 c0 -5 5 -10 10 -10 6 0 10 5 10 10 0 6 -4 10 -10 10 -5 0
-10 -4 -10 -10z"/>
<path d="M4810 190 c0 -5 5 -10 10 -10 6 0 10 5 10 10 0 6 -4 10 -10 10 -5 0
-10 -4 -10 -10z"/>
<path d="M4670 165 c0 -7 30 -13 34 -7 3 4 -4 9 -15 9 -10 1 -19 0 -19 -2z"/>
<path d="M4994 153 c-25 -5 -39 -49 -18 -57 8 -3 13 -2 13 2 -3 18 2 32 11 32
5 0 7 -6 4 -14 -3 -8 0 -17 7 -22 7 -4 10 -3 6 3 -9 15 34 24 50 11 10 -8 13
-6 13 6 0 9 -5 16 -12 16 -19 0 1 14 22 15 15 1 17 -1 9 -11 -6 -7 -9 -23 -6
-36 4 -21 4 -21 6 3 0 15 8 30 17 33 48 18 -48 34 -122 19z m41 -13 c3 -6 -1
-7 -9 -4 -18 7 -21 14 -7 14 6 0 13 -4 16 -10z"/>
<path d="M6800 124 c0 -8 5 -12 10 -9 6 4 8 11 5 16 -9 14 -15 11 -15 -7z"/>
<path d="M4845 120 c-3 -5 -1 -10 4 -10 6 0 11 5 11 10 0 6 -2 10 -4 10 -3 0
-8 -4 -11 -10z"/>
<path d="M4715 102 c-12 -8 -16 -42 -5 -42 7 0 22 41 17 47 -2 1 -7 -1 -12 -5z"/>
<path d="M4740 63 c0 -14 3 -23 7 -20 3 4 12 2 19 -4 10 -8 11 -5 1 20 -14 38
-27 40 -27 4z"/>
<path d="M4770 80 c0 -5 5 -10 10 -10 6 0 10 5 10 10 0 6 -4 10 -10 10 -5 0
-10 -4 -10 -10z"/>
<path d="M4833 20 c2 -24 37 -28 37 -4 0 8 -4 12 -10 9 -5 -3 -10 -1 -10 4 0
6 -4 11 -9 11 -6 0 -9 -9 -8 -20z"/>
<path d="M4755 21 c-13 -12 -2 -21 25 -21 21 0 28 4 24 14 -5 13 -39 18 -49 7z"/>
</g>
</svg>
