<?xml version="1.0" standalone="no"?>
<!DOCTYPE svg PUBLIC "-//W3C//DTD SVG 20010904//EN"
 "http://www.w3.org/TR/2001/REC-SVG-20010904/DTD/svg10.dtd">
<svg version="1.0" xmlns="http://www.w3.org/2000/svg"
 width="500.000000pt" height="500.000000pt" viewBox="0 0 500.000000 500.000000"
 preserveAspectRatio="xMidYMid meet">

<g transform="translate(0.000000,500.000000) scale(0.100000,-0.100000)"
fill="#000000" stroke="none">
<path d="M0 2500 l0 -2500 2500 0 2500 0 0 2500 0 2500 -2500 0 -2500 0 0
-2500z m885 260 c30 -11 48 -37 41 -57 -6 -14 -11 -11 -34 16 -18 21 -44 37
-77 46 l-50 14 50 -6 c28 -3 59 -9 70 -13z m1712 -5 c33 -14 52 -50 35 -67 -7
-7 -12 -3 -17 11 -19 61 -132 86 -193 42 -65 -46 -93 -162 -58 -244 42 -101
164 -124 246 -47 l30 28 0 -24 c0 -45 -121 -79 -194 -54 -83 27 -126 90 -126
185 0 150 131 230 277 170z m1140 4 c31 -12 59 -57 44 -72 -7 -7 -11 -7 -11 0
0 19 -52 63 -88 73 -109 30 -207 -85 -183 -215 10 -52 24 -77 61 -109 60 -50
142 -41 205 22 l25 25 0 -26 c0 -32 -33 -52 -101 -62 -134 -20 -244 89 -224
221 18 125 143 190 272 143z m-2987 4 c-42 -13 -60 -29 -71 -60 -15 -47 6 -69
80 -83 102 -21 128 -30 155 -55 61 -56 11 -156 -86 -170 -98 -15 -193 28 -186
84 2 14 10 27 19 29 12 2 15 -3 12 -21 -4 -18 3 -31 26 -50 79 -66 211 -32
211 54 0 47 -28 67 -121 87 -126 27 -156 53 -139 122 7 29 63 70 94 69 14 0
16 -2 6 -6z m3090 -178 c0 -158 -2 -185 -15 -185 -13 0 -15 27 -15 185 0 158
2 185 15 185 13 0 15 -27 15 -185z m320 115 l0 -71 30 16 c42 22 102 19 129
-6 43 -41 54 -114 25 -175 -23 -48 -59 -64 -144 -64 l-70 0 0 185 c0 158 2
185 15 185 12 0 15 -14 15 -70z m-2231 32 c10 6 26 8 36 4 14 -5 16 -14 12
-41 -5 -31 -3 -34 21 -37 23 -3 31 -15 71 -115 24 -62 47 -113 51 -113 3 0 19
44 34 98 31 107 42 132 56 132 17 0 11 -23 -46 -165 -86 -215 -99 -235 -154
-235 -29 0 -20 24 11 28 30 5 64 35 80 73 10 25 9 32 -3 42 -9 7 -35 63 -59
124 -24 62 -47 113 -51 113 -5 0 -8 -54 -8 -120 0 -102 -2 -120 -16 -120 -13
0 -15 17 -12 125 3 119 2 125 -17 125 -17 0 -17 2 5 13 16 8 26 23 28 40 2 15
1 27 -1 27 -14 0 -67 -33 -67 -42 0 -6 -9 -3 -19 6 -18 16 -18 19 -3 35 13 13
19 14 25 4 6 -10 12 -10 26 -1z m-781 -88 c29 -20 28 -59 -3 -88 -25 -23 -92
-46 -134 -46 -12 0 -21 -2 -21 -5 0 -20 32 -75 48 -84 34 -18 90 -13 113 10
11 11 23 19 25 17 2 -3 -7 -15 -20 -27 -50 -47 -143 -33 -179 29 -23 38 -24
112 -3 145 38 58 126 83 174 49z m80 -13 l3 -22 31 26 c24 21 40 25 72 23 28
-2 41 -8 41 -18 0 -8 -7 -13 -15 -11 -55 15 -80 12 -104 -13 -24 -23 -26 -31
-26 -121 0 -86 -2 -96 -17 -93 -16 3 -18 18 -21 118 -1 62 0 120 3 128 7 20
29 9 33 -17z m340 13 c59 -41 2 -114 -100 -129 -32 -5 -48 -12 -48 -22 0 -23
28 -70 45 -77 33 -12 83 -6 111 15 26 19 25 18 -4 -10 -18 -18 -43 -31 -57
-31 -35 0 -86 23 -109 49 -27 29 -33 109 -12 150 33 62 123 91 174 55z m82 -4
c0 -20 0 -20 33 0 47 29 111 27 142 -5 23 -23 25 -31 25 -130 0 -87 -3 -105
-15 -105 -12 0 -15 17 -15 96 0 125 -14 154 -78 154 -24 0 -42 -9 -63 -29 -28
-28 -29 -33 -29 -125 0 -79 -3 -96 -15 -96 -13 0 -15 21 -15 130 0 109 2 130
15 130 8 0 15 -9 15 -20z m260 -110 c0 -109 -2 -130 -15 -130 -13 0 -15 21
-15 130 0 109 2 130 15 130 13 0 15 -21 15 -130z m949 104 c17 -14 36 -43 42
-64 42 -139 -114 -239 -211 -135 -28 30 -38 111 -20 156 29 68 131 92 189 43z
m113 -74 c65 -164 56 -160 93 -33 36 120 41 133 56 133 16 0 10 -22 -38 -142
-34 -86 -51 -118 -63 -118 -13 0 -30 32 -63 113 -66 160 -63 150 -42 146 13
-3 30 -34 57 -99z m356 84 c59 -41 2 -114 -100 -129 -32 -5 -48 -12 -48 -22 0
-23 28 -70 45 -77 33 -12 83 -6 111 15 26 19 25 18 -4 -10 -18 -18 -43 -31
-57 -31 -35 0 -86 23 -109 49 -27 29 -33 109 -12 150 33 62 123 91 174 55z
m625 10 c3 -4 -6 -22 -20 -41 -20 -26 -28 -50 -31 -93 -4 -53 -2 -61 21 -84
26 -26 66 -33 102 -20 31 12 45 59 45 154 0 73 3 90 15 90 13 0 15 -21 15
-130 0 -109 -2 -130 -15 -130 -8 0 -15 7 -15 15 0 19 -3 19 -42 -5 -39 -24
-69 -25 -108 -5 -38 20 -50 43 -50 99 0 35 7 54 35 90 19 26 35 48 35 51 0 11
-35 4 -51 -11 -11 -10 -19 -12 -24 -5 -11 19 71 42 88 25z"/>
<path d="M4184 2625 c-23 -23 -25 -30 -22 -117 l3 -93 42 -3 c51 -4 78 9 103
51 23 38 25 85 6 132 -25 59 -88 74 -132 30z"/>
<path d="M1033 2635 c-28 -20 -51 -91 -35 -107 16 -16 77 -1 112 28 31 27 39
61 18 82 -17 17 -69 15 -95 -3z"/>
<path d="M1447 2625 c-26 -27 -43 -76 -32 -95 19 -30 131 14 141 56 10 37 -7
58 -48 62 -26 2 -40 -3 -61 -23z"/>
<path d="M2737 2639 c-25 -14 -47 -69 -47 -115 0 -71 43 -124 101 -124 30 0
75 50 83 93 8 45 -8 111 -35 138 -21 21 -73 25 -102 8z"/>
<path d="M3207 2625 c-26 -27 -43 -76 -32 -95 19 -30 131 14 141 56 10 37 -7
58 -48 62 -26 2 -40 -3 -61 -23z"/>
</g>
</svg>
