<svg width="94" height="87" viewBox="0 0 94 87" fill="none" xmlns="http://www.w3.org/2000/svg">
<path d="M39.95 1.97651L4.7 24.3511C1.7625 26.2405 0 29.1741 0 32.3065V77.0557C0 82.5251 5.2875 87 11.75 87H82.25C88.7125 87 94 82.5251 94 77.0557V32.3065C94 29.1741 92.2375 26.2405 89.3 24.3511L54.05 1.97651C52.0123 0.693129 49.54 0 47 0C44.46 0 41.9877 0.693129 39.95 1.97651ZM49.9375 44.7369C49.9375 48.8637 46.0013 52.1951 41.125 52.1951V69.5975C41.125 70.9897 39.8325 72.0836 38.1875 72.0836C36.5425 72.0836 35.25 70.9897 35.25 69.5975V52.1951C30.3738 52.1951 26.4375 48.8637 26.4375 44.7369V32.3065C26.4375 30.9143 27.73 29.8205 29.375 29.8205C31.02 29.8205 32.3125 30.9143 32.3125 32.3065V44.7369H35.25V32.3065C35.25 30.9143 36.5425 29.8205 38.1875 29.8205C39.8325 29.8205 41.125 30.9143 41.125 32.3065V44.7369H44.0625V32.3065C44.0625 30.9143 45.355 29.8205 47 29.8205C48.645 29.8205 49.9375 30.9143 49.9375 32.3065V44.7369ZM61.6875 72.0836C60.0425 72.0836 58.75 70.9897 58.75 69.5975V54.6811H55.8125C54.1675 54.6811 52.875 53.5873 52.875 52.1951V39.7647C52.875 35.3893 56.2238 31.6601 60.865 30.3674C62.6862 29.8205 64.625 31.0635 64.625 32.754V69.5975C64.625 70.9897 63.3325 72.0836 61.6875 72.0836Z" fill="black"/>
</svg>
