<svg width="100" height="100" viewBox="0 0 100 100" fill="none" xmlns="http://www.w3.org/2000/svg">
<g clip-path="url(#clip0_37_35)">
<path d="M10.3525 38.4615L40.7717 78.4255L26.1236 38.4615H10.3525ZM50 84.8558L67.0406 38.4615H32.9594L50 84.8558ZM26.2701 30.7692L36.2308 7.69231H23.4382L9.37601 30.7692H26.2701ZM59.2283 78.4255L89.6474 38.4615H73.8763L59.2283 78.4255ZM33.35 30.7692H66.65L56.6893 7.69231H43.3107L33.35 30.7692ZM73.7299 30.7692H90.624L76.5618 7.69231H63.7692L73.7299 30.7692ZM80.6145 1.5625L99.364 32.3317C99.8197 33.0529 100.031 33.8842 99.9987 34.8257C99.9662 35.7672 99.6895 36.5785 99.1687 37.2596L52.2949 98.7981C51.7089 99.5994 50.944 100 50 100C49.056 100 48.291 99.5994 47.7051 98.7981L0.831298 37.2596C0.310478 36.5785 0.0337922 35.7672 0.00124097 34.8257C-0.0313103 33.8842 0.180273 33.0529 0.635991 32.3317L19.3855 1.5625C19.9714 0.520833 20.8015 0 21.8757 0H78.1243C79.1985 0 80.0285 0.520833 80.6145 1.5625Z" fill="black"/>
</g>
<defs>
<clipPath id="clip0_37_35">
<rect width="100" height="100" fill="white"/>
</clipPath>
</defs>
</svg>
