<svg width="105" height="105" viewBox="0 0 105 105" fill="none" xmlns="http://www.w3.org/2000/svg">
<path d="M10.5 59.561V70.3903H94.5V59.561H10.5ZM10.5 9.19294e-06H94.5C97.3875 9.19294e-06 99.8602 1.06128 101.918 3.18382C103.976 5.30635 105.003 7.85484 105 10.8293V70.3903C105 73.3683 103.971 75.9186 101.913 78.0412C99.855 80.1637 97.384 81.2232 94.5 81.2195H73.5V99.4939C73.5 101.57 72.6687 103.127 71.0062 104.167C69.3438 105.206 67.6375 105.273 65.8875 104.367L54.8625 98.6818C54.1625 98.2305 53.375 98.0049 52.5 98.0049C51.625 98.0049 50.8375 98.2305 50.1375 98.6818L39.1125 104.367C37.3625 105.27 35.6563 105.203 33.9938 104.167C32.3313 103.131 31.5 101.573 31.5 99.4939V81.2195H10.5C7.61251 81.2195 5.13976 80.1583 3.08176 78.0357C1.02376 75.9132 -0.00349109 73.3647 8.91342e-06 70.3903V10.8293C8.91342e-06 7.85123 1.02901 5.30094 3.08701 3.1784C5.14501 1.05586 7.61601 -0.00360056 10.5 9.19294e-06ZM10.5 43.3171H94.5V10.8293H10.5V43.3171Z" fill="black"/>
</svg>
