<?xml version="1.0" standalone="no"?>
<!DOCTYPE svg PUBLIC "-//W3C//DTD SVG 20010904//EN"
 "http://www.w3.org/TR/2001/REC-SVG-20010904/DTD/svg10.dtd">
<svg version="1.0" xmlns="http://www.w3.org/2000/svg"
 width="413.000000pt" height="557.000000pt" viewBox="0 0 413.000000 557.000000"
 preserveAspectRatio="xMidYMid meet">

<g transform="translate(0.000000,557.000000) scale(0.100000,-0.100000)"
fill="#000000" stroke="none">
<path d="M183 5388 c90 -140 293 -453 479 -738 353 -544 332 -508 311 -532
-17 -19 -18 -49 -21 -419 l-3 -399 -86 -83 c-407 -390 -603 -949 -529 -1507
71 -533 375 -993 840 -1275 312 -188 717 -270 1088 -220 394 52 741 231 1023
527 225 235 384 551 447 886 32 170 32 467 0 637 -70 368 -246 695 -513 950
l-84 80 -5 401 c-5 373 -6 403 -23 422 -12 13 -16 26 -11 34 11 19 674 1043
755 1167 38 58 69 109 69 113 0 4 -361 8 -802 8 l-803 0 -135 -205 c-74 -113
-137 -205 -140 -205 -3 0 -65 93 -138 205 l-134 205 -809 0 -810 0 34 -52z
m1112 -50 c28 -38 843 -1277 943 -1433 l22 -35 -277 0 -278 1 -225 342 c-375
572 -737 1124 -744 1136 -5 8 67 11 268 11 274 0 275 0 291 -22z m2038 -7
c-145 -225 -730 -1111 -742 -1124 -6 -6 -281 393 -281 408 0 3 66 106 147 228
81 122 185 281 231 352 46 72 91 138 100 148 14 15 41 17 290 17 l274 0 -19
-29z m-2150 -1481 l47 -60 812 2 812 3 46 60 45 60 3 -218 c1 -137 -1 -225 -8
-237 -10 -19 -15 -17 -103 30 -172 92 -366 155 -573 186 -145 22 -405 14 -549
-16 -151 -32 -306 -87 -443 -156 -113 -58 -123 -61 -132 -44 -9 17 -15 450 -7
450 2 0 25 -27 50 -60z m817 -424 c0 -12 -96 -265 -298 -786 l-48 -125 -487
-3 -487 -2 21 52 c49 126 189 327 315 453 252 250 583 397 962 423 13 1 22 -4
22 -12z m295 -12 c50 -9 144 -33 210 -55 221 -74 385 -177 565 -358 128 -128
215 -248 285 -392 l46 -94 -483 -3 c-265 -1 -485 1 -489 5 -7 7 -119 295 -305
783 -24 63 -44 120 -44 127 0 15 68 10 215 -13z m-151 -797 c55 -144 104 -268
110 -276 9 -11 56 -13 276 -8 146 4 294 3 330 -1 l65 -7 -80 -51 c-44 -28
-164 -102 -267 -165 -103 -63 -188 -119 -188 -124 0 -6 45 -127 100 -270 55
-143 99 -263 98 -267 -2 -4 -125 69 -275 162 l-272 170 -163 -102 c-284 -176
-388 -238 -388 -230 0 4 45 124 100 267 55 143 100 264 100 270 0 6 -78 57
-172 115 -95 57 -217 132 -270 166 l-98 62 96 7 c53 4 203 4 333 0 195 -6 238
-5 247 6 6 8 56 132 110 276 54 145 101 263 104 263 3 0 50 -118 104 -263z
m-1314 -369 c441 -273 566 -350 574 -358 8 -8 -9 -56 -243 -664 -72 -187 -130
-340 -129 -342 2 -1 229 137 505 307 l502 310 503 -310 c276 -170 504 -309
505 -307 2 1 -83 226 -188 500 -107 278 -188 501 -183 506 5 5 169 107 364
227 195 121 367 227 382 237 l27 18 15 -54 c46 -163 57 -459 22 -643 -114
-612 -587 -1085 -1201 -1201 -121 -23 -366 -23 -494 0 -306 56 -586 208 -807
439 -190 198 -315 432 -380 712 -25 108 -28 138 -28 310 -1 160 3 208 22 305
24 119 29 133 40 126 4 -2 90 -55 192 -118z"/>
</g>
</svg>
